{"glyphs":{"0":{"ha":986,"x_min":63,"x_max":924,"o":"m 493 -17 q 263 47 358 -17 q 115 223 167 110 q 63 486 63 336 q 115 749 63 635 q 263 926 167 863 q 493 989 358 989 q 724 926 628 989 q 872 749 819 863 q 924 486 924 635 q 872 223 924 336 q 724 47 819 110 q 493 -17 628 -17 m 493 143 q 672 235 603 143 q 742 486 742 326 q 672 738 742 646 q 493 829 603 829 q 313 738 382 829 q 244 486 244 646 q 313 235 244 326 q 493 143 382 143 z "},"1":{"ha":479,"x_min":40,"x_max":385,"o":"m 200 0 l 200 769 l 40 732 l 40 868 l 275 972 l 385 972 l 385 0 l 200 0 z "},"2":{"ha":793,"x_min":71,"x_max":740,"o":"m 71 0 l 71 129 q 244 275 160 203 q 394 418 328 347 q 499 556 460 489 q 539 688 539 624 q 506 793 539 747 q 399 839 474 839 q 283 789 322 839 q 244 668 244 739 l 72 668 q 119 847 75 775 q 238 953 164 918 q 403 989 311 989 q 634 908 551 989 q 717 697 717 826 q 680 540 717 617 q 583 393 643 464 q 454 260 524 322 q 319 146 385 199 l 740 146 l 740 0 l 71 0 z "},"3":{"ha":828,"x_min":64,"x_max":747,"o":"m 413 -17 q 239 17 317 -17 q 114 122 161 51 q 64 300 67 193 l 239 300 q 285 181 240 229 q 413 133 331 133 q 532 176 490 133 q 574 285 574 219 q 519 401 574 361 q 378 440 464 440 l 306 440 l 306 586 l 379 586 q 497 619 450 586 q 544 718 544 653 q 509 805 544 772 q 411 838 474 838 q 305 797 343 838 q 263 699 267 757 l 89 699 q 183 911 94 833 q 411 989 271 989 q 580 953 511 989 q 684 860 649 918 q 719 731 719 801 q 674 592 719 649 q 563 517 629 536 q 696 437 644 500 q 747 278 747 374 q 708 131 747 197 q 595 24 669 64 q 413 -17 521 -17 z "},"4":{"ha":890,"x_min":60,"x_max":844,"o":"m 539 0 l 539 181 l 60 181 l 60 322 l 515 972 l 717 972 l 717 335 l 844 335 l 844 181 l 717 181 l 717 0 l 539 0 m 250 335 l 550 335 l 550 776 l 250 335 z "},"5":{"ha":861,"x_min":88,"x_max":790,"o":"m 443 -17 q 259 21 336 -17 q 138 124 182 58 q 88 274 94 190 l 261 274 q 322 174 274 214 q 443 135 371 135 q 570 192 521 135 q 619 333 619 249 q 570 472 619 421 q 446 524 521 524 q 338 493 383 524 q 272 417 292 463 l 101 417 l 185 972 l 724 972 l 724 817 l 318 817 l 274 592 q 357 647 304 625 q 475 668 410 668 q 649 622 579 668 q 754 499 718 575 q 790 335 790 424 q 747 154 790 233 q 624 29 703 75 q 443 -17 546 -17 z "},"6":{"ha":881,"x_min":68,"x_max":800,"o":"m 460 -17 q 275 24 350 -17 q 154 132 200 64 q 88 283 108 200 q 68 454 68 367 q 114 737 68 617 q 246 923 160 857 q 454 989 332 989 q 624 949 554 989 q 733 846 694 910 q 779 708 772 782 l 614 708 q 560 807 601 772 q 453 842 518 842 q 303 756 360 842 q 242 496 246 671 q 342 590 275 553 q 490 628 408 628 q 642 589 571 628 q 756 479 713 550 q 800 313 800 408 q 758 150 800 225 q 638 29 715 75 q 460 -17 561 -17 m 450 136 q 578 184 528 136 q 629 306 629 232 q 578 431 629 383 q 447 478 526 478 q 355 455 396 478 q 290 394 314 432 q 267 308 267 356 q 319 185 267 233 q 450 136 371 136 z "},"7":{"ha":742,"x_min":38,"x_max":700,"o":"m 150 0 l 517 821 l 38 821 l 38 972 l 700 972 l 700 846 l 335 0 l 150 0 z "},"8":{"ha":874,"x_min":81,"x_max":793,"o":"m 438 -17 q 257 19 338 -17 q 128 119 176 54 q 81 271 81 185 q 127 426 81 360 q 250 522 174 493 q 144 606 183 551 q 106 729 106 661 q 143 858 106 799 q 255 953 181 917 q 438 989 329 989 q 619 953 546 989 q 731 858 693 917 q 768 729 768 799 q 728 606 768 663 q 624 522 689 550 q 747 426 701 493 q 793 271 793 360 q 746 119 793 185 q 617 19 699 54 q 438 -17 536 -17 m 438 575 q 551 613 510 575 q 593 708 593 650 q 552 808 593 772 q 438 844 511 844 q 322 808 363 844 q 282 708 282 772 q 323 612 282 649 q 438 575 364 575 m 438 132 q 572 176 526 132 q 618 286 618 219 q 570 401 618 360 q 438 443 522 443 q 303 401 353 443 q 254 286 254 360 q 301 176 254 219 q 438 132 347 132 z "},"9":{"ha":881,"x_min":79,"x_max":811,"o":"m 426 -17 q 256 23 325 -17 q 147 126 186 63 q 101 264 108 190 l 267 264 q 320 165 278 200 q 428 131 363 131 q 578 216 521 131 q 639 476 635 301 q 538 382 606 419 q 390 344 471 344 q 239 383 310 344 q 124 493 168 422 q 79 660 79 564 q 122 822 79 747 q 242 943 165 897 q 421 989 318 989 q 606 949 531 989 q 726 840 681 908 q 791 689 771 772 q 811 518 811 606 q 766 235 811 356 q 634 49 721 115 q 426 -17 547 -17 m 432 494 q 525 517 483 494 q 590 578 567 540 q 614 664 614 617 q 562 788 614 739 q 431 836 510 836 q 301 788 353 836 q 250 667 250 740 q 301 542 250 589 q 432 494 353 494 z "},"A":{"ha":974,"x_min":32,"x_max":943,"o":"m 32 0 l 388 972 l 588 972 l 943 0 l 754 0 l 676 225 l 297 225 l 218 0 l 32 0 m 346 364 l 628 364 l 486 768 l 346 364 z "},"Á":{"ha":974,"x_min":32,"x_max":943,"o":"m 32 0 l 388 972 l 588 972 l 943 0 l 754 0 l 676 225 l 297 225 l 218 0 l 32 0 m 346 364 l 628 364 l 486 768 l 346 364 m 418 1028 l 418 1153 l 732 1322 l 732 1178 l 418 1028 z "},"Ă":{"ha":974,"x_min":32,"x_max":943,"o":"m 32 0 l 388 972 l 588 972 l 943 0 l 754 0 l 676 225 l 297 225 l 218 0 l 32 0 m 346 364 l 628 364 l 486 768 l 346 364 m 488 1040 q 330 1097 388 1040 q 272 1251 272 1154 l 272 1274 l 367 1274 q 394 1200 367 1226 q 488 1174 421 1174 q 583 1200 556 1174 q 610 1274 610 1226 l 704 1274 l 704 1250 q 646 1097 704 1154 q 488 1040 588 1040 z "},"Â":{"ha":974,"x_min":32,"x_max":943,"o":"m 32 0 l 388 972 l 588 972 l 943 0 l 754 0 l 676 225 l 297 225 l 218 0 l 32 0 m 346 364 l 628 364 l 486 768 l 346 364 m 285 1038 l 285 1165 l 488 1276 l 690 1165 l 690 1038 l 488 1151 l 285 1038 z "},"Ä":{"ha":974,"x_min":32,"x_max":943,"o":"m 32 0 l 388 972 l 588 972 l 943 0 l 754 0 l 676 225 l 297 225 l 218 0 l 32 0 m 346 364 l 628 364 l 486 768 l 346 364 m 613 1067 q 551 1092 576 1067 q 526 1153 526 1117 q 551 1214 526 1189 q 613 1239 576 1239 q 674 1214 649 1239 q 699 1153 699 1189 q 674 1092 699 1117 q 613 1067 649 1067 m 363 1067 q 301 1092 326 1067 q 276 1153 276 1117 q 301 1214 276 1189 q 363 1239 326 1239 q 424 1214 399 1239 q 449 1153 449 1189 q 424 1092 449 1117 q 363 1067 399 1067 z "},"À":{"ha":974,"x_min":32,"x_max":943,"o":"m 32 0 l 388 972 l 588 972 l 943 0 l 754 0 l 676 225 l 297 225 l 218 0 l 32 0 m 346 364 l 628 364 l 486 768 l 346 364 m 557 1028 l 243 1178 l 243 1322 l 557 1153 l 557 1028 z "},"Ā":{"ha":974,"x_min":32,"x_max":943,"o":"m 32 0 l 388 972 l 588 972 l 943 0 l 754 0 l 676 225 l 297 225 l 218 0 l 32 0 m 346 364 l 628 364 l 486 768 l 346 364 m 228 1088 l 228 1214 l 747 1214 l 747 1088 l 228 1088 z "},"Ą":{"ha":982,"x_min":32,"x_max":950,"o":"m 32 0 l 388 972 l 588 972 l 943 0 l 869 -35 q 799 -83 817 -60 q 781 -129 781 -106 q 800 -172 781 -157 q 853 -187 819 -187 q 950 -167 896 -187 l 950 -272 q 892 -286 924 -281 q 829 -292 861 -292 q 699 -257 754 -292 q 644 -144 644 -222 q 667 -62 644 -101 q 750 14 690 -24 l 676 225 l 297 225 l 218 0 l 32 0 m 346 364 l 628 364 l 486 768 l 346 364 z "},"Å":{"ha":974,"x_min":32,"x_max":943,"o":"m 32 0 l 388 972 l 588 972 l 943 0 l 754 0 l 676 225 l 297 225 l 218 0 l 32 0 m 346 364 l 628 364 l 486 768 l 346 364 m 488 1043 q 377 1085 424 1043 q 331 1199 331 1126 q 377 1313 331 1271 q 488 1354 424 1354 q 601 1313 554 1354 q 647 1199 647 1271 q 601 1085 647 1126 q 488 1043 554 1043 m 488 1124 q 540 1144 519 1124 q 561 1199 561 1165 q 540 1253 561 1233 q 488 1274 519 1274 q 438 1253 458 1274 q 417 1199 417 1233 q 438 1144 417 1165 q 488 1124 458 1124 z "},"Ã":{"ha":974,"x_min":32,"x_max":943,"o":"m 32 0 l 388 972 l 588 972 l 943 0 l 754 0 l 676 225 l 297 225 l 218 0 l 32 0 m 346 364 l 628 364 l 486 768 l 346 364 m 575 1044 q 508 1060 536 1044 q 457 1092 481 1076 q 404 1108 433 1108 q 344 1046 354 1108 l 250 1046 q 306 1176 264 1135 q 413 1218 349 1218 q 479 1202 451 1218 q 531 1170 507 1186 q 583 1154 554 1154 q 623 1169 607 1154 q 643 1217 639 1185 l 738 1217 q 681 1086 725 1128 q 575 1044 638 1044 z "},"Æ":{"ha":1304,"x_min":32,"x_max":1229,"o":"m 32 0 l 558 972 l 1229 972 l 1229 832 l 853 832 l 853 563 l 1188 563 l 1188 425 l 853 425 l 853 140 l 1229 140 l 1229 0 l 675 0 l 675 192 l 329 192 l 225 0 l 32 0 m 675 836 l 403 329 l 675 329 l 675 836 z "},"Ǽ":{"ha":1304,"x_min":32,"x_max":1229,"o":"m 32 0 l 558 972 l 1229 972 l 1229 832 l 853 832 l 853 563 l 1188 563 l 1188 425 l 853 425 l 853 140 l 1229 140 l 1229 0 l 675 0 l 675 192 l 329 192 l 225 0 l 32 0 m 675 836 l 403 329 l 675 329 l 675 836 m 732 1028 l 732 1153 l 1046 1322 l 1046 1178 l 732 1028 z "},"B":{"ha":876,"x_min":94,"x_max":818,"o":"m 94 0 l 94 972 l 485 972 q 716 902 636 972 q 796 722 796 832 q 747 576 796 631 q 626 501 697 521 q 764 419 710 485 q 818 265 818 353 q 735 75 818 150 q 499 0 651 0 l 94 0 m 272 564 l 458 564 q 574 599 533 564 q 614 697 614 633 q 574 794 614 758 q 456 829 535 829 l 272 829 l 272 564 m 272 144 l 471 144 q 594 181 550 144 q 638 285 638 218 q 592 392 638 353 q 468 431 546 431 l 272 431 l 272 144 z "},"C":{"ha":1024,"x_min":63,"x_max":961,"o":"m 535 -17 q 282 47 388 -17 q 119 223 176 110 q 63 485 63 336 q 119 747 63 633 q 282 925 176 861 q 535 989 388 989 q 822 902 710 989 q 961 658 933 815 l 765 658 q 688 783 747 738 q 532 828 629 828 q 321 736 397 828 q 244 485 244 644 q 321 234 244 325 q 532 143 397 143 q 688 185 629 143 q 765 303 747 228 l 961 303 q 822 68 933 153 q 535 -17 710 -17 z "},"Ć":{"ha":1024,"x_min":63,"x_max":961,"o":"m 535 -17 q 282 47 388 -17 q 119 223 176 110 q 63 485 63 336 q 119 747 63 633 q 282 925 176 861 q 535 989 388 989 q 822 902 710 989 q 961 658 933 815 l 765 658 q 688 783 747 738 q 532 828 629 828 q 321 736 397 828 q 244 485 244 644 q 321 234 244 325 q 532 143 397 143 q 688 185 629 143 q 765 303 747 228 l 961 303 q 822 68 933 153 q 535 -17 710 -17 m 467 1028 l 467 1153 l 781 1322 l 781 1178 l 467 1028 z "},"Č":{"ha":1024,"x_min":63,"x_max":961,"o":"m 535 -17 q 282 47 388 -17 q 119 223 176 110 q 63 485 63 336 q 119 747 63 633 q 282 925 176 861 q 535 989 388 989 q 822 902 710 989 q 961 658 933 815 l 765 658 q 688 783 747 738 q 532 828 629 828 q 321 736 397 828 q 244 485 244 644 q 321 234 244 325 q 532 143 397 143 q 688 185 629 143 q 765 303 747 228 l 961 303 q 822 68 933 153 q 535 -17 710 -17 m 536 1036 l 333 1147 l 333 1275 l 536 1157 l 739 1275 l 739 1147 l 536 1036 z "},"Ç":{"ha":1024,"x_min":63,"x_max":961,"o":"m 535 -17 q 282 47 388 -17 q 119 223 176 110 q 63 485 63 336 q 119 747 63 633 q 282 925 176 861 q 535 989 388 989 q 822 902 710 989 q 961 658 933 815 l 765 658 q 688 783 747 738 q 532 828 629 828 q 321 736 397 828 q 244 485 244 644 q 321 234 244 325 q 532 143 397 143 q 688 185 629 143 q 765 303 747 228 l 961 303 q 822 68 933 153 q 535 -17 710 -17 m 418 -368 l 418 -265 l 574 -265 q 647 -215 647 -265 q 574 -167 647 -167 l 489 -167 l 489 7 l 600 7 l 600 -72 q 688 -86 647 -71 q 755 -134 729 -101 q 781 -218 781 -167 q 726 -331 781 -293 q 600 -368 672 -368 l 418 -368 z "},"Ċ":{"ha":1024,"x_min":63,"x_max":961,"o":"m 535 -17 q 282 47 388 -17 q 119 223 176 110 q 63 485 63 336 q 119 747 63 633 q 282 925 176 861 q 535 989 388 989 q 822 902 710 989 q 961 658 933 815 l 765 658 q 688 783 747 738 q 532 828 629 828 q 321 736 397 828 q 244 485 244 644 q 321 234 244 325 q 532 143 397 143 q 688 185 629 143 q 765 303 747 228 l 961 303 q 822 68 933 153 q 535 -17 710 -17 m 536 1061 q 475 1086 500 1061 q 450 1147 450 1111 q 475 1208 450 1183 q 536 1233 500 1233 q 597 1208 572 1233 q 622 1147 622 1183 q 597 1086 622 1111 q 536 1061 572 1061 z "},"D":{"ha":988,"x_min":94,"x_max":925,"o":"m 94 0 l 94 972 l 426 972 q 708 912 597 972 q 872 742 818 851 q 925 486 925 633 q 872 230 925 339 q 708 60 818 121 q 426 0 597 0 l 94 0 m 272 153 l 418 153 q 611 192 540 153 q 713 306 682 232 q 743 486 743 381 q 713 665 743 590 q 611 781 682 740 q 418 821 540 821 l 272 821 l 272 153 z "},"Ð":{"ha":1006,"x_min":8,"x_max":943,"o":"m 113 0 l 113 410 l 8 410 l 8 563 l 113 563 l 113 972 l 444 972 q 726 912 615 972 q 890 742 836 851 q 943 486 943 633 q 890 230 943 339 q 726 60 836 121 q 444 0 615 0 l 113 0 m 290 153 l 436 153 q 629 192 558 153 q 731 306 700 232 q 761 486 761 381 q 731 665 761 590 q 629 781 700 740 q 436 821 558 821 l 290 821 l 290 563 l 536 563 l 536 410 l 290 410 l 290 153 z "},"Ď":{"ha":988,"x_min":94,"x_max":925,"o":"m 94 0 l 94 972 l 426 972 q 708 912 597 972 q 872 742 818 851 q 925 486 925 633 q 872 230 925 339 q 708 60 818 121 q 426 0 597 0 l 94 0 m 272 153 l 418 153 q 611 192 540 153 q 713 306 682 232 q 743 486 743 381 q 713 665 743 590 q 611 781 682 740 q 418 821 540 821 l 272 821 l 272 153 m 404 1036 l 201 1147 l 201 1275 l 404 1157 l 607 1275 l 607 1147 l 404 1036 z "},"Đ":{"ha":1006,"x_min":8,"x_max":943,"o":"m 113 0 l 113 410 l 8 410 l 8 563 l 113 563 l 113 972 l 444 972 q 726 912 615 972 q 890 742 836 851 q 943 486 943 633 q 890 230 943 339 q 726 60 836 121 q 444 0 615 0 l 113 0 m 290 153 l 436 153 q 629 192 558 153 q 731 306 700 232 q 761 486 761 381 q 731 665 761 590 q 629 781 700 740 q 436 821 558 821 l 290 821 l 290 563 l 536 563 l 536 410 l 290 410 l 290 153 z "},"E":{"ha":803,"x_min":94,"x_max":729,"o":"m 94 0 l 94 972 l 729 972 l 729 829 l 272 829 l 272 563 l 688 563 l 688 424 l 272 424 l 272 143 l 729 143 l 729 0 l 94 0 z "},"É":{"ha":803,"x_min":94,"x_max":729,"o":"m 94 0 l 94 972 l 729 972 l 729 829 l 272 829 l 272 563 l 688 563 l 688 424 l 272 424 l 272 143 l 729 143 l 729 0 l 94 0 m 346 1028 l 346 1153 l 660 1322 l 660 1178 l 346 1028 z "},"Ĕ":{"ha":803,"x_min":94,"x_max":729,"o":"m 94 0 l 94 972 l 729 972 l 729 829 l 272 829 l 272 563 l 688 563 l 688 424 l 272 424 l 272 143 l 729 143 l 729 0 l 94 0 m 415 1040 q 258 1097 315 1040 q 200 1251 200 1154 l 200 1274 l 294 1274 q 322 1200 294 1226 q 415 1174 349 1174 q 510 1200 483 1174 q 538 1274 538 1226 l 632 1274 l 632 1250 q 574 1097 632 1154 q 415 1040 515 1040 z "},"Ě":{"ha":803,"x_min":94,"x_max":729,"o":"m 94 0 l 94 972 l 729 972 l 729 829 l 272 829 l 272 563 l 688 563 l 688 424 l 272 424 l 272 143 l 729 143 l 729 0 l 94 0 m 415 1036 l 213 1147 l 213 1275 l 415 1157 l 618 1275 l 618 1147 l 415 1036 z "},"Ê":{"ha":803,"x_min":94,"x_max":729,"o":"m 94 0 l 94 972 l 729 972 l 729 829 l 272 829 l 272 563 l 688 563 l 688 424 l 272 424 l 272 143 l 729 143 l 729 0 l 94 0 m 213 1038 l 213 1165 l 415 1276 l 618 1165 l 618 1038 l 415 1151 l 213 1038 z "},"Ë":{"ha":803,"x_min":94,"x_max":729,"o":"m 94 0 l 94 972 l 729 972 l 729 829 l 272 829 l 272 563 l 688 563 l 688 424 l 272 424 l 272 143 l 729 143 l 729 0 l 94 0 m 540 1067 q 479 1092 504 1067 q 454 1153 454 1117 q 479 1214 454 1189 q 540 1239 504 1239 q 601 1214 576 1239 q 626 1153 626 1189 q 601 1092 626 1117 q 540 1067 576 1067 m 290 1067 q 229 1092 254 1067 q 204 1153 204 1117 q 229 1214 204 1189 q 290 1239 254 1239 q 351 1214 326 1239 q 376 1153 376 1189 q 351 1092 376 1117 q 290 1067 326 1067 z "},"Ė":{"ha":803,"x_min":94,"x_max":729,"o":"m 94 0 l 94 972 l 729 972 l 729 829 l 272 829 l 272 563 l 688 563 l 688 424 l 272 424 l 272 143 l 729 143 l 729 0 l 94 0 m 415 1061 q 354 1086 379 1061 q 329 1147 329 1111 q 354 1208 329 1183 q 415 1233 379 1233 q 476 1208 451 1233 q 501 1147 501 1183 q 476 1086 501 1111 q 415 1061 451 1061 z "},"È":{"ha":803,"x_min":94,"x_max":729,"o":"m 94 0 l 94 972 l 729 972 l 729 829 l 272 829 l 272 563 l 688 563 l 688 424 l 272 424 l 272 143 l 729 143 l 729 0 l 94 0 m 485 1028 l 171 1178 l 171 1322 l 485 1153 l 485 1028 z "},"Ē":{"ha":803,"x_min":94,"x_max":729,"o":"m 94 0 l 94 972 l 729 972 l 729 829 l 272 829 l 272 563 l 688 563 l 688 424 l 272 424 l 272 143 l 729 143 l 729 0 l 94 0 m 156 1088 l 156 1214 l 675 1214 l 675 1088 l 156 1088 z "},"Ę":{"ha":803,"x_min":94,"x_max":736,"o":"m 94 0 l 94 972 l 729 972 l 729 829 l 272 829 l 272 563 l 688 563 l 688 424 l 272 424 l 272 143 l 729 143 l 729 0 l 94 0 m 615 -292 q 485 -257 540 -292 q 431 -147 431 -222 q 472 -42 431 -92 q 625 56 514 8 l 689 83 l 729 0 l 657 -36 q 586 -83 607 -61 q 565 -131 565 -106 q 585 -172 565 -157 q 638 -187 604 -187 q 736 -167 682 -187 l 736 -272 q 678 -286 710 -281 q 615 -292 647 -292 z "},"Ẽ":{"ha":803,"x_min":94,"x_max":729,"o":"m 94 0 l 94 972 l 729 972 l 729 829 l 272 829 l 272 563 l 688 563 l 688 424 l 272 424 l 272 143 l 729 143 l 729 0 l 94 0 m 503 1044 q 436 1060 464 1044 q 385 1092 408 1076 q 332 1108 361 1108 q 272 1046 282 1108 l 178 1046 q 234 1176 192 1135 q 340 1218 276 1218 q 407 1202 379 1218 q 458 1170 435 1186 q 511 1154 482 1154 q 551 1169 535 1154 q 571 1217 567 1185 l 665 1217 q 609 1086 653 1128 q 503 1044 565 1044 z "},"F":{"ha":765,"x_min":94,"x_max":722,"o":"m 94 0 l 94 972 l 722 972 l 722 829 l 272 829 l 272 557 l 636 557 l 636 417 l 272 417 l 272 0 l 94 0 z "},"G":{"ha":1074,"x_min":63,"x_max":996,"o":"m 519 -17 q 279 46 382 -17 q 119 220 176 108 q 63 481 63 332 q 122 745 63 631 q 290 924 181 860 q 549 989 399 989 q 832 907 719 989 q 978 681 944 825 l 779 681 q 699 787 757 749 q 549 825 640 825 q 324 733 403 825 q 244 479 244 640 q 323 230 244 318 q 536 142 401 142 q 735 213 668 142 q 817 401 803 285 l 571 401 l 571 535 l 996 535 l 996 0 l 832 0 l 818 128 q 700 21 771 58 q 519 -17 629 -17 z "},"Ğ":{"ha":1074,"x_min":63,"x_max":996,"o":"m 519 -17 q 279 46 382 -17 q 119 220 176 108 q 63 481 63 332 q 122 745 63 631 q 290 924 181 860 q 549 989 399 989 q 832 907 719 989 q 978 681 944 825 l 779 681 q 699 787 757 749 q 549 825 640 825 q 324 733 403 825 q 244 479 244 640 q 323 230 244 318 q 536 142 401 142 q 735 213 668 142 q 817 401 803 285 l 571 401 l 571 535 l 996 535 l 996 0 l 832 0 l 818 128 q 700 21 771 58 q 519 -17 629 -17 m 547 1040 q 390 1097 447 1040 q 332 1251 332 1154 l 332 1274 l 426 1274 q 453 1200 426 1226 q 547 1174 481 1174 q 642 1200 615 1174 q 669 1274 669 1226 l 764 1274 l 764 1250 q 706 1097 764 1154 q 547 1040 647 1040 z "},"Ģ":{"ha":1074,"x_min":63,"x_max":996,"o":"m 519 -17 q 279 46 382 -17 q 119 220 176 108 q 63 481 63 332 q 122 745 63 631 q 290 924 181 860 q 549 989 399 989 q 832 907 719 989 q 978 681 944 825 l 779 681 q 699 787 757 749 q 549 825 640 825 q 324 733 403 825 q 244 479 244 640 q 323 230 244 318 q 536 142 401 142 q 735 213 668 142 q 817 401 803 285 l 571 401 l 571 535 l 996 535 l 996 0 l 832 0 l 818 128 q 700 21 771 58 q 519 -17 629 -17 m 467 -381 l 467 -308 q 535 -222 535 -308 l 535 -201 l 460 -201 l 460 -62 l 610 -62 q 626 -133 621 -99 q 631 -196 631 -167 q 589 -333 631 -285 q 467 -381 547 -381 z "},"Ġ":{"ha":1074,"x_min":63,"x_max":996,"o":"m 519 -17 q 279 46 382 -17 q 119 220 176 108 q 63 481 63 332 q 122 745 63 631 q 290 924 181 860 q 549 989 399 989 q 832 907 719 989 q 978 681 944 825 l 779 681 q 699 787 757 749 q 549 825 640 825 q 324 733 403 825 q 244 479 244 640 q 323 230 244 318 q 536 142 401 142 q 735 213 668 142 q 817 401 803 285 l 571 401 l 571 535 l 996 535 l 996 0 l 832 0 l 818 128 q 700 21 771 58 q 519 -17 629 -17 m 547 1061 q 486 1086 511 1061 q 461 1147 461 1111 q 486 1208 461 1183 q 547 1233 511 1233 q 608 1208 583 1233 q 633 1147 633 1183 q 608 1086 633 1111 q 547 1061 583 1061 z "},"H":{"ha":981,"x_min":94,"x_max":886,"o":"m 94 0 l 94 972 l 272 972 l 272 568 l 708 568 l 708 972 l 886 972 l 886 0 l 708 0 l 708 424 l 272 424 l 272 0 l 94 0 z "},"I":{"ha":367,"x_min":94,"x_max":272,"o":"m 94 0 l 94 972 l 272 972 l 272 0 l 94 0 z "},"Í":{"ha":367,"x_min":94,"x_max":428,"o":"m 94 0 l 94 972 l 272 972 l 272 0 l 94 0 m 114 1028 l 114 1153 l 428 1322 l 428 1178 l 114 1028 z "},"Ĭ":{"ha":367,"x_min":-32,"x_max":400,"o":"m 94 0 l 94 972 l 272 972 l 272 0 l 94 0 m 183 1040 q 26 1097 83 1040 q -32 1251 -32 1154 l -32 1274 l 63 1274 q 90 1200 63 1226 q 183 1174 117 1174 q 278 1200 251 1174 q 306 1274 306 1226 l 400 1274 l 400 1250 q 342 1097 400 1154 q 183 1040 283 1040 z "},"Î":{"ha":367,"x_min":-19,"x_max":386,"o":"m 94 0 l 94 972 l 272 972 l 272 0 l 94 0 m -19 1038 l -19 1165 l 183 1276 l 386 1165 l 386 1038 l 183 1151 l -19 1038 z "},"Ï":{"ha":367,"x_min":-28,"x_max":394,"o":"m 94 0 l 94 972 l 272 972 l 272 0 l 94 0 m 308 1067 q 247 1092 272 1067 q 222 1153 222 1117 q 247 1214 222 1189 q 308 1239 272 1239 q 369 1214 344 1239 q 394 1153 394 1189 q 369 1092 394 1117 q 308 1067 344 1067 m 58 1067 q -3 1092 22 1067 q -28 1153 -28 1117 q -3 1214 -28 1189 q 58 1239 22 1239 q 119 1214 94 1239 q 144 1153 144 1189 q 119 1092 144 1117 q 58 1067 94 1067 z "},"İ":{"ha":367,"x_min":94,"x_max":272,"o":"m 94 0 l 94 972 l 272 972 l 272 0 l 94 0 m 183 1061 q 122 1086 147 1061 q 97 1147 97 1111 q 122 1208 97 1183 q 183 1233 147 1233 q 244 1208 219 1233 q 269 1147 269 1183 q 244 1086 269 1111 q 183 1061 219 1061 z "},"Ì":{"ha":367,"x_min":-61,"x_max":272,"o":"m 94 0 l 94 972 l 272 972 l 272 0 l 94 0 m 253 1028 l -61 1178 l -61 1322 l 253 1153 l 253 1028 z "},"Ī":{"ha":367,"x_min":-76,"x_max":443,"o":"m 94 0 l 94 972 l 272 972 l 272 0 l 94 0 m -76 1088 l -76 1214 l 443 1214 l 443 1088 l -76 1088 z "},"Į":{"ha":367,"x_min":-26,"x_max":279,"o":"m 94 0 l 94 972 l 272 972 l 272 0 l 94 0 m 158 -292 q 28 -257 83 -292 q -26 -147 -26 -222 q 15 -42 -26 -92 q 168 56 57 8 l 232 83 l 272 0 l 200 -36 q 129 -83 150 -61 q 108 -131 108 -106 q 128 -172 108 -157 q 181 -187 147 -187 q 279 -167 225 -187 l 279 -272 q 222 -286 253 -281 q 158 -292 190 -292 z "},"Ĩ":{"ha":367,"x_min":-54,"x_max":435,"o":"m 94 0 l 94 972 l 272 972 l 272 0 l 94 0 m 271 1044 q 204 1060 232 1044 q 153 1092 176 1076 q 100 1108 129 1108 q 40 1046 50 1108 l -54 1046 q 2 1176 -40 1135 q 108 1218 44 1218 q 175 1202 147 1218 q 226 1170 203 1186 q 279 1154 250 1154 q 319 1169 303 1154 q 339 1217 335 1185 l 433 1217 q 377 1086 421 1128 q 271 1044 333 1044 z "},"J":{"ha":739,"x_min":36,"x_max":644,"o":"m 349 -17 q 122 63 207 -17 q 36 290 36 143 l 214 290 q 246 182 215 222 q 344 142 276 142 q 438 180 408 142 q 467 281 467 218 l 467 972 l 644 972 l 644 281 q 565 60 644 138 q 349 -17 485 -17 z "},"K":{"ha":889,"x_min":94,"x_max":861,"o":"m 94 0 l 94 972 l 272 972 l 272 579 l 632 972 l 851 972 l 493 586 l 861 0 l 643 0 l 365 450 l 272 349 l 272 0 l 94 0 z "},"Ķ":{"ha":889,"x_min":94,"x_max":861,"o":"m 94 0 l 94 972 l 272 972 l 272 579 l 632 972 l 851 972 l 493 586 l 861 0 l 643 0 l 365 450 l 272 349 l 272 0 l 94 0 m 382 -381 l 382 -308 q 451 -222 451 -308 l 451 -201 l 375 -201 l 375 -62 l 526 -62 q 542 -133 538 -99 q 547 -196 547 -167 q 506 -333 547 -285 q 382 -381 464 -381 z "},"L":{"ha":765,"x_min":94,"x_max":703,"o":"m 94 0 l 94 972 l 272 972 l 272 139 l 703 139 l 703 0 l 94 0 z "},"Ĺ":{"ha":765,"x_min":94,"x_max":703,"o":"m 94 0 l 94 972 l 272 972 l 272 139 l 703 139 l 703 0 l 94 0 m 126 1028 l 126 1153 l 440 1322 l 440 1178 l 126 1028 z "},"Ľ":{"ha":765,"x_min":94,"x_max":703,"o":"m 433 646 l 433 719 q 503 803 503 719 l 503 829 l 425 829 l 425 972 l 578 972 q 594 896 589 932 q 599 828 599 860 q 557 694 599 742 q 433 646 515 646 m 94 0 l 94 972 l 272 972 l 272 139 l 703 139 l 703 0 l 94 0 z "},"Ļ":{"ha":765,"x_min":94,"x_max":703,"o":"m 94 0 l 94 972 l 272 972 l 272 139 l 703 139 l 703 0 l 94 0 m 286 -381 l 286 -308 q 354 -222 354 -308 l 354 -201 l 279 -201 l 279 -62 l 431 -62 q 447 -133 442 -99 q 451 -196 451 -167 q 410 -333 451 -285 q 286 -381 368 -381 z "},"Ŀ":{"ha":765,"x_min":94,"x_max":703,"o":"m 94 0 l 94 972 l 272 972 l 272 139 l 703 139 l 703 0 l 94 0 m 522 382 q 442 413 474 382 q 411 486 411 443 q 442 561 411 531 q 522 592 474 592 q 602 561 571 592 q 633 486 633 531 q 602 413 633 443 q 522 382 571 382 z "},"Ł":{"ha":800,"x_min":28,"x_max":736,"o":"m 128 0 l 128 407 l 28 372 l 28 519 l 128 554 l 128 972 l 306 972 l 306 613 l 449 661 l 449 514 l 306 465 l 306 139 l 736 139 l 736 0 l 128 0 z "},"M":{"ha":1226,"x_min":94,"x_max":1132,"o":"m 94 0 l 94 972 l 306 972 l 615 356 l 921 972 l 1132 972 l 1132 0 l 954 0 l 954 671 l 683 139 l 543 139 l 272 671 l 272 0 l 94 0 z "},"N":{"ha":1001,"x_min":94,"x_max":907,"o":"m 94 0 l 94 972 l 272 972 l 729 288 l 729 972 l 907 972 l 907 0 l 729 0 l 272 683 l 272 0 l 94 0 z "},"Ń":{"ha":1001,"x_min":94,"x_max":907,"o":"m 94 0 l 94 972 l 272 972 l 729 288 l 729 972 l 907 972 l 907 0 l 729 0 l 272 683 l 272 0 l 94 0 m 432 1028 l 432 1153 l 746 1322 l 746 1178 l 432 1028 z "},"Ň":{"ha":1001,"x_min":94,"x_max":907,"o":"m 94 0 l 94 972 l 272 972 l 729 288 l 729 972 l 907 972 l 907 0 l 729 0 l 272 683 l 272 0 l 94 0 m 501 1036 l 299 1147 l 299 1275 l 501 1157 l 704 1275 l 704 1147 l 501 1036 z "},"Ņ":{"ha":1001,"x_min":94,"x_max":907,"o":"m 94 0 l 94 972 l 272 972 l 729 288 l 729 972 l 907 972 l 907 0 l 729 0 l 272 683 l 272 0 l 94 0 m 442 -381 l 442 -308 q 510 -222 510 -308 l 510 -201 l 435 -201 l 435 -62 l 585 -62 q 601 -133 596 -99 q 607 -196 607 -167 q 565 -333 607 -285 q 442 -381 524 -381 z "},"Ñ":{"ha":1001,"x_min":94,"x_max":907,"o":"m 94 0 l 94 972 l 272 972 l 729 288 l 729 972 l 907 972 l 907 0 l 729 0 l 272 683 l 272 0 l 94 0 m 589 1044 q 522 1060 550 1044 q 471 1092 494 1076 q 418 1108 447 1108 q 358 1046 368 1108 l 264 1046 q 320 1176 278 1135 q 426 1218 363 1218 q 493 1202 465 1218 q 544 1170 521 1186 q 597 1154 568 1154 q 637 1169 621 1154 q 657 1217 653 1185 l 751 1217 q 695 1086 739 1128 q 589 1044 651 1044 z "},"O":{"ha":1099,"x_min":63,"x_max":1036,"o":"m 550 -17 q 295 47 404 -17 q 124 224 186 111 q 63 486 63 338 q 124 748 63 635 q 295 925 186 861 q 550 989 404 989 q 804 925 694 989 q 975 748 914 861 q 1036 486 1036 635 q 975 224 1036 338 q 804 47 914 111 q 550 -17 694 -17 m 550 143 q 772 235 689 143 q 854 486 854 326 q 772 738 854 646 q 550 829 689 829 q 328 738 411 829 q 244 486 244 646 q 328 235 244 326 q 550 143 411 143 z "},"Ó":{"ha":1099,"x_min":63,"x_max":1036,"o":"m 550 -17 q 295 47 404 -17 q 124 224 186 111 q 63 486 63 338 q 124 748 63 635 q 295 925 186 861 q 550 989 404 989 q 804 925 694 989 q 975 748 914 861 q 1036 486 1036 635 q 975 224 1036 338 q 804 47 914 111 q 550 -17 694 -17 m 550 143 q 772 235 689 143 q 854 486 854 326 q 772 738 854 646 q 550 829 689 829 q 328 738 411 829 q 244 486 244 646 q 328 235 244 326 q 550 143 411 143 m 481 1028 l 481 1153 l 794 1322 l 794 1178 l 481 1028 z "},"Ŏ":{"ha":1099,"x_min":63,"x_max":1036,"o":"m 550 -17 q 295 47 404 -17 q 124 224 186 111 q 63 486 63 338 q 124 748 63 635 q 295 925 186 861 q 550 989 404 989 q 804 925 694 989 q 975 748 914 861 q 1036 486 1036 635 q 975 224 1036 338 q 804 47 914 111 q 550 -17 694 -17 m 550 143 q 772 235 689 143 q 854 486 854 326 q 772 738 854 646 q 550 829 689 829 q 328 738 411 829 q 244 486 244 646 q 328 235 244 326 q 550 143 411 143 m 550 1040 q 392 1097 450 1040 q 335 1251 335 1154 l 335 1274 l 429 1274 q 456 1200 429 1226 q 550 1174 483 1174 q 645 1200 618 1174 q 672 1274 672 1226 l 767 1274 l 767 1250 q 708 1097 767 1154 q 550 1040 650 1040 z "},"Ô":{"ha":1099,"x_min":63,"x_max":1036,"o":"m 550 -17 q 295 47 404 -17 q 124 224 186 111 q 63 486 63 338 q 124 748 63 635 q 295 925 186 861 q 550 989 404 989 q 804 925 694 989 q 975 748 914 861 q 1036 486 1036 635 q 975 224 1036 338 q 804 47 914 111 q 550 -17 694 -17 m 550 143 q 772 235 689 143 q 854 486 854 326 q 772 738 854 646 q 550 829 689 829 q 328 738 411 829 q 244 486 244 646 q 328 235 244 326 q 550 143 411 143 m 347 1038 l 347 1165 l 550 1276 l 753 1165 l 753 1038 l 550 1151 l 347 1038 z "},"Ö":{"ha":1099,"x_min":63,"x_max":1036,"o":"m 550 -17 q 295 47 404 -17 q 124 224 186 111 q 63 486 63 338 q 124 748 63 635 q 295 925 186 861 q 550 989 404 989 q 804 925 694 989 q 975 748 914 861 q 1036 486 1036 635 q 975 224 1036 338 q 804 47 914 111 q 550 -17 694 -17 m 550 143 q 772 235 689 143 q 854 486 854 326 q 772 738 854 646 q 550 829 689 829 q 328 738 411 829 q 244 486 244 646 q 328 235 244 326 q 550 143 411 143 m 675 1067 q 614 1092 639 1067 q 589 1153 589 1117 q 614 1214 589 1189 q 675 1239 639 1239 q 736 1214 711 1239 q 761 1153 761 1189 q 736 1092 761 1117 q 675 1067 711 1067 m 425 1067 q 364 1092 389 1067 q 339 1153 339 1117 q 364 1214 339 1189 q 425 1239 389 1239 q 486 1214 461 1239 q 511 1153 511 1189 q 486 1092 511 1117 q 425 1067 461 1067 z "},"Ò":{"ha":1099,"x_min":63,"x_max":1036,"o":"m 550 -17 q 295 47 404 -17 q 124 224 186 111 q 63 486 63 338 q 124 748 63 635 q 295 925 186 861 q 550 989 404 989 q 804 925 694 989 q 975 748 914 861 q 1036 486 1036 635 q 975 224 1036 338 q 804 47 914 111 q 550 -17 694 -17 m 550 143 q 772 235 689 143 q 854 486 854 326 q 772 738 854 646 q 550 829 689 829 q 328 738 411 829 q 244 486 244 646 q 328 235 244 326 q 550 143 411 143 m 619 1028 l 306 1178 l 306 1322 l 619 1153 l 619 1028 z "},"Ő":{"ha":1099,"x_min":63,"x_max":1036,"o":"m 550 -17 q 295 47 404 -17 q 124 224 186 111 q 63 486 63 338 q 124 748 63 635 q 295 925 186 861 q 550 989 404 989 q 804 925 694 989 q 975 748 914 861 q 1036 486 1036 635 q 975 224 1036 338 q 804 47 914 111 q 550 -17 694 -17 m 550 143 q 772 235 689 143 q 854 486 854 326 q 772 738 854 646 q 550 829 689 829 q 328 738 411 829 q 244 486 244 646 q 328 235 244 326 q 550 143 411 143 m 597 1039 l 710 1288 l 856 1288 l 708 1039 l 597 1039 m 361 1039 l 460 1288 l 604 1288 l 474 1039 l 361 1039 z "},"Ō":{"ha":1099,"x_min":63,"x_max":1036,"o":"m 550 -17 q 295 47 404 -17 q 124 224 186 111 q 63 486 63 338 q 124 748 63 635 q 295 925 186 861 q 550 989 404 989 q 804 925 694 989 q 975 748 914 861 q 1036 486 1036 635 q 975 224 1036 338 q 804 47 914 111 q 550 -17 694 -17 m 550 143 q 772 235 689 143 q 854 486 854 326 q 772 738 854 646 q 550 829 689 829 q 328 738 411 829 q 244 486 244 646 q 328 235 244 326 q 550 143 411 143 m 290 1088 l 290 1214 l 810 1214 l 810 1088 l 290 1088 z "},"Ø":{"ha":1089,"x_min":43,"x_max":1047,"o":"m 43 0 l 172 151 q 91 301 119 215 q 63 486 63 386 q 124 748 63 635 q 294 925 185 861 q 549 989 404 989 q 698 969 628 989 q 825 911 768 949 l 878 972 l 1047 972 l 921 826 q 1006 675 976 761 q 1035 486 1035 589 q 974 224 1035 338 q 803 47 913 111 q 549 -17 693 -17 q 396 4 467 -17 q 268 64 325 25 l 213 0 l 43 0 m 243 486 q 289 288 243 371 l 715 783 q 549 829 644 829 q 326 738 410 829 q 243 486 243 646 m 549 143 q 771 235 688 143 q 854 486 854 326 q 804 690 854 606 l 376 192 q 549 143 449 143 z "},"Õ":{"ha":1099,"x_min":63,"x_max":1036,"o":"m 550 -17 q 295 47 404 -17 q 124 224 186 111 q 63 486 63 338 q 124 748 63 635 q 295 925 186 861 q 550 989 404 989 q 804 925 694 989 q 975 748 914 861 q 1036 486 1036 635 q 975 224 1036 338 q 804 47 914 111 q 550 -17 694 -17 m 550 143 q 772 235 689 143 q 854 486 854 326 q 772 738 854 646 q 550 829 689 829 q 328 738 411 829 q 244 486 244 646 q 328 235 244 326 q 550 143 411 143 m 638 1044 q 571 1060 599 1044 q 519 1092 543 1076 q 467 1108 496 1108 q 407 1046 417 1108 l 313 1046 q 369 1176 326 1135 q 475 1218 411 1218 q 542 1202 514 1218 q 593 1170 569 1186 q 646 1154 617 1154 q 685 1169 669 1154 q 706 1217 701 1185 l 800 1217 q 744 1086 788 1128 q 638 1044 700 1044 z "},"Œ":{"ha":1532,"x_min":63,"x_max":1458,"o":"m 540 -17 q 351 19 438 -17 q 199 123 264 56 q 99 283 135 190 q 63 486 63 375 q 99 690 63 597 q 199 849 135 782 q 351 952 264 915 q 540 989 438 989 q 723 949 635 989 q 865 835 811 910 l 865 972 l 1458 972 l 1458 829 l 1043 829 l 1043 563 l 1417 563 l 1417 424 l 1043 424 l 1043 143 l 1458 143 l 1458 0 l 865 0 l 865 133 q 724 22 813 61 q 540 -17 635 -17 m 554 143 q 710 185 640 143 q 823 303 781 226 q 865 486 865 381 q 823 669 865 592 q 710 788 781 746 q 554 829 640 829 q 398 788 468 829 q 286 669 328 746 q 244 486 244 592 q 286 303 244 381 q 398 185 328 226 q 554 143 468 143 z "},"P":{"ha":843,"x_min":94,"x_max":799,"o":"m 94 0 l 94 972 l 454 972 q 647 933 571 972 q 761 826 724 894 q 799 674 799 758 q 763 526 799 593 q 650 417 726 458 q 454 376 574 376 l 272 376 l 272 0 l 94 0 m 272 521 l 443 521 q 577 562 536 521 q 618 674 618 603 q 577 787 618 746 q 443 828 536 828 l 272 828 l 272 521 z "},"Þ":{"ha":843,"x_min":94,"x_max":799,"o":"m 94 0 l 94 972 l 272 972 l 272 785 l 454 785 q 647 745 571 785 q 761 638 724 706 q 799 485 799 571 q 763 338 799 406 q 650 230 726 271 q 454 189 574 189 l 272 189 l 272 0 l 94 0 m 272 332 l 443 332 q 577 374 536 332 q 618 485 618 415 q 577 598 618 557 q 443 639 536 639 l 272 639 l 272 332 z "},"Q":{"ha":1094,"x_min":63,"x_max":1057,"o":"m 550 -17 q 295 47 404 -17 q 124 224 186 111 q 63 486 63 338 q 124 748 63 635 q 295 925 186 861 q 550 989 404 989 q 804 925 694 989 q 975 748 914 861 q 1036 486 1036 635 q 982 238 1036 347 q 832 65 928 129 l 1057 -176 l 836 -176 l 683 -1 q 550 -17 619 -17 m 550 143 q 772 235 689 143 q 854 486 854 326 q 772 738 854 646 q 550 829 689 829 q 328 738 411 829 q 244 486 244 646 q 328 235 244 326 q 550 143 411 143 z "},"R":{"ha":865,"x_min":94,"x_max":804,"o":"m 94 0 l 94 972 l 451 972 q 644 933 568 972 q 757 826 719 893 q 794 676 794 758 q 748 514 794 588 q 603 407 701 440 l 804 0 l 600 0 l 419 383 l 272 383 l 272 0 l 94 0 m 272 514 l 440 514 q 571 557 529 514 q 613 671 613 600 q 572 782 613 740 q 439 824 531 824 l 272 824 l 272 514 z "},"Ŕ":{"ha":865,"x_min":94,"x_max":804,"o":"m 94 0 l 94 972 l 451 972 q 644 933 568 972 q 757 826 719 893 q 794 676 794 758 q 748 514 794 588 q 603 407 701 440 l 804 0 l 600 0 l 419 383 l 272 383 l 272 0 l 94 0 m 272 514 l 440 514 q 571 557 529 514 q 613 671 613 600 q 572 782 613 740 q 439 824 531 824 l 272 824 l 272 514 m 326 1028 l 326 1153 l 640 1322 l 640 1178 l 326 1028 z "},"Ř":{"ha":865,"x_min":94,"x_max":804,"o":"m 94 0 l 94 972 l 451 972 q 644 933 568 972 q 757 826 719 893 q 794 676 794 758 q 748 514 794 588 q 603 407 701 440 l 804 0 l 600 0 l 419 383 l 272 383 l 272 0 l 94 0 m 272 514 l 440 514 q 571 557 529 514 q 613 671 613 600 q 572 782 613 740 q 439 824 531 824 l 272 824 l 272 514 m 396 1036 l 193 1147 l 193 1275 l 396 1157 l 599 1275 l 599 1147 l 396 1036 z "},"Ŗ":{"ha":865,"x_min":94,"x_max":804,"o":"m 94 0 l 94 972 l 451 972 q 644 933 568 972 q 757 826 719 893 q 794 676 794 758 q 748 514 794 588 q 603 407 701 440 l 804 0 l 600 0 l 419 383 l 272 383 l 272 0 l 94 0 m 272 514 l 440 514 q 571 557 529 514 q 613 671 613 600 q 572 782 613 740 q 439 824 531 824 l 272 824 l 272 514 m 367 -381 l 367 -308 q 435 -222 435 -308 l 435 -201 l 360 -201 l 360 -62 l 511 -62 q 527 -133 522 -99 q 532 -196 532 -167 q 490 -333 532 -285 q 367 -381 449 -381 z "},"S":{"ha":829,"x_min":60,"x_max":768,"o":"m 426 -17 q 238 20 319 -17 q 108 126 156 57 q 60 293 61 194 l 247 293 q 297 178 250 225 q 425 132 343 132 q 538 166 496 132 q 579 257 579 200 q 542 350 579 317 q 444 404 506 383 q 314 449 383 425 q 142 549 201 488 q 83 711 83 610 q 124 859 82 797 q 240 955 167 921 q 410 989 314 989 q 581 954 507 989 q 698 857 656 919 q 743 708 740 794 l 553 708 q 513 799 551 760 q 407 839 475 839 q 309 810 349 840 q 269 724 269 781 q 300 647 269 675 q 383 599 331 618 q 504 557 436 579 q 636 499 576 532 q 732 410 696 465 q 768 269 768 356 q 729 128 768 193 q 614 23 690 63 q 426 -17 538 -17 z "},"Ś":{"ha":829,"x_min":60,"x_max":768,"o":"m 426 -17 q 238 20 319 -17 q 108 126 156 57 q 60 293 61 194 l 247 293 q 297 178 250 225 q 425 132 343 132 q 538 166 496 132 q 579 257 579 200 q 542 350 579 317 q 444 404 506 383 q 314 449 383 425 q 142 549 201 488 q 83 711 83 610 q 124 859 82 797 q 240 955 167 921 q 410 989 314 989 q 581 954 507 989 q 698 857 656 919 q 743 708 740 794 l 553 708 q 513 799 551 760 q 407 839 475 839 q 309 810 349 840 q 269 724 269 781 q 300 647 269 675 q 383 599 331 618 q 504 557 436 579 q 636 499 576 532 q 732 410 696 465 q 768 269 768 356 q 729 128 768 193 q 614 23 690 63 q 426 -17 538 -17 m 343 1028 l 343 1153 l 657 1322 l 657 1178 l 343 1028 z "},"Š":{"ha":829,"x_min":60,"x_max":768,"o":"m 426 -17 q 238 20 319 -17 q 108 126 156 57 q 60 293 61 194 l 247 293 q 297 178 250 225 q 425 132 343 132 q 538 166 496 132 q 579 257 579 200 q 542 350 579 317 q 444 404 506 383 q 314 449 383 425 q 142 549 201 488 q 83 711 83 610 q 124 859 82 797 q 240 955 167 921 q 410 989 314 989 q 581 954 507 989 q 698 857 656 919 q 743 708 740 794 l 553 708 q 513 799 551 760 q 407 839 475 839 q 309 810 349 840 q 269 724 269 781 q 300 647 269 675 q 383 599 331 618 q 504 557 436 579 q 636 499 576 532 q 732 410 696 465 q 768 269 768 356 q 729 128 768 193 q 614 23 690 63 q 426 -17 538 -17 m 413 1036 l 210 1147 l 210 1275 l 413 1157 l 615 1275 l 615 1147 l 413 1036 z "},"Ş":{"ha":829,"x_min":60,"x_max":768,"o":"m 426 -17 q 238 20 319 -17 q 108 126 156 57 q 60 293 61 194 l 247 293 q 297 178 250 225 q 425 132 343 132 q 538 166 496 132 q 579 257 579 200 q 542 350 579 317 q 444 404 506 383 q 314 449 383 425 q 142 549 201 488 q 83 711 83 610 q 124 859 82 797 q 240 955 167 921 q 410 989 314 989 q 581 954 507 989 q 698 857 656 919 q 743 708 740 794 l 553 708 q 513 799 551 760 q 407 839 475 839 q 309 810 349 840 q 269 724 269 781 q 300 647 269 675 q 383 599 331 618 q 504 557 436 579 q 636 499 576 532 q 732 410 696 465 q 768 269 768 356 q 729 128 768 193 q 614 23 690 63 q 426 -17 538 -17 m 304 -368 l 304 -265 l 460 -265 q 533 -215 533 -265 q 460 -167 533 -167 l 375 -167 l 375 7 l 486 7 l 486 -72 q 574 -86 533 -71 q 641 -134 615 -101 q 667 -218 667 -167 q 613 -331 667 -293 q 486 -368 558 -368 l 304 -368 z "},"Ș":{"ha":829,"x_min":60,"x_max":768,"o":"m 426 -17 q 238 20 319 -17 q 108 126 156 57 q 60 293 61 194 l 247 293 q 297 178 250 225 q 425 132 343 132 q 538 166 496 132 q 579 257 579 200 q 542 350 579 317 q 444 404 506 383 q 314 449 383 425 q 142 549 201 488 q 83 711 83 610 q 124 859 82 797 q 240 955 167 921 q 410 989 314 989 q 581 954 507 989 q 698 857 656 919 q 743 708 740 794 l 553 708 q 513 799 551 760 q 407 839 475 839 q 309 810 349 840 q 269 724 269 781 q 300 647 269 675 q 383 599 331 618 q 504 557 436 579 q 636 499 576 532 q 732 410 696 465 q 768 269 768 356 q 729 128 768 193 q 614 23 690 63 q 426 -17 538 -17 m 363 -381 l 363 -308 q 432 -222 432 -308 l 432 -201 l 356 -201 l 356 -62 l 507 -62 q 523 -133 518 -99 q 528 -196 528 -167 q 486 -333 528 -285 q 363 -381 444 -381 z "},"Ə":{"ha":1064,"x_min":63,"x_max":1001,"o":"m 528 -17 q 285 39 389 -17 q 122 199 181 94 q 63 453 63 304 q 64 494 63 472 q 68 536 65 515 l 814 536 q 772 693 810 628 q 671 793 733 758 q 531 828 608 828 q 367 783 438 828 q 269 658 296 738 l 74 658 q 165 831 101 756 q 321 947 228 906 q 528 989 414 989 q 776 926 669 989 q 942 749 882 863 q 1001 483 1001 636 q 942 221 1001 333 q 776 46 882 108 q 528 -17 669 -17 m 525 146 q 665 176 601 146 q 767 265 728 207 q 814 406 807 322 l 246 406 q 283 269 247 328 q 381 178 318 211 q 525 146 443 146 z "},"T":{"ha":821,"x_min":38,"x_max":783,"o":"m 321 0 l 321 829 l 38 829 l 38 972 l 783 972 l 783 829 l 499 829 l 499 0 l 321 0 z "},"Ť":{"ha":821,"x_min":38,"x_max":783,"o":"m 321 0 l 321 829 l 38 829 l 38 972 l 783 972 l 783 829 l 499 829 l 499 0 l 321 0 m 408 1036 l 206 1147 l 206 1275 l 408 1157 l 611 1275 l 611 1147 l 408 1036 z "},"Ţ":{"ha":821,"x_min":38,"x_max":783,"o":"m 321 0 l 321 829 l 38 829 l 38 972 l 783 972 l 783 829 l 499 829 l 499 0 l 321 0 m 288 -368 l 288 -265 l 443 -265 q 517 -215 517 -265 q 443 -167 517 -167 l 358 -167 l 358 7 l 469 7 l 469 -72 q 558 -86 517 -71 q 624 -134 599 -101 q 650 -218 650 -167 q 596 -331 650 -293 q 469 -368 542 -368 l 288 -368 z "},"Ț":{"ha":821,"x_min":38,"x_max":783,"o":"m 321 0 l 321 829 l 38 829 l 38 972 l 783 972 l 783 829 l 499 829 l 499 0 l 321 0 m 332 -381 l 332 -308 q 401 -222 401 -308 l 401 -201 l 326 -201 l 326 -62 l 478 -62 q 497 -196 497 -133 q 456 -333 497 -285 q 332 -381 414 -381 z "},"U":{"ha":946,"x_min":89,"x_max":858,"o":"m 469 -17 q 276 26 363 -17 q 140 154 190 68 q 89 372 89 240 l 89 972 l 267 972 l 267 371 q 322 201 267 257 q 474 146 376 146 q 625 201 569 146 q 681 371 681 257 l 681 972 l 858 972 l 858 372 q 806 154 858 240 q 665 26 753 68 q 469 -17 576 -17 z "},"Ú":{"ha":946,"x_min":89,"x_max":858,"o":"m 469 -17 q 276 26 363 -17 q 140 154 190 68 q 89 372 89 240 l 89 972 l 267 972 l 267 371 q 322 201 267 257 q 474 146 376 146 q 625 201 569 146 q 681 371 681 257 l 681 972 l 858 972 l 858 372 q 806 154 858 240 q 665 26 753 68 q 469 -17 576 -17 m 403 1028 l 403 1153 l 717 1322 l 717 1178 l 403 1028 z "},"Ŭ":{"ha":946,"x_min":89,"x_max":858,"o":"m 469 -17 q 276 26 363 -17 q 140 154 190 68 q 89 372 89 240 l 89 972 l 267 972 l 267 371 q 322 201 267 257 q 474 146 376 146 q 625 201 569 146 q 681 371 681 257 l 681 972 l 858 972 l 858 372 q 806 154 858 240 q 665 26 753 68 q 469 -17 576 -17 m 472 1040 q 315 1097 372 1040 q 257 1251 257 1154 l 257 1274 l 351 1274 q 378 1200 351 1226 q 472 1174 406 1174 q 567 1200 540 1174 q 594 1274 594 1226 l 689 1274 l 689 1250 q 631 1097 689 1154 q 472 1040 572 1040 z "},"Û":{"ha":946,"x_min":89,"x_max":858,"o":"m 469 -17 q 276 26 363 -17 q 140 154 190 68 q 89 372 89 240 l 89 972 l 267 972 l 267 371 q 322 201 267 257 q 474 146 376 146 q 625 201 569 146 q 681 371 681 257 l 681 972 l 858 972 l 858 372 q 806 154 858 240 q 665 26 753 68 q 469 -17 576 -17 m 269 1038 l 269 1165 l 472 1276 l 675 1165 l 675 1038 l 472 1151 l 269 1038 z "},"Ü":{"ha":946,"x_min":89,"x_max":858,"o":"m 469 -17 q 276 26 363 -17 q 140 154 190 68 q 89 372 89 240 l 89 972 l 267 972 l 267 371 q 322 201 267 257 q 474 146 376 146 q 625 201 569 146 q 681 371 681 257 l 681 972 l 858 972 l 858 372 q 806 154 858 240 q 665 26 753 68 q 469 -17 576 -17 m 597 1067 q 536 1092 561 1067 q 511 1153 511 1117 q 536 1214 511 1189 q 597 1239 561 1239 q 658 1214 633 1239 q 683 1153 683 1189 q 658 1092 683 1117 q 597 1067 633 1067 m 347 1067 q 286 1092 311 1067 q 261 1153 261 1117 q 286 1214 261 1189 q 347 1239 311 1239 q 408 1214 383 1239 q 433 1153 433 1189 q 408 1092 433 1117 q 347 1067 383 1067 z "},"Ù":{"ha":946,"x_min":89,"x_max":858,"o":"m 469 -17 q 276 26 363 -17 q 140 154 190 68 q 89 372 89 240 l 89 972 l 267 972 l 267 371 q 322 201 267 257 q 474 146 376 146 q 625 201 569 146 q 681 371 681 257 l 681 972 l 858 972 l 858 372 q 806 154 858 240 q 665 26 753 68 q 469 -17 576 -17 m 542 1028 l 228 1178 l 228 1322 l 542 1153 l 542 1028 z "},"Ű":{"ha":946,"x_min":89,"x_max":858,"o":"m 469 -17 q 276 26 363 -17 q 140 154 190 68 q 89 372 89 240 l 89 972 l 267 972 l 267 371 q 322 201 267 257 q 474 146 376 146 q 625 201 569 146 q 681 371 681 257 l 681 972 l 858 972 l 858 372 q 806 154 858 240 q 665 26 753 68 q 469 -17 576 -17 m 519 1039 l 632 1288 l 778 1288 l 631 1039 l 519 1039 m 283 1039 l 382 1288 l 526 1288 l 396 1039 l 283 1039 z "},"Ū":{"ha":946,"x_min":89,"x_max":858,"o":"m 469 -17 q 276 26 363 -17 q 140 154 190 68 q 89 372 89 240 l 89 972 l 267 972 l 267 371 q 322 201 267 257 q 474 146 376 146 q 625 201 569 146 q 681 371 681 257 l 681 972 l 858 972 l 858 372 q 806 154 858 240 q 665 26 753 68 q 469 -17 576 -17 m 213 1088 l 213 1214 l 732 1214 l 732 1088 l 213 1088 z "},"Ų":{"ha":946,"x_min":89,"x_max":858,"o":"m 469 -17 q 276 26 363 -17 q 140 154 190 68 q 89 372 89 240 l 89 972 l 267 972 l 267 371 q 322 201 267 257 q 474 146 376 146 q 625 201 569 146 q 681 371 681 257 l 681 972 l 858 972 l 858 372 q 806 154 858 240 q 665 26 753 68 q 469 -17 576 -17 m 464 -290 q 335 -256 390 -290 q 279 -146 279 -221 q 321 -40 279 -90 q 474 57 363 10 l 538 85 l 578 1 l 506 -35 q 435 -82 456 -60 q 415 -129 415 -104 q 435 -171 415 -156 q 488 -186 454 -186 q 585 -165 532 -186 l 585 -271 q 528 -285 558 -279 q 464 -290 497 -290 z "},"Ů":{"ha":946,"x_min":89,"x_max":858,"o":"m 469 -17 q 276 26 363 -17 q 140 154 190 68 q 89 372 89 240 l 89 972 l 267 972 l 267 371 q 322 201 267 257 q 474 146 376 146 q 625 201 569 146 q 681 371 681 257 l 681 972 l 858 972 l 858 372 q 806 154 858 240 q 665 26 753 68 q 469 -17 576 -17 m 472 1043 q 362 1085 408 1043 q 315 1199 315 1126 q 362 1313 315 1271 q 472 1354 408 1354 q 585 1313 539 1354 q 632 1199 632 1271 q 585 1085 632 1126 q 472 1043 539 1043 m 472 1124 q 525 1144 504 1124 q 546 1199 546 1165 q 525 1253 546 1233 q 472 1274 504 1274 q 422 1253 443 1274 q 401 1199 401 1233 q 422 1144 401 1165 q 472 1124 443 1124 z "},"Ũ":{"ha":946,"x_min":89,"x_max":858,"o":"m 469 -17 q 276 26 363 -17 q 140 154 190 68 q 89 372 89 240 l 89 972 l 267 972 l 267 371 q 322 201 267 257 q 474 146 376 146 q 625 201 569 146 q 681 371 681 257 l 681 972 l 858 972 l 858 372 q 806 154 858 240 q 665 26 753 68 q 469 -17 576 -17 m 560 1044 q 493 1060 521 1044 q 442 1092 465 1076 q 389 1108 418 1108 q 329 1046 339 1108 l 235 1046 q 291 1176 249 1135 q 397 1218 333 1218 q 464 1202 436 1218 q 515 1170 492 1186 q 568 1154 539 1154 q 608 1169 592 1154 q 628 1217 624 1185 l 722 1217 q 666 1086 710 1128 q 560 1044 622 1044 z "},"V":{"ha":971,"x_min":21,"x_max":950,"o":"m 376 0 l 21 972 l 211 972 l 486 182 l 763 972 l 950 972 l 594 0 l 376 0 z "},"W":{"ha":1403,"x_min":35,"x_max":1368,"o":"m 292 0 l 35 972 l 225 972 l 400 199 l 606 972 l 801 972 l 1001 199 l 1176 972 l 1368 972 l 1104 0 l 893 0 l 700 721 l 501 0 l 292 0 z "},"Ẃ":{"ha":1403,"x_min":35,"x_max":1368,"o":"m 292 0 l 35 972 l 225 972 l 400 199 l 606 972 l 801 972 l 1001 199 l 1176 972 l 1368 972 l 1104 0 l 893 0 l 700 721 l 501 0 l 292 0 m 632 1028 l 632 1153 l 946 1322 l 946 1178 l 632 1028 z "},"Ŵ":{"ha":1403,"x_min":35,"x_max":1368,"o":"m 292 0 l 35 972 l 225 972 l 400 199 l 606 972 l 801 972 l 1001 199 l 1176 972 l 1368 972 l 1104 0 l 893 0 l 700 721 l 501 0 l 292 0 m 499 1038 l 499 1165 l 701 1276 l 904 1165 l 904 1038 l 701 1151 l 499 1038 z "},"Ẅ":{"ha":1403,"x_min":35,"x_max":1368,"o":"m 292 0 l 35 972 l 225 972 l 400 199 l 606 972 l 801 972 l 1001 199 l 1176 972 l 1368 972 l 1104 0 l 893 0 l 700 721 l 501 0 l 292 0 m 826 1067 q 765 1092 790 1067 q 740 1153 740 1117 q 765 1214 740 1189 q 826 1239 790 1239 q 888 1214 863 1239 q 913 1153 913 1189 q 888 1092 913 1117 q 826 1067 863 1067 m 576 1067 q 515 1092 540 1067 q 490 1153 490 1117 q 515 1214 490 1189 q 576 1239 540 1239 q 638 1214 613 1239 q 663 1153 663 1189 q 638 1092 663 1117 q 576 1067 613 1067 z "},"Ẁ":{"ha":1403,"x_min":35,"x_max":1368,"o":"m 292 0 l 35 972 l 225 972 l 400 199 l 606 972 l 801 972 l 1001 199 l 1176 972 l 1368 972 l 1104 0 l 893 0 l 700 721 l 501 0 l 292 0 m 771 1028 l 457 1178 l 457 1322 l 771 1153 l 771 1028 z "},"X":{"ha":915,"x_min":43,"x_max":872,"o":"m 47 0 l 351 492 l 43 972 l 247 972 l 465 633 l 665 972 l 865 972 l 561 483 l 872 0 l 668 0 l 447 343 l 247 0 l 47 0 z "},"Y":{"ha":868,"x_min":19,"x_max":849,"o":"m 346 0 l 346 346 l 19 972 l 221 972 l 436 524 l 650 972 l 849 972 l 524 346 l 524 0 l 346 0 z "},"Ý":{"ha":868,"x_min":19,"x_max":849,"o":"m 346 0 l 346 346 l 19 972 l 221 972 l 436 524 l 650 972 l 849 972 l 524 346 l 524 0 l 346 0 m 367 1028 l 367 1153 l 681 1322 l 681 1178 l 367 1028 z "},"Ŷ":{"ha":868,"x_min":19,"x_max":849,"o":"m 346 0 l 346 346 l 19 972 l 221 972 l 436 524 l 650 972 l 849 972 l 524 346 l 524 0 l 346 0 m 232 1038 l 232 1165 l 435 1276 l 638 1165 l 638 1038 l 435 1151 l 232 1038 z "},"Ÿ":{"ha":868,"x_min":19,"x_max":849,"o":"m 346 0 l 346 346 l 19 972 l 221 972 l 436 524 l 650 972 l 849 972 l 524 346 l 524 0 l 346 0 m 561 1067 q 500 1092 525 1067 q 475 1153 475 1117 q 500 1214 475 1189 q 561 1239 525 1239 q 622 1214 597 1239 q 647 1153 647 1189 q 622 1092 647 1117 q 561 1067 597 1067 m 311 1067 q 250 1092 275 1067 q 225 1153 225 1117 q 250 1214 225 1189 q 311 1239 275 1239 q 372 1214 347 1239 q 397 1153 397 1189 q 372 1092 397 1117 q 311 1067 347 1067 z "},"Ỳ":{"ha":868,"x_min":19,"x_max":849,"o":"m 346 0 l 346 346 l 19 972 l 221 972 l 436 524 l 650 972 l 849 972 l 524 346 l 524 0 l 346 0 m 506 1028 l 192 1178 l 192 1322 l 506 1153 l 506 1028 z "},"Ỹ":{"ha":868,"x_min":19,"x_max":849,"o":"m 346 0 l 346 346 l 19 972 l 221 972 l 436 524 l 650 972 l 849 972 l 524 346 l 524 0 l 346 0 m 522 1044 q 456 1060 483 1044 q 404 1092 428 1076 q 351 1108 381 1108 q 292 1046 301 1108 l 197 1046 q 253 1176 211 1135 q 360 1218 296 1218 q 426 1202 399 1218 q 478 1170 454 1186 q 531 1154 501 1154 q 570 1169 554 1154 q 590 1217 586 1185 l 685 1217 q 628 1086 672 1128 q 522 1044 585 1044 z "},"Z":{"ha":786,"x_min":65,"x_max":721,"o":"m 65 0 l 65 136 l 513 824 l 69 824 l 69 972 l 718 972 l 718 836 l 268 149 l 721 149 l 721 0 l 65 0 z "},"Ź":{"ha":786,"x_min":65,"x_max":721,"o":"m 65 0 l 65 136 l 513 824 l 69 824 l 69 972 l 718 972 l 718 836 l 268 149 l 721 149 l 721 0 l 65 0 m 324 1028 l 324 1153 l 638 1322 l 638 1178 l 324 1028 z "},"Ž":{"ha":786,"x_min":65,"x_max":721,"o":"m 65 0 l 65 136 l 513 824 l 69 824 l 69 972 l 718 972 l 718 836 l 268 149 l 721 149 l 721 0 l 65 0 m 393 1036 l 190 1147 l 190 1275 l 393 1157 l 596 1275 l 596 1147 l 393 1036 z "},"Ż":{"ha":786,"x_min":65,"x_max":721,"o":"m 65 0 l 65 136 l 513 824 l 69 824 l 69 972 l 718 972 l 718 836 l 268 149 l 721 149 l 721 0 l 65 0 m 393 1061 q 332 1086 357 1061 q 307 1147 307 1111 q 332 1208 307 1183 q 393 1233 357 1233 q 454 1208 429 1233 q 479 1147 479 1183 q 454 1086 479 1111 q 393 1061 429 1061 z "},"a":{"ha":801,"x_min":69,"x_max":722,"o":"m 328 -17 q 182 12 239 -17 q 97 88 125 40 q 69 192 69 135 q 144 347 69 288 q 369 407 219 407 l 544 407 l 544 424 q 504 528 544 494 q 404 561 464 561 q 310 535 350 561 q 260 460 269 510 l 86 460 q 137 590 93 535 q 250 676 181 646 q 406 706 319 706 q 638 632 553 706 q 722 424 722 558 l 722 0 l 571 0 l 554 111 q 469 19 524 56 q 328 -17 414 -17 m 368 122 q 487 172 444 122 q 540 296 529 222 l 389 296 q 288 270 318 296 q 257 207 257 244 q 288 144 257 167 q 368 122 318 122 z "},"á":{"ha":801,"x_min":69,"x_max":722,"o":"m 328 -17 q 182 12 239 -17 q 97 88 125 40 q 69 192 69 135 q 144 347 69 288 q 369 407 219 407 l 544 407 l 544 424 q 504 528 544 494 q 404 561 464 561 q 310 535 350 561 q 260 460 269 510 l 86 460 q 137 590 93 535 q 250 676 181 646 q 406 706 319 706 q 638 632 553 706 q 722 424 722 558 l 722 0 l 571 0 l 554 111 q 469 19 524 56 q 328 -17 414 -17 m 368 122 q 487 172 444 122 q 540 296 529 222 l 389 296 q 288 270 318 296 q 257 207 257 244 q 288 144 257 167 q 368 122 318 122 m 356 744 l 356 869 l 669 1039 l 669 894 l 356 744 z "},"ă":{"ha":801,"x_min":69,"x_max":722,"o":"m 328 -17 q 182 12 239 -17 q 97 88 125 40 q 69 192 69 135 q 144 347 69 288 q 369 407 219 407 l 544 407 l 544 424 q 504 528 544 494 q 404 561 464 561 q 310 535 350 561 q 260 460 269 510 l 86 460 q 137 590 93 535 q 250 676 181 646 q 406 706 319 706 q 638 632 553 706 q 722 424 722 558 l 722 0 l 571 0 l 554 111 q 469 19 524 56 q 328 -17 414 -17 m 368 122 q 487 172 444 122 q 540 296 529 222 l 389 296 q 288 270 318 296 q 257 207 257 244 q 288 144 257 167 q 368 122 318 122 m 401 757 q 244 814 301 757 q 186 968 186 871 l 186 990 l 281 990 q 308 917 281 943 q 401 890 335 890 q 496 917 468 890 q 524 990 524 943 l 618 990 l 618 967 q 560 814 618 871 q 401 757 501 757 z "},"â":{"ha":801,"x_min":69,"x_max":722,"o":"m 328 -17 q 182 12 239 -17 q 97 88 125 40 q 69 192 69 135 q 144 347 69 288 q 369 407 219 407 l 544 407 l 544 424 q 504 528 544 494 q 404 561 464 561 q 310 535 350 561 q 260 460 269 510 l 86 460 q 137 590 93 535 q 250 676 181 646 q 406 706 319 706 q 638 632 553 706 q 722 424 722 558 l 722 0 l 571 0 l 554 111 q 469 19 524 56 q 328 -17 414 -17 m 368 122 q 487 172 444 122 q 540 296 529 222 l 389 296 q 288 270 318 296 q 257 207 257 244 q 288 144 257 167 q 368 122 318 122 m 200 754 l 200 882 l 403 993 l 606 882 l 606 754 l 403 868 l 200 754 z "},"ä":{"ha":801,"x_min":69,"x_max":722,"o":"m 328 -17 q 182 12 239 -17 q 97 88 125 40 q 69 192 69 135 q 144 347 69 288 q 369 407 219 407 l 544 407 l 544 424 q 504 528 544 494 q 404 561 464 561 q 310 535 350 561 q 260 460 269 510 l 86 460 q 137 590 93 535 q 250 676 181 646 q 406 706 319 706 q 638 632 553 706 q 722 424 722 558 l 722 0 l 571 0 l 554 111 q 469 19 524 56 q 328 -17 414 -17 m 368 122 q 487 172 444 122 q 540 296 529 222 l 389 296 q 288 270 318 296 q 257 207 257 244 q 288 144 257 167 q 368 122 318 122 m 528 783 q 467 808 492 783 q 442 869 442 833 q 467 931 442 906 q 528 956 492 956 q 588 931 564 956 q 613 869 613 906 q 588 808 613 833 q 528 783 564 783 m 276 783 q 216 808 240 783 q 192 869 192 833 q 216 931 192 906 q 276 956 240 956 q 338 931 313 956 q 363 869 363 906 q 338 808 363 833 q 276 783 313 783 z "},"à":{"ha":801,"x_min":69,"x_max":722,"o":"m 328 -17 q 182 12 239 -17 q 97 88 125 40 q 69 192 69 135 q 144 347 69 288 q 369 407 219 407 l 544 407 l 544 424 q 504 528 544 494 q 404 561 464 561 q 310 535 350 561 q 260 460 269 510 l 86 460 q 137 590 93 535 q 250 676 181 646 q 406 706 319 706 q 638 632 553 706 q 722 424 722 558 l 722 0 l 571 0 l 554 111 q 469 19 524 56 q 328 -17 414 -17 m 368 122 q 487 172 444 122 q 540 296 529 222 l 389 296 q 288 270 318 296 q 257 207 257 244 q 288 144 257 167 q 368 122 318 122 m 472 744 l 158 894 l 158 1039 l 472 869 l 472 744 z "},"ā":{"ha":801,"x_min":69,"x_max":722,"o":"m 328 -17 q 182 12 239 -17 q 97 88 125 40 q 69 192 69 135 q 144 347 69 288 q 369 407 219 407 l 544 407 l 544 424 q 504 528 544 494 q 404 561 464 561 q 310 535 350 561 q 260 460 269 510 l 86 460 q 137 590 93 535 q 250 676 181 646 q 406 706 319 706 q 638 632 553 706 q 722 424 722 558 l 722 0 l 571 0 l 554 111 q 469 19 524 56 q 328 -17 414 -17 m 368 122 q 487 172 444 122 q 540 296 529 222 l 389 296 q 288 270 318 296 q 257 207 257 244 q 288 144 257 167 q 368 122 318 122 m 142 804 l 142 931 l 661 931 l 661 804 l 142 804 z "},"ą":{"ha":801,"x_min":69,"x_max":729,"o":"m 328 -17 q 182 12 239 -17 q 97 88 125 40 q 69 192 69 135 q 144 347 69 288 q 369 407 219 407 l 544 407 l 544 424 q 504 528 544 494 q 404 561 464 561 q 310 535 350 561 q 260 460 269 510 l 86 460 q 137 590 93 535 q 250 676 181 646 q 406 706 319 706 q 638 632 553 706 q 722 424 722 558 l 722 0 l 571 0 l 554 111 q 469 19 524 56 q 328 -17 414 -17 m 368 122 q 487 172 444 122 q 540 296 529 222 l 389 296 q 288 270 318 296 q 257 207 257 244 q 288 144 257 167 q 368 122 318 122 m 608 -292 q 479 -257 535 -292 q 424 -147 424 -222 q 465 -42 424 -92 q 618 56 507 8 l 682 83 l 722 0 l 650 -36 q 580 -83 600 -61 q 560 -131 560 -106 q 579 -172 560 -157 q 632 -187 599 -187 q 729 -167 676 -187 l 729 -272 q 672 -286 703 -281 q 608 -292 642 -292 z "},"å":{"ha":801,"x_min":69,"x_max":722,"o":"m 328 -17 q 182 12 239 -17 q 97 88 125 40 q 69 192 69 135 q 144 347 69 288 q 369 407 219 407 l 544 407 l 544 424 q 504 528 544 494 q 404 561 464 561 q 310 535 350 561 q 260 460 269 510 l 86 460 q 137 590 93 535 q 250 676 181 646 q 406 706 319 706 q 638 632 553 706 q 722 424 722 558 l 722 0 l 571 0 l 554 111 q 469 19 524 56 q 328 -17 414 -17 m 368 122 q 487 172 444 122 q 540 296 529 222 l 389 296 q 288 270 318 296 q 257 207 257 244 q 288 144 257 167 q 368 122 318 122 m 403 760 q 292 801 339 760 q 246 915 246 843 q 292 1029 246 988 q 403 1071 339 1071 q 515 1029 469 1071 q 561 915 561 988 q 515 801 561 843 q 403 760 469 760 m 403 840 q 455 861 433 840 q 476 915 476 882 q 455 970 476 950 q 403 990 433 990 q 352 970 374 990 q 331 915 331 950 q 352 861 331 882 q 403 840 374 840 z "},"ã":{"ha":801,"x_min":69,"x_max":722,"o":"m 328 -17 q 182 12 239 -17 q 97 88 125 40 q 69 192 69 135 q 144 347 69 288 q 369 407 219 407 l 544 407 l 544 424 q 504 528 544 494 q 404 561 464 561 q 310 535 350 561 q 260 460 269 510 l 86 460 q 137 590 93 535 q 250 676 181 646 q 406 706 319 706 q 638 632 553 706 q 722 424 722 558 l 722 0 l 571 0 l 554 111 q 469 19 524 56 q 328 -17 414 -17 m 368 122 q 487 172 444 122 q 540 296 529 222 l 389 296 q 288 270 318 296 q 257 207 257 244 q 288 144 257 167 q 368 122 318 122 m 483 761 q 417 777 444 761 q 365 809 389 793 q 314 825 342 825 q 253 763 263 825 l 158 763 q 215 893 172 851 q 321 935 257 935 q 388 919 360 935 q 439 887 415 903 q 492 871 463 871 q 531 886 515 871 q 551 933 547 901 l 647 933 q 590 803 633 844 q 483 761 547 761 z "},"æ":{"ha":1307,"x_min":69,"x_max":1247,"o":"m 340 -17 q 192 12 253 -17 q 101 88 132 40 q 69 193 69 136 q 142 351 69 290 q 364 411 215 411 l 549 411 l 549 424 q 509 528 549 494 q 413 561 469 561 q 322 536 361 561 q 274 463 283 511 l 100 463 q 150 591 107 536 q 261 676 193 646 q 413 706 329 706 q 558 680 494 706 q 661 606 622 654 q 770 679 707 653 q 906 706 833 706 q 1084 661 1007 706 q 1204 540 1161 617 q 1247 367 1247 464 q 1247 336 1247 353 q 1244 300 1246 319 l 731 300 q 788 174 738 218 q 904 129 838 129 q 1002 159 964 129 q 1058 236 1040 189 l 1235 236 q 1171 107 1217 164 q 1058 17 1125 50 q 906 -17 990 -17 q 741 21 815 -17 q 619 125 667 58 q 511 24 578 64 q 340 -17 444 -17 m 733 411 l 1068 411 q 1017 522 1063 482 q 907 561 972 561 q 796 524 844 561 q 733 411 747 486 m 365 122 q 483 171 436 122 q 542 288 529 219 l 542 300 l 386 300 q 288 275 318 300 q 257 211 257 250 q 287 147 257 171 q 365 122 317 122 z "},"ǽ":{"ha":1307,"x_min":69,"x_max":1247,"o":"m 340 -17 q 192 12 253 -17 q 101 88 132 40 q 69 193 69 136 q 142 351 69 290 q 364 411 215 411 l 549 411 l 549 424 q 509 528 549 494 q 413 561 469 561 q 322 536 361 561 q 274 463 283 511 l 100 463 q 150 591 107 536 q 261 676 193 646 q 413 706 329 706 q 558 680 494 706 q 661 606 622 654 q 770 679 707 653 q 906 706 833 706 q 1084 661 1007 706 q 1204 540 1161 617 q 1247 367 1247 464 q 1247 336 1247 353 q 1244 300 1246 319 l 731 300 q 788 174 738 218 q 904 129 838 129 q 1002 159 964 129 q 1058 236 1040 189 l 1235 236 q 1171 107 1217 164 q 1058 17 1125 50 q 906 -17 990 -17 q 741 21 815 -17 q 619 125 667 58 q 511 24 578 64 q 340 -17 444 -17 m 733 411 l 1068 411 q 1017 522 1063 482 q 907 561 972 561 q 796 524 844 561 q 733 411 747 486 m 365 122 q 483 171 436 122 q 542 288 529 219 l 542 300 l 386 300 q 288 275 318 300 q 257 211 257 250 q 287 147 257 171 q 365 122 317 122 m 619 744 l 619 869 l 933 1039 l 933 894 l 619 744 z "},"b":{"ha":906,"x_min":90,"x_max":838,"o":"m 499 -17 q 363 13 421 -17 q 268 94 304 42 l 249 0 l 90 0 l 90 1000 l 268 1000 l 268 590 q 356 671 301 636 q 499 706 411 706 q 672 658 596 706 q 793 529 749 611 q 838 343 838 447 q 793 158 838 239 q 672 30 749 76 q 499 -17 596 -17 m 461 139 q 601 196 546 139 q 657 343 657 253 q 601 492 657 433 q 461 550 546 550 q 320 492 375 550 q 265 344 265 435 q 320 197 265 254 q 461 139 375 139 z "},"c":{"ha":833,"x_min":68,"x_max":765,"o":"m 428 -17 q 242 29 322 -17 q 115 157 161 75 q 68 344 68 239 q 115 532 68 450 q 242 660 161 614 q 428 706 322 706 q 650 637 560 706 q 765 447 740 568 l 578 447 q 523 526 564 497 q 426 554 482 554 q 301 499 353 554 q 250 344 250 443 q 301 190 250 246 q 426 135 353 135 q 523 163 482 135 q 578 242 564 190 l 765 242 q 650 54 740 125 q 428 -17 560 -17 z "},"ć":{"ha":833,"x_min":68,"x_max":765,"o":"m 428 -17 q 242 29 322 -17 q 115 157 161 75 q 68 344 68 239 q 115 532 68 450 q 242 660 161 614 q 428 706 322 706 q 650 637 560 706 q 765 447 740 568 l 578 447 q 523 526 564 497 q 426 554 482 554 q 301 499 353 554 q 250 344 250 443 q 301 190 250 246 q 426 135 353 135 q 523 163 482 135 q 578 242 564 190 l 765 242 q 650 54 740 125 q 428 -17 560 -17 m 385 744 l 385 869 l 699 1039 l 699 894 l 385 744 z "},"č":{"ha":833,"x_min":68,"x_max":765,"o":"m 428 -17 q 242 29 322 -17 q 115 157 161 75 q 68 344 68 239 q 115 532 68 450 q 242 660 161 614 q 428 706 322 706 q 650 637 560 706 q 765 447 740 568 l 578 447 q 523 526 564 497 q 426 554 482 554 q 301 499 353 554 q 250 344 250 443 q 301 190 250 246 q 426 135 353 135 q 523 163 482 135 q 578 242 564 190 l 765 242 q 650 54 740 125 q 428 -17 560 -17 m 432 753 l 229 864 l 229 992 l 432 874 l 635 992 l 635 864 l 432 753 z "},"ç":{"ha":833,"x_min":68,"x_max":765,"o":"m 428 -17 q 242 29 322 -17 q 115 157 161 75 q 68 344 68 239 q 115 532 68 450 q 242 660 161 614 q 428 706 322 706 q 650 637 560 706 q 765 447 740 568 l 578 447 q 523 526 564 497 q 426 554 482 554 q 301 499 353 554 q 250 344 250 443 q 301 190 250 246 q 426 135 353 135 q 523 163 482 135 q 578 242 564 190 l 765 242 q 650 54 740 125 q 428 -17 560 -17 m 303 -369 l 303 -267 l 458 -267 q 532 -217 532 -267 q 458 -168 532 -168 l 374 -168 l 374 6 l 485 6 l 485 -74 q 573 -87 532 -72 q 640 -135 614 -103 q 665 -219 665 -168 q 611 -332 665 -294 q 485 -369 557 -369 l 303 -369 z "},"ċ":{"ha":833,"x_min":68,"x_max":765,"o":"m 428 -17 q 242 29 322 -17 q 115 157 161 75 q 68 344 68 239 q 115 532 68 450 q 242 660 161 614 q 428 706 322 706 q 650 637 560 706 q 765 447 740 568 l 578 447 q 523 526 564 497 q 426 554 482 554 q 301 499 353 554 q 250 344 250 443 q 301 190 250 246 q 426 135 353 135 q 523 163 482 135 q 578 242 564 190 l 765 242 q 650 54 740 125 q 428 -17 560 -17 m 431 778 q 371 803 396 778 q 346 864 346 828 q 371 925 346 900 q 431 950 396 950 q 492 925 467 950 q 517 864 517 900 q 492 803 517 828 q 431 778 467 778 z "},"d":{"ha":906,"x_min":68,"x_max":815,"o":"m 407 -17 q 233 31 310 -17 q 113 160 157 78 q 68 346 68 242 q 113 531 68 450 q 233 659 157 613 q 407 706 310 706 q 543 676 485 706 q 638 594 601 647 l 638 1000 l 815 1000 l 815 0 l 657 0 l 638 99 q 549 18 604 53 q 407 -17 494 -17 m 444 139 q 585 197 531 139 q 640 344 640 254 q 585 492 640 435 q 444 550 531 550 q 304 493 360 550 q 249 346 249 436 q 304 197 249 256 q 444 139 360 139 z "},"ð":{"ha":896,"x_min":68,"x_max":828,"o":"m 443 -17 q 249 31 333 -17 q 116 160 164 79 q 68 342 68 240 q 116 525 68 444 q 245 652 164 606 q 431 699 326 699 q 536 683 486 699 q 631 633 586 667 q 542 803 599 719 l 367 746 l 367 853 l 474 888 q 388 972 433 933 l 556 972 q 601 929 579 951 l 771 985 l 771 878 l 674 846 q 790 626 751 742 q 828 401 828 511 q 776 180 828 274 q 638 35 725 86 q 443 -17 550 -17 m 449 135 q 547 160 501 135 q 619 231 592 185 q 646 342 646 278 q 619 451 646 406 q 547 522 592 497 q 449 547 501 547 q 351 522 396 547 q 278 451 306 497 q 250 342 250 406 q 278 231 250 278 q 351 160 306 185 q 449 135 396 135 z "},"ď":{"ha":1111,"x_min":68,"x_max":1086,"o":"m 919 701 l 919 775 q 989 857 989 775 l 989 885 l 911 885 l 911 1028 l 1064 1028 q 1081 951 1075 988 q 1086 883 1086 915 q 1044 749 1086 797 q 919 701 1003 701 m 407 -17 q 233 31 310 -17 q 113 160 157 78 q 68 346 68 242 q 113 531 68 450 q 233 659 157 613 q 407 706 310 706 q 543 676 485 706 q 638 594 601 647 l 638 1000 l 815 1000 l 815 0 l 657 0 l 638 99 q 549 18 604 53 q 407 -17 494 -17 m 444 139 q 585 197 531 139 q 640 344 640 254 q 585 492 640 435 q 444 550 531 550 q 304 493 360 550 q 249 346 249 436 q 304 197 249 256 q 444 139 360 139 z "},"đ":{"ha":949,"x_min":68,"x_max":913,"o":"m 407 -17 q 233 31 310 -17 q 113 160 157 78 q 68 346 68 242 q 113 531 68 450 q 233 659 157 613 q 407 706 310 706 q 543 676 485 706 q 638 594 601 647 l 638 786 l 442 786 l 442 894 l 638 894 l 638 1000 l 815 1000 l 815 894 l 913 894 l 913 786 l 815 786 l 815 0 l 657 0 l 638 99 q 549 18 604 53 q 407 -17 494 -17 m 444 139 q 585 197 531 139 q 640 344 640 254 q 585 492 640 435 q 444 550 531 550 q 304 493 360 550 q 249 346 249 436 q 304 197 249 256 q 444 139 360 139 z "},"e":{"ha":831,"x_min":68,"x_max":771,"o":"m 425 -17 q 240 28 321 -17 q 114 153 160 72 q 68 339 68 233 q 113 529 68 446 q 238 659 158 613 q 426 706 318 706 q 606 661 528 706 q 727 540 683 617 q 771 368 771 463 q 770 336 771 353 q 768 301 769 319 l 244 301 q 301 175 250 221 q 424 129 351 129 q 515 153 478 129 q 569 217 551 178 l 750 217 q 685 98 731 151 q 574 14 640 44 q 425 -17 508 -17 m 426 561 q 311 524 361 561 q 247 413 261 488 l 590 413 q 540 521 586 481 q 426 561 494 561 z "},"é":{"ha":831,"x_min":68,"x_max":771,"o":"m 425 -17 q 240 28 321 -17 q 114 153 160 72 q 68 339 68 233 q 113 529 68 446 q 238 659 158 613 q 426 706 318 706 q 606 661 528 706 q 727 540 683 617 q 771 368 771 463 q 770 336 771 353 q 768 301 769 319 l 244 301 q 301 175 250 221 q 424 129 351 129 q 515 153 478 129 q 569 217 551 178 l 750 217 q 685 98 731 151 q 574 14 640 44 q 425 -17 508 -17 m 426 561 q 311 524 361 561 q 247 413 261 488 l 590 413 q 540 521 586 481 q 426 561 494 561 m 376 744 l 376 869 l 690 1039 l 690 894 l 376 744 z "},"ĕ":{"ha":831,"x_min":68,"x_max":771,"o":"m 425 -17 q 240 28 321 -17 q 114 153 160 72 q 68 339 68 233 q 113 529 68 446 q 238 659 158 613 q 426 706 318 706 q 606 661 528 706 q 727 540 683 617 q 771 368 771 463 q 770 336 771 353 q 768 301 769 319 l 244 301 q 301 175 250 221 q 424 129 351 129 q 515 153 478 129 q 569 217 551 178 l 750 217 q 685 98 731 151 q 574 14 640 44 q 425 -17 508 -17 m 426 561 q 311 524 361 561 q 247 413 261 488 l 590 413 q 540 521 586 481 q 426 561 494 561 m 424 757 q 266 814 324 757 q 208 968 208 871 l 208 990 l 303 990 q 330 917 303 943 q 424 890 357 890 q 518 917 490 890 q 546 990 546 943 l 640 990 l 640 967 q 582 814 640 871 q 424 757 524 757 z "},"ě":{"ha":831,"x_min":68,"x_max":771,"o":"m 425 -17 q 240 28 321 -17 q 114 153 160 72 q 68 339 68 233 q 113 529 68 446 q 238 659 158 613 q 426 706 318 706 q 606 661 528 706 q 727 540 683 617 q 771 368 771 463 q 770 336 771 353 q 768 301 769 319 l 244 301 q 301 175 250 221 q 424 129 351 129 q 515 153 478 129 q 569 217 551 178 l 750 217 q 685 98 731 151 q 574 14 640 44 q 425 -17 508 -17 m 426 561 q 311 524 361 561 q 247 413 261 488 l 590 413 q 540 521 586 481 q 426 561 494 561 m 424 753 l 221 864 l 221 992 l 424 874 l 626 992 l 626 864 l 424 753 z "},"ê":{"ha":831,"x_min":68,"x_max":771,"o":"m 425 -17 q 240 28 321 -17 q 114 153 160 72 q 68 339 68 233 q 113 529 68 446 q 238 659 158 613 q 426 706 318 706 q 606 661 528 706 q 727 540 683 617 q 771 368 771 463 q 770 336 771 353 q 768 301 769 319 l 244 301 q 301 175 250 221 q 424 129 351 129 q 515 153 478 129 q 569 217 551 178 l 750 217 q 685 98 731 151 q 574 14 640 44 q 425 -17 508 -17 m 426 561 q 311 524 361 561 q 247 413 261 488 l 590 413 q 540 521 586 481 q 426 561 494 561 m 221 754 l 221 882 l 424 993 l 626 882 l 626 754 l 424 868 l 221 754 z "},"ë":{"ha":831,"x_min":68,"x_max":771,"o":"m 425 -17 q 240 28 321 -17 q 114 153 160 72 q 68 339 68 233 q 113 529 68 446 q 238 659 158 613 q 426 706 318 706 q 606 661 528 706 q 727 540 683 617 q 771 368 771 463 q 770 336 771 353 q 768 301 769 319 l 244 301 q 301 175 250 221 q 424 129 351 129 q 515 153 478 129 q 569 217 551 178 l 750 217 q 685 98 731 151 q 574 14 640 44 q 425 -17 508 -17 m 426 561 q 311 524 361 561 q 247 413 261 488 l 590 413 q 540 521 586 481 q 426 561 494 561 m 549 783 q 488 808 513 783 q 463 869 463 833 q 488 931 463 906 q 549 956 513 956 q 609 931 585 956 q 633 869 633 906 q 609 808 633 833 q 549 783 585 783 m 297 783 q 237 808 261 783 q 213 869 213 833 q 237 931 213 906 q 297 956 261 956 q 358 931 333 956 q 383 869 383 906 q 358 808 383 833 q 297 783 333 783 z "},"ė":{"ha":831,"x_min":68,"x_max":771,"o":"m 425 -17 q 240 28 321 -17 q 114 153 160 72 q 68 339 68 233 q 113 529 68 446 q 238 659 158 613 q 426 706 318 706 q 606 661 528 706 q 727 540 683 617 q 771 368 771 463 q 770 336 771 353 q 768 301 769 319 l 244 301 q 301 175 250 221 q 424 129 351 129 q 515 153 478 129 q 569 217 551 178 l 750 217 q 685 98 731 151 q 574 14 640 44 q 425 -17 508 -17 m 426 561 q 311 524 361 561 q 247 413 261 488 l 590 413 q 540 521 586 481 q 426 561 494 561 m 422 778 q 363 803 388 778 q 338 864 338 828 q 363 925 338 900 q 422 950 388 950 q 483 925 458 950 q 508 864 508 900 q 483 803 508 828 q 422 778 458 778 z "},"è":{"ha":831,"x_min":68,"x_max":771,"o":"m 425 -17 q 240 28 321 -17 q 114 153 160 72 q 68 339 68 233 q 113 529 68 446 q 238 659 158 613 q 426 706 318 706 q 606 661 528 706 q 727 540 683 617 q 771 368 771 463 q 770 336 771 353 q 768 301 769 319 l 244 301 q 301 175 250 221 q 424 129 351 129 q 515 153 478 129 q 569 217 551 178 l 750 217 q 685 98 731 151 q 574 14 640 44 q 425 -17 508 -17 m 426 561 q 311 524 361 561 q 247 413 261 488 l 590 413 q 540 521 586 481 q 426 561 494 561 m 493 744 l 179 894 l 179 1039 l 493 869 l 493 744 z "},"ē":{"ha":831,"x_min":68,"x_max":771,"o":"m 425 -17 q 240 28 321 -17 q 114 153 160 72 q 68 339 68 233 q 113 529 68 446 q 238 659 158 613 q 426 706 318 706 q 606 661 528 706 q 727 540 683 617 q 771 368 771 463 q 770 336 771 353 q 768 301 769 319 l 244 301 q 301 175 250 221 q 424 129 351 129 q 515 153 478 129 q 569 217 551 178 l 750 217 q 685 98 731 151 q 574 14 640 44 q 425 -17 508 -17 m 426 561 q 311 524 361 561 q 247 413 261 488 l 590 413 q 540 521 586 481 q 426 561 494 561 m 164 804 l 164 931 l 683 931 l 683 804 l 164 804 z "},"ę":{"ha":831,"x_min":68,"x_max":771,"o":"m 425 -17 q 240 28 321 -17 q 114 153 160 72 q 68 339 68 233 q 113 529 68 446 q 238 659 158 613 q 426 706 318 706 q 606 661 528 706 q 727 540 683 617 q 771 368 771 463 q 770 336 771 353 q 768 301 769 319 l 244 301 q 301 175 250 221 q 424 129 351 129 q 515 153 478 129 q 569 217 551 178 l 750 217 q 685 98 731 151 q 574 14 640 44 q 425 -17 508 -17 m 426 561 q 311 524 361 561 q 247 413 261 488 l 590 413 q 540 521 586 481 q 426 561 494 561 m 450 -276 q 321 -242 376 -276 q 265 -132 265 -207 q 307 -26 265 -76 q 460 71 349 24 l 524 99 l 564 15 l 492 -21 q 422 -68 442 -46 q 401 -115 401 -90 q 421 -157 401 -142 q 474 -172 440 -172 q 571 -151 518 -172 l 571 -257 q 514 -271 544 -265 q 450 -276 483 -276 z "},"ẽ":{"ha":831,"x_min":68,"x_max":771,"o":"m 425 -17 q 240 28 321 -17 q 114 153 160 72 q 68 339 68 233 q 113 529 68 446 q 238 659 158 613 q 426 706 318 706 q 606 661 528 706 q 727 540 683 617 q 771 368 771 463 q 770 336 771 353 q 768 301 769 319 l 244 301 q 301 175 250 221 q 424 129 351 129 q 515 153 478 129 q 569 217 551 178 l 750 217 q 685 98 731 151 q 574 14 640 44 q 425 -17 508 -17 m 426 561 q 311 524 361 561 q 247 413 261 488 l 590 413 q 540 521 586 481 q 426 561 494 561 m 504 761 q 438 777 465 761 q 386 809 410 793 q 335 825 363 825 q 274 763 283 825 l 179 763 q 235 893 193 851 q 342 935 278 935 q 408 919 381 935 q 460 887 436 903 q 513 871 483 871 q 552 886 536 871 q 572 933 568 901 l 668 933 q 611 803 654 844 q 504 761 568 761 z "},"ə":{"ha":831,"x_min":60,"x_max":763,"o":"m 404 -17 q 225 28 303 -17 q 103 149 147 72 q 60 321 60 226 q 60 353 60 336 q 63 388 61 369 l 586 388 q 530 514 581 468 q 407 560 479 560 q 316 535 353 560 q 261 472 279 511 l 81 472 q 145 591 100 538 q 256 675 190 644 q 406 706 322 706 q 590 661 510 706 q 717 536 671 617 q 763 350 763 456 q 717 160 763 243 q 592 30 672 76 q 404 -17 511 -17 m 404 128 q 519 165 469 128 q 583 276 569 201 l 240 276 q 290 168 244 208 q 404 128 336 128 z "},"f":{"ha":499,"x_min":28,"x_max":449,"o":"m 122 0 l 122 540 l 28 540 l 28 689 l 122 689 l 122 769 q 185 947 122 894 q 357 1000 249 1000 l 433 1000 l 433 849 l 385 849 q 319 831 339 849 q 300 769 300 813 l 300 689 l 449 689 l 449 540 l 300 540 l 300 0 l 122 0 z "},"g":{"ha":790,"x_min":53,"x_max":751,"o":"m 382 206 q 289 217 332 206 l 238 165 q 301 144 261 153 q 432 128 342 136 q 632 63 569 115 q 694 -83 694 10 q 661 -199 694 -144 q 558 -288 628 -254 q 381 -322 489 -322 q 143 -267 233 -322 q 53 -103 53 -212 q 143 58 53 -10 q 95 85 115 71 q 60 114 75 99 l 60 146 l 181 274 q 100 456 100 344 q 134 582 100 525 q 231 672 168 639 q 382 706 293 706 q 490 689 440 706 l 751 689 l 751 581 l 633 572 q 661 456 661 519 q 628 329 661 386 q 531 239 594 272 q 382 206 468 206 m 382 342 q 472 371 436 342 q 507 454 507 400 q 472 538 507 508 q 382 567 436 567 q 290 538 325 567 q 256 454 256 508 q 290 371 256 400 q 382 342 325 342 m 215 -85 q 263 -162 215 -136 q 381 -187 311 -187 q 489 -160 447 -187 q 531 -87 531 -133 q 503 -25 531 -50 q 396 6 476 0 q 290 18 339 10 q 233 -31 250 -4 q 215 -85 215 -57 z "},"ğ":{"ha":790,"x_min":53,"x_max":751,"o":"m 382 206 q 289 217 332 206 l 238 165 q 301 144 261 153 q 432 128 342 136 q 632 63 569 115 q 694 -83 694 10 q 661 -199 694 -144 q 558 -288 628 -254 q 381 -322 489 -322 q 143 -267 233 -322 q 53 -103 53 -212 q 143 58 53 -10 q 95 85 115 71 q 60 114 75 99 l 60 146 l 181 274 q 100 456 100 344 q 134 582 100 525 q 231 672 168 639 q 382 706 293 706 q 490 689 440 706 l 751 689 l 751 581 l 633 572 q 661 456 661 519 q 628 329 661 386 q 531 239 594 272 q 382 206 468 206 m 382 342 q 472 371 436 342 q 507 454 507 400 q 472 538 507 508 q 382 567 436 567 q 290 538 325 567 q 256 454 256 508 q 290 371 256 400 q 382 342 325 342 m 215 -85 q 263 -162 215 -136 q 381 -187 311 -187 q 489 -160 447 -187 q 531 -87 531 -133 q 503 -25 531 -50 q 396 6 476 0 q 290 18 339 10 q 233 -31 250 -4 q 215 -85 215 -57 m 382 757 q 224 814 282 757 q 167 968 167 871 l 167 990 l 261 990 q 288 917 261 943 q 382 890 315 890 q 477 917 450 890 q 504 990 504 943 l 599 990 l 599 967 q 540 814 599 871 q 382 757 482 757 z "},"ģ":{"ha":790,"x_min":53,"x_max":751,"o":"m 328 829 q 311 905 317 868 q 306 974 306 942 q 347 1108 306 1060 q 472 1156 389 1156 l 472 1082 q 403 1000 403 1082 l 403 972 l 479 972 l 479 829 l 328 829 m 382 206 q 289 217 332 206 l 238 165 q 301 144 261 153 q 432 128 342 136 q 632 63 569 115 q 694 -83 694 10 q 661 -199 694 -144 q 558 -288 628 -254 q 381 -322 489 -322 q 143 -267 233 -322 q 53 -103 53 -212 q 143 58 53 -10 q 95 85 115 71 q 60 114 75 99 l 60 146 l 181 274 q 100 456 100 344 q 134 582 100 525 q 231 672 168 639 q 382 706 293 706 q 490 689 440 706 l 751 689 l 751 581 l 633 572 q 661 456 661 519 q 628 329 661 386 q 531 239 594 272 q 382 206 468 206 m 382 342 q 472 371 436 342 q 507 454 507 400 q 472 538 507 508 q 382 567 436 567 q 290 538 325 567 q 256 454 256 508 q 290 371 256 400 q 382 342 325 342 m 215 -85 q 263 -162 215 -136 q 381 -187 311 -187 q 489 -160 447 -187 q 531 -87 531 -133 q 503 -25 531 -50 q 396 6 476 0 q 290 18 339 10 q 233 -31 250 -4 q 215 -85 215 -57 z "},"ġ":{"ha":790,"x_min":53,"x_max":751,"o":"m 382 206 q 289 217 332 206 l 238 165 q 301 144 261 153 q 432 128 342 136 q 632 63 569 115 q 694 -83 694 10 q 661 -199 694 -144 q 558 -288 628 -254 q 381 -322 489 -322 q 143 -267 233 -322 q 53 -103 53 -212 q 143 58 53 -10 q 95 85 115 71 q 60 114 75 99 l 60 146 l 181 274 q 100 456 100 344 q 134 582 100 525 q 231 672 168 639 q 382 706 293 706 q 490 689 440 706 l 751 689 l 751 581 l 633 572 q 661 456 661 519 q 628 329 661 386 q 531 239 594 272 q 382 206 468 206 m 382 342 q 472 371 436 342 q 507 454 507 400 q 472 538 507 508 q 382 567 436 567 q 290 538 325 567 q 256 454 256 508 q 290 371 256 400 q 382 342 325 342 m 215 -85 q 263 -162 215 -136 q 381 -187 311 -187 q 489 -160 447 -187 q 531 -87 531 -133 q 503 -25 531 -50 q 396 6 476 0 q 290 18 339 10 q 233 -31 250 -4 q 215 -85 215 -57 m 382 778 q 321 803 346 778 q 296 864 296 828 q 321 925 296 900 q 382 950 346 950 q 443 925 418 950 q 468 864 468 900 q 443 803 468 828 q 382 778 418 778 z "},"h":{"ha":844,"x_min":90,"x_max":765,"o":"m 90 0 l 90 1000 l 268 1000 l 268 583 q 362 673 303 640 q 497 706 421 706 q 695 625 625 706 q 765 389 765 544 l 765 0 l 589 0 l 589 372 q 553 508 589 461 q 442 556 518 556 q 317 503 367 556 q 268 356 268 450 l 268 0 l 90 0 z "},"i":{"ha":371,"x_min":75,"x_max":297,"o":"m 186 796 q 106 825 138 796 q 75 899 75 854 q 106 972 75 943 q 186 1000 138 1000 q 266 972 235 1000 q 297 899 297 943 q 266 825 297 854 q 186 796 235 796 m 97 0 l 97 689 l 275 689 l 275 0 l 97 0 z "},"ı":{"ha":360,"x_min":90,"x_max":268,"o":"m 90 0 l 90 689 l 268 689 l 268 0 l 90 0 z "},"í":{"ha":360,"x_min":90,"x_max":446,"o":"m 90 0 l 90 689 l 268 689 l 268 0 l 90 0 m 133 744 l 133 869 l 447 1039 l 447 894 l 133 744 z "},"ĭ":{"ha":360,"x_min":-35,"x_max":397,"o":"m 90 0 l 90 689 l 268 689 l 268 0 l 90 0 m 181 757 q 23 814 81 757 q -35 968 -35 871 l -35 990 l 60 990 q 87 917 60 943 q 181 890 114 890 q 275 917 247 890 q 303 990 303 943 l 397 990 l 397 967 q 339 814 397 871 q 181 757 281 757 z "},"î":{"ha":360,"x_min":-22,"x_max":383,"o":"m 90 0 l 90 689 l 268 689 l 268 0 l 90 0 m -22 754 l -22 882 l 181 993 l 383 882 l 383 754 l 181 868 l -22 754 z "},"ï":{"ha":360,"x_min":-31,"x_max":390,"o":"m 90 0 l 90 689 l 268 689 l 268 0 l 90 0 m 306 783 q 244 808 269 783 q 219 869 219 833 q 244 931 219 906 q 306 956 269 956 q 366 931 342 956 q 390 869 390 906 q 366 808 390 833 q 306 783 342 783 m 54 783 q -6 808 18 783 q -31 869 -31 833 q -6 931 -31 906 q 54 956 18 956 q 115 931 90 956 q 140 869 140 906 q 115 808 140 833 q 54 783 90 783 z "},"ì":{"ha":360,"x_min":-64,"x_max":268,"o":"m 90 0 l 90 689 l 268 689 l 268 0 l 90 0 m 250 744 l -64 894 l -64 1039 l 250 869 l 250 744 z "},"ī":{"ha":360,"x_min":-81,"x_max":439,"o":"m 90 0 l 90 689 l 268 689 l 268 0 l 90 0 m -79 804 l -79 931 l 440 931 l 440 804 l -79 804 z "},"į":{"ha":371,"x_min":-24,"x_max":297,"o":"m 186 796 q 106 825 138 796 q 75 899 75 854 q 106 972 75 943 q 186 1000 138 1000 q 266 972 235 1000 q 297 899 297 943 q 266 825 297 854 q 186 796 235 796 m 97 0 l 97 689 l 275 689 l 275 0 l 97 0 m 161 -292 q 32 -257 88 -292 q -24 -147 -24 -222 q 18 -42 -24 -92 q 171 56 60 8 l 235 83 l 275 0 l 203 -36 q 133 -83 153 -61 q 113 -131 113 -106 q 132 -172 113 -157 q 185 -187 151 -187 q 282 -167 229 -187 l 282 -272 q 225 -286 256 -281 q 161 -292 194 -292 z "},"ĩ":{"ha":360,"x_min":-64,"x_max":424,"o":"m 90 0 l 90 689 l 268 689 l 268 0 l 90 0 m 261 761 q 194 777 222 761 q 143 809 167 793 q 92 825 119 825 q 31 763 40 825 l -64 763 q -8 893 -50 851 q 99 935 35 935 q 165 919 138 935 q 217 887 193 903 q 269 871 240 871 q 309 886 293 871 q 329 933 325 901 l 425 933 q 368 803 411 844 q 261 761 325 761 z "},"j":{"ha":372,"x_min":-40,"x_max":300,"o":"m 189 796 q 109 825 140 796 q 78 899 78 854 q 109 972 78 943 q 189 1000 140 1000 q 269 972 238 1000 q 300 899 300 943 q 269 825 300 854 q 189 796 238 796 m -40 -306 l -40 -154 l 14 -154 q 79 -136 60 -154 q 99 -75 99 -118 l 99 689 l 276 689 l 276 -75 q 213 -253 276 -200 q 42 -306 150 -306 l -40 -306 z "},"k":{"ha":789,"x_min":90,"x_max":769,"o":"m 90 0 l 90 1000 l 268 1000 l 268 410 l 513 689 l 724 689 l 442 375 l 769 0 l 547 0 l 268 346 l 268 0 l 90 0 z "},"ķ":{"ha":789,"x_min":90,"x_max":769,"o":"m 90 0 l 90 1000 l 268 1000 l 268 410 l 513 689 l 724 689 l 442 375 l 769 0 l 547 0 l 268 346 l 268 0 l 90 0 m 319 -381 l 319 -308 q 389 -222 389 -308 l 389 -201 l 314 -201 l 314 -62 l 465 -62 q 485 -196 485 -133 q 443 -333 485 -285 q 319 -381 401 -381 z "},"l":{"ha":360,"x_min":90,"x_max":268,"o":"m 90 0 l 90 1000 l 268 1000 l 268 0 l 90 0 z "},"ĺ":{"ha":360,"x_min":90,"x_max":446,"o":"m 90 0 l 90 1000 l 268 1000 l 268 0 l 90 0 m 133 1056 l 133 1181 l 447 1350 l 447 1206 l 133 1056 z "},"ľ":{"ha":565,"x_min":90,"x_max":539,"o":"m 375 701 l 375 775 q 444 857 444 775 l 444 885 l 367 885 l 367 1028 l 519 1028 q 535 951 531 988 q 539 883 539 915 q 498 749 539 797 q 375 701 457 701 m 90 0 l 90 1000 l 268 1000 l 268 0 l 90 0 z "},"ļ":{"ha":371,"x_min":90,"x_max":275,"o":"m 90 0 l 90 1000 l 268 1000 l 268 0 l 90 0 m 110 -381 l 110 -308 q 179 -222 179 -308 l 179 -201 l 103 -201 l 103 -62 l 254 -62 q 270 -133 265 -99 q 275 -196 275 -167 q 233 -333 275 -285 q 110 -381 190 -381 z "},"ŀ":{"ha":547,"x_min":97,"x_max":506,"o":"m 97 0 l 97 1000 l 275 1000 l 275 0 l 97 0 m 419 422 q 358 447 383 422 q 333 507 333 471 q 358 569 333 543 q 419 594 383 594 q 481 569 456 594 q 506 507 506 543 q 481 447 506 471 q 419 422 456 422 z "},"ł":{"ha":401,"x_min":15,"x_max":386,"o":"m 111 0 l 111 440 l 15 407 l 15 556 l 111 589 l 111 1000 l 289 1000 l 289 650 l 386 685 l 386 536 l 289 503 l 289 0 l 111 0 z "},"m":{"ha":1301,"x_min":90,"x_max":1222,"o":"m 90 0 l 90 689 l 247 689 l 263 596 q 351 676 296 646 q 478 706 406 706 q 704 582 638 706 q 805 672 742 639 q 943 706 868 706 q 1150 625 1078 706 q 1222 389 1222 544 l 1222 0 l 1044 0 l 1044 372 q 1010 508 1044 461 q 906 556 976 556 q 790 503 833 556 q 746 356 746 450 l 746 0 l 568 0 l 568 372 q 533 508 568 461 q 426 556 499 556 q 312 503 356 556 q 268 356 268 450 l 268 0 l 90 0 z "},"n":{"ha":844,"x_min":90,"x_max":765,"o":"m 90 0 l 90 689 l 247 689 l 261 572 q 353 669 293 633 q 496 706 414 706 q 694 625 624 706 q 765 389 765 544 l 765 0 l 588 0 l 588 372 q 551 508 588 461 q 439 556 515 556 q 316 503 364 556 q 268 356 268 450 l 268 0 l 90 0 z "},"ń":{"ha":844,"x_min":90,"x_max":765,"o":"m 90 0 l 90 689 l 247 689 l 261 572 q 353 669 293 633 q 496 706 414 706 q 694 625 624 706 q 765 389 765 544 l 765 0 l 588 0 l 588 372 q 551 508 588 461 q 439 556 515 556 q 316 503 364 556 q 268 356 268 450 l 268 0 l 90 0 m 408 744 l 408 869 l 722 1039 l 722 894 l 408 744 z "},"ň":{"ha":844,"x_min":90,"x_max":765,"o":"m 90 0 l 90 689 l 247 689 l 261 572 q 353 669 293 633 q 496 706 414 706 q 694 625 624 706 q 765 389 765 544 l 765 0 l 588 0 l 588 372 q 551 508 588 461 q 439 556 515 556 q 316 503 364 556 q 268 356 268 450 l 268 0 l 90 0 m 456 753 l 253 864 l 253 992 l 456 874 l 658 992 l 658 864 l 456 753 z "},"ņ":{"ha":844,"x_min":90,"x_max":765,"o":"m 90 0 l 90 689 l 247 689 l 261 572 q 353 669 293 633 q 496 706 414 706 q 694 625 624 706 q 765 389 765 544 l 765 0 l 588 0 l 588 372 q 551 508 588 461 q 439 556 515 556 q 316 503 364 556 q 268 356 268 450 l 268 0 l 90 0 m 368 -381 l 368 -308 q 438 -222 438 -308 l 438 -201 l 361 -201 l 361 -62 l 513 -62 q 528 -133 524 -99 q 533 -196 533 -167 q 492 -333 533 -285 q 368 -381 450 -381 z "},"ñ":{"ha":844,"x_min":90,"x_max":765,"o":"m 90 0 l 90 689 l 247 689 l 261 572 q 353 669 293 633 q 496 706 414 706 q 694 625 624 706 q 765 389 765 544 l 765 0 l 588 0 l 588 372 q 551 508 588 461 q 439 556 515 556 q 316 503 364 556 q 268 356 268 450 l 268 0 l 90 0 m 536 761 q 469 777 497 761 q 418 809 442 793 q 367 825 394 825 q 306 763 315 825 l 211 763 q 267 893 225 851 q 374 935 310 935 q 440 919 413 935 q 492 887 468 903 q 544 871 515 871 q 584 886 568 871 q 604 933 600 901 l 700 933 q 643 803 686 844 q 536 761 600 761 z "},"o":{"ha":842,"x_min":68,"x_max":774,"o":"m 421 -17 q 241 29 321 -17 q 115 156 161 75 q 68 344 68 238 q 115 533 68 451 q 242 660 163 614 q 422 706 322 706 q 601 660 521 706 q 727 533 681 614 q 774 344 774 451 q 727 156 774 238 q 600 29 681 75 q 421 -17 519 -17 m 421 138 q 542 190 490 138 q 593 344 593 242 q 542 499 593 447 q 422 551 490 551 q 301 499 351 551 q 250 344 250 447 q 301 190 250 242 q 421 138 351 138 z "},"ó":{"ha":842,"x_min":68,"x_max":774,"o":"m 421 -17 q 241 29 321 -17 q 115 156 161 75 q 68 344 68 238 q 115 533 68 451 q 242 660 163 614 q 422 706 322 706 q 601 660 521 706 q 727 533 681 614 q 774 344 774 451 q 727 156 774 238 q 600 29 681 75 q 421 -17 519 -17 m 421 138 q 542 190 490 138 q 593 344 593 242 q 542 499 593 447 q 422 551 490 551 q 301 499 351 551 q 250 344 250 447 q 301 190 250 242 q 421 138 351 138 m 375 744 l 375 869 l 689 1039 l 689 894 l 375 744 z "},"ŏ":{"ha":842,"x_min":68,"x_max":774,"o":"m 421 -17 q 241 29 321 -17 q 115 156 161 75 q 68 344 68 238 q 115 533 68 451 q 242 660 163 614 q 422 706 322 706 q 601 660 521 706 q 727 533 681 614 q 774 344 774 451 q 727 156 774 238 q 600 29 681 75 q 421 -17 519 -17 m 421 138 q 542 190 490 138 q 593 344 593 242 q 542 499 593 447 q 422 551 490 551 q 301 499 351 551 q 250 344 250 447 q 301 190 250 242 q 421 138 351 138 m 422 757 q 265 814 322 757 q 207 968 207 871 l 207 990 l 301 990 q 328 917 301 943 q 422 890 356 890 q 517 917 489 890 q 544 990 544 943 l 639 990 l 639 967 q 581 814 639 871 q 422 757 522 757 z "},"ô":{"ha":842,"x_min":68,"x_max":774,"o":"m 421 -17 q 241 29 321 -17 q 115 156 161 75 q 68 344 68 238 q 115 533 68 451 q 242 660 163 614 q 422 706 322 706 q 601 660 521 706 q 727 533 681 614 q 774 344 774 451 q 727 156 774 238 q 600 29 681 75 q 421 -17 519 -17 m 421 138 q 542 190 490 138 q 593 344 593 242 q 542 499 593 447 q 422 551 490 551 q 301 499 351 551 q 250 344 250 447 q 301 190 250 242 q 421 138 351 138 m 219 754 l 219 882 l 422 993 l 625 882 l 625 754 l 422 868 l 219 754 z "},"ö":{"ha":842,"x_min":68,"x_max":774,"o":"m 421 -17 q 241 29 321 -17 q 115 156 161 75 q 68 344 68 238 q 115 533 68 451 q 242 660 163 614 q 422 706 322 706 q 601 660 521 706 q 727 533 681 614 q 774 344 774 451 q 727 156 774 238 q 600 29 681 75 q 421 -17 519 -17 m 421 138 q 542 190 490 138 q 593 344 593 242 q 542 499 593 447 q 422 551 490 551 q 301 499 351 551 q 250 344 250 447 q 301 190 250 242 q 421 138 351 138 m 547 783 q 486 808 511 783 q 461 869 461 833 q 486 931 461 906 q 547 956 511 956 q 608 931 583 956 q 632 869 632 906 q 608 808 632 833 q 547 783 583 783 m 296 783 q 235 808 260 783 q 211 869 211 833 q 235 931 211 906 q 296 956 260 956 q 357 931 332 956 q 382 869 382 906 q 357 808 382 833 q 296 783 332 783 z "},"ò":{"ha":842,"x_min":68,"x_max":774,"o":"m 421 -17 q 241 29 321 -17 q 115 156 161 75 q 68 344 68 238 q 115 533 68 451 q 242 660 163 614 q 422 706 322 706 q 601 660 521 706 q 727 533 681 614 q 774 344 774 451 q 727 156 774 238 q 600 29 681 75 q 421 -17 519 -17 m 421 138 q 542 190 490 138 q 593 344 593 242 q 542 499 593 447 q 422 551 490 551 q 301 499 351 551 q 250 344 250 447 q 301 190 250 242 q 421 138 351 138 m 492 744 l 178 894 l 178 1039 l 492 869 l 492 744 z "},"ő":{"ha":842,"x_min":68,"x_max":774,"o":"m 421 -17 q 241 29 321 -17 q 115 156 161 75 q 68 344 68 238 q 115 533 68 451 q 242 660 163 614 q 422 706 322 706 q 601 660 521 706 q 727 533 681 614 q 774 344 774 451 q 727 156 774 238 q 600 29 681 75 q 421 -17 519 -17 m 421 138 q 542 190 490 138 q 593 344 593 242 q 542 499 593 447 q 422 551 490 551 q 301 499 351 551 q 250 344 250 447 q 301 190 250 242 q 421 138 351 138 m 468 756 l 581 1004 l 726 1004 l 579 756 l 468 756 m 232 756 l 331 1004 l 475 1004 l 344 756 l 232 756 z "},"ō":{"ha":842,"x_min":68,"x_max":774,"o":"m 421 -17 q 241 29 321 -17 q 115 156 161 75 q 68 344 68 238 q 115 533 68 451 q 242 660 163 614 q 422 706 322 706 q 601 660 521 706 q 727 533 681 614 q 774 344 774 451 q 727 156 774 238 q 600 29 681 75 q 421 -17 519 -17 m 421 138 q 542 190 490 138 q 593 344 593 242 q 542 499 593 447 q 422 551 490 551 q 301 499 351 551 q 250 344 250 447 q 301 190 250 242 q 421 138 351 138 m 161 804 l 161 931 l 681 931 l 681 804 l 161 804 z "},"ø":{"ha":817,"x_min":42,"x_max":775,"o":"m 42 0 l 135 108 q 76 214 97 154 q 56 344 56 274 q 102 533 56 451 q 229 660 149 614 q 408 706 310 706 q 603 651 517 706 l 635 689 l 775 689 l 682 581 q 740 475 719 535 q 761 344 761 415 q 714 156 761 238 q 587 29 667 75 q 407 -17 507 -17 q 214 38 300 -17 l 182 0 l 42 0 m 225 344 q 244 235 225 282 l 506 539 q 408 567 463 567 q 280 511 335 567 q 225 344 225 456 m 407 122 q 537 178 482 122 q 592 344 592 233 q 572 454 592 406 l 311 150 q 407 122 353 122 z "},"õ":{"ha":842,"x_min":68,"x_max":774,"o":"m 421 -17 q 241 29 321 -17 q 115 156 161 75 q 68 344 68 238 q 115 533 68 451 q 242 660 163 614 q 422 706 322 706 q 601 660 521 706 q 727 533 681 614 q 774 344 774 451 q 727 156 774 238 q 600 29 681 75 q 421 -17 519 -17 m 421 138 q 542 190 490 138 q 593 344 593 242 q 542 499 593 447 q 422 551 490 551 q 301 499 351 551 q 250 344 250 447 q 301 190 250 242 q 421 138 351 138 m 503 761 q 436 777 464 761 q 385 809 408 793 q 333 825 361 825 q 272 763 282 825 l 178 763 q 234 893 192 851 q 340 935 276 935 q 407 919 379 935 q 458 887 435 903 q 511 871 482 871 q 551 886 535 871 q 571 933 567 901 l 667 933 q 610 803 653 844 q 503 761 567 761 z "},"œ":{"ha":1354,"x_min":68,"x_max":1294,"o":"m 421 -17 q 241 29 321 -17 q 115 156 161 75 q 68 344 68 238 q 115 533 68 451 q 242 660 163 614 q 422 706 322 706 q 569 673 504 706 q 678 581 635 640 q 792 672 722 639 q 950 706 863 706 q 1130 661 1053 706 q 1251 540 1207 617 q 1294 368 1294 463 q 1294 336 1294 353 q 1292 301 1293 319 l 768 301 q 826 174 775 219 q 949 129 876 129 q 1048 159 1008 129 q 1106 236 1088 189 l 1282 236 q 1218 107 1264 164 q 1104 17 1172 50 q 950 -17 1036 -17 q 792 16 863 -17 q 676 107 722 49 q 568 16 633 49 q 421 -17 503 -17 m 774 413 l 1115 413 q 1065 521 1111 481 q 950 561 1018 561 q 835 524 885 561 q 774 413 785 486 m 421 138 q 542 190 490 138 q 593 344 593 242 q 542 499 593 447 q 422 551 490 551 q 301 499 351 551 q 250 344 250 447 q 301 190 250 242 q 421 138 351 138 z "},"p":{"ha":906,"x_min":90,"x_max":838,"o":"m 90 -306 l 90 689 l 249 689 l 268 590 q 356 671 301 636 q 499 706 411 706 q 672 658 596 706 q 793 529 749 611 q 838 343 838 447 q 793 158 838 239 q 672 30 749 76 q 499 -17 596 -17 q 363 13 421 -17 q 268 94 304 42 l 268 -306 l 90 -306 m 461 139 q 601 196 546 139 q 657 343 657 253 q 601 492 657 433 q 461 550 546 550 q 320 492 375 550 q 265 344 265 435 q 320 197 265 254 q 461 139 375 139 z "},"þ":{"ha":906,"x_min":90,"x_max":838,"o":"m 90 -306 l 90 1000 l 268 1000 l 268 590 q 356 671 301 636 q 499 706 411 706 q 672 658 596 706 q 793 529 749 611 q 838 343 838 447 q 793 158 838 239 q 672 30 749 76 q 499 -17 596 -17 q 363 13 421 -17 q 268 94 304 42 l 268 -306 l 90 -306 m 461 139 q 601 196 546 139 q 657 343 657 253 q 601 492 657 433 q 461 550 546 550 q 320 492 375 550 q 265 344 265 435 q 320 197 265 254 q 461 139 375 139 z "},"q":{"ha":906,"x_min":68,"x_max":815,"o":"m 638 -306 l 638 99 q 549 18 604 53 q 407 -17 494 -17 q 233 31 310 -17 q 113 160 157 78 q 68 346 68 242 q 113 531 68 450 q 233 659 157 613 q 407 706 310 706 q 543 676 485 706 q 638 594 601 647 l 657 689 l 815 689 l 815 -306 l 638 -306 m 444 139 q 585 197 531 139 q 640 344 640 254 q 585 492 640 435 q 444 550 531 550 q 304 493 360 550 q 249 346 249 436 q 304 197 249 256 q 444 139 360 139 z "},"r":{"ha":550,"x_min":90,"x_max":519,"o":"m 90 0 l 90 689 l 249 689 l 265 560 q 367 666 303 626 q 519 706 432 706 l 519 518 l 469 518 q 365 500 411 518 q 294 438 319 482 q 268 314 268 393 l 268 0 l 90 0 z "},"ŕ":{"ha":550,"x_min":90,"x_max":576,"o":"m 90 0 l 90 689 l 249 689 l 265 560 q 367 666 303 626 q 519 706 432 706 l 519 518 l 469 518 q 365 500 411 518 q 294 438 319 482 q 268 314 268 393 l 268 0 l 90 0 m 263 744 l 263 869 l 576 1039 l 576 894 l 263 744 z "},"ř":{"ha":550,"x_min":90,"x_max":535,"o":"m 90 0 l 90 689 l 249 689 l 265 560 q 367 666 303 626 q 519 706 432 706 l 519 518 l 469 518 q 365 500 411 518 q 294 438 319 482 q 268 314 268 393 l 268 0 l 90 0 m 332 753 l 129 864 l 129 992 l 332 874 l 535 992 l 535 864 l 332 753 z "},"ŗ":{"ha":550,"x_min":90,"x_max":519,"o":"m 90 0 l 90 689 l 249 689 l 265 560 q 367 666 303 626 q 519 706 432 706 l 519 518 l 469 518 q 365 500 411 518 q 294 438 319 482 q 268 314 268 393 l 268 0 l 90 0 m 113 -381 l 113 -308 q 182 -222 182 -308 l 182 -201 l 106 -201 l 106 -62 l 257 -62 q 272 -133 268 -99 q 276 -196 276 -167 q 235 -333 276 -285 q 113 -381 194 -381 z "},"s":{"ha":729,"x_min":53,"x_max":664,"o":"m 375 -17 q 214 13 283 -17 q 103 96 144 43 q 53 218 61 149 l 232 218 q 277 149 240 178 q 372 121 314 121 q 458 144 431 121 q 485 199 485 168 q 446 259 485 243 q 338 290 407 275 q 247 314 293 300 q 163 349 201 328 q 101 405 125 371 q 78 489 78 439 q 151 643 78 581 q 356 706 224 706 q 551 649 478 706 q 638 492 624 592 l 469 492 q 354 568 454 568 q 277 549 304 568 q 250 500 250 529 q 290 451 250 469 q 397 418 331 433 q 530 381 469 401 q 626 322 590 361 q 663 208 663 282 q 629 93 664 144 q 529 13 594 42 q 375 -17 464 -17 z "},"ś":{"ha":729,"x_min":53,"x_max":664,"o":"m 375 -17 q 214 13 283 -17 q 103 96 144 43 q 53 218 61 149 l 232 218 q 277 149 240 178 q 372 121 314 121 q 458 144 431 121 q 485 199 485 168 q 446 259 485 243 q 338 290 407 275 q 247 314 293 300 q 163 349 201 328 q 101 405 125 371 q 78 489 78 439 q 151 643 78 581 q 356 706 224 706 q 551 649 478 706 q 638 492 624 592 l 469 492 q 354 568 454 568 q 277 549 304 568 q 250 500 250 529 q 290 451 250 469 q 397 418 331 433 q 530 381 469 401 q 626 322 590 361 q 663 208 663 282 q 629 93 664 144 q 529 13 594 42 q 375 -17 464 -17 m 294 744 l 294 869 l 608 1039 l 608 894 l 294 744 z "},"š":{"ha":729,"x_min":53,"x_max":664,"o":"m 375 -17 q 214 13 283 -17 q 103 96 144 43 q 53 218 61 149 l 232 218 q 277 149 240 178 q 372 121 314 121 q 458 144 431 121 q 485 199 485 168 q 446 259 485 243 q 338 290 407 275 q 247 314 293 300 q 163 349 201 328 q 101 405 125 371 q 78 489 78 439 q 151 643 78 581 q 356 706 224 706 q 551 649 478 706 q 638 492 624 592 l 469 492 q 354 568 454 568 q 277 549 304 568 q 250 500 250 529 q 290 451 250 469 q 397 418 331 433 q 530 381 469 401 q 626 322 590 361 q 663 208 663 282 q 629 93 664 144 q 529 13 594 42 q 375 -17 464 -17 m 363 753 l 160 864 l 160 992 l 363 874 l 565 992 l 565 864 l 363 753 z "},"ş":{"ha":729,"x_min":53,"x_max":664,"o":"m 375 -17 q 214 13 283 -17 q 103 96 144 43 q 53 218 61 149 l 232 218 q 277 149 240 178 q 372 121 314 121 q 458 144 431 121 q 485 199 485 168 q 446 259 485 243 q 338 290 407 275 q 247 314 293 300 q 163 349 201 328 q 101 405 125 371 q 78 489 78 439 q 151 643 78 581 q 356 706 224 706 q 551 649 478 706 q 638 492 624 592 l 469 492 q 354 568 454 568 q 277 549 304 568 q 250 500 250 529 q 290 451 250 469 q 397 418 331 433 q 530 381 469 401 q 626 322 590 361 q 663 208 663 282 q 629 93 664 144 q 529 13 594 42 q 375 -17 464 -17 m 244 -368 l 244 -265 l 400 -265 q 474 -215 474 -265 q 400 -167 474 -167 l 315 -167 l 315 7 l 426 7 l 426 -72 q 515 -86 474 -71 q 581 -134 556 -101 q 607 -218 607 -167 q 553 -331 607 -293 q 426 -368 499 -368 l 244 -368 z "},"ș":{"ha":729,"x_min":53,"x_max":664,"o":"m 375 -17 q 214 13 283 -17 q 103 96 144 43 q 53 218 61 149 l 232 218 q 277 149 240 178 q 372 121 314 121 q 458 144 431 121 q 485 199 485 168 q 446 259 485 243 q 338 290 407 275 q 247 314 293 300 q 163 349 201 328 q 101 405 125 371 q 78 489 78 439 q 151 643 78 581 q 356 706 224 706 q 551 649 478 706 q 638 492 624 592 l 469 492 q 354 568 454 568 q 277 549 304 568 q 250 500 250 529 q 290 451 250 469 q 397 418 331 433 q 530 381 469 401 q 626 322 590 361 q 663 208 663 282 q 629 93 664 144 q 529 13 594 42 q 375 -17 464 -17 m 307 -381 l 307 -308 q 375 -222 375 -308 l 375 -201 l 300 -201 l 300 -62 l 451 -62 q 467 -133 461 -99 q 472 -196 472 -167 q 431 -333 472 -285 q 307 -381 389 -381 z "},"ß":{"ha":982,"x_min":92,"x_max":939,"o":"m 658 -14 q 450 53 531 -14 q 356 243 369 121 l 524 243 q 564 152 529 186 q 656 118 599 118 q 737 142 708 118 q 765 210 765 167 q 738 278 765 251 q 636 331 711 304 q 472 410 522 369 q 422 514 422 450 q 440 579 422 553 q 485 624 458 606 q 537 661 511 643 q 581 701 563 679 q 599 754 599 722 q 556 838 599 807 q 443 868 514 868 q 311 822 353 868 q 269 693 269 775 l 269 0 l 92 0 l 92 707 q 134 867 92 797 q 256 977 176 938 q 450 1017 336 1017 q 624 984 551 1017 q 736 896 697 951 q 775 772 775 840 q 758 701 775 731 q 714 651 740 672 q 662 614 688 631 q 619 581 636 597 q 601 542 601 564 q 612 511 601 525 q 653 482 622 497 q 743 446 685 467 q 893 355 847 408 q 939 221 939 301 q 863 51 939 117 q 658 -14 788 -14 z "},"t":{"ha":585,"x_min":40,"x_max":522,"o":"m 397 0 q 224 53 289 0 q 158 240 158 106 l 158 540 l 40 540 l 40 689 l 158 689 l 179 874 l 336 874 l 336 689 l 522 689 l 522 540 l 336 540 l 336 239 q 358 170 336 189 q 432 151 379 151 l 518 151 l 518 0 l 397 0 z "},"ť":{"ha":585,"x_min":40,"x_max":582,"o":"m 417 828 l 417 901 q 486 953 486 901 l 486 978 l 408 978 l 408 1121 l 561 1121 q 577 1051 572 1082 q 582 988 582 1021 q 417 828 582 828 m 397 0 q 224 53 289 0 q 158 240 158 106 l 158 540 l 40 540 l 40 689 l 158 689 l 179 874 l 336 874 l 336 689 l 522 689 l 522 540 l 336 540 l 336 239 q 358 170 336 189 q 432 151 379 151 l 518 151 l 518 0 l 397 0 z "},"ţ":{"ha":585,"x_min":40,"x_max":585,"o":"m 224 -368 l 224 -265 l 378 -265 q 453 -215 453 -265 q 378 -167 453 -167 l 294 -167 l 294 14 q 194 88 231 33 q 158 240 158 142 l 158 540 l 40 540 l 40 689 l 158 689 l 179 874 l 336 874 l 336 689 l 522 689 l 522 540 l 336 540 l 336 239 q 358 170 336 189 q 432 151 379 151 l 518 151 l 518 0 l 406 0 l 406 -72 q 494 -87 453 -72 q 560 -134 535 -101 q 585 -218 585 -167 q 531 -331 585 -294 q 406 -368 478 -368 l 224 -368 z "},"ț":{"ha":585,"x_min":40,"x_max":522,"o":"m 397 0 q 224 53 289 0 q 158 240 158 106 l 158 540 l 40 540 l 40 689 l 158 689 l 179 874 l 336 874 l 336 689 l 522 689 l 522 540 l 336 540 l 336 239 q 358 170 336 189 q 432 151 379 151 l 518 151 l 518 0 l 397 0 m 282 -381 l 282 -308 q 350 -222 350 -308 l 350 -201 l 275 -201 l 275 -62 l 425 -62 q 441 -133 436 -99 q 446 -196 446 -167 q 404 -333 446 -285 q 282 -381 363 -381 z "},"u":{"ha":844,"x_min":79,"x_max":753,"o":"m 349 -17 q 149 64 219 -17 q 79 300 79 144 l 79 689 l 256 689 l 256 317 q 292 181 256 228 q 406 133 328 133 q 527 186 479 133 q 575 333 575 239 l 575 689 l 753 689 l 753 0 l 596 0 l 582 117 q 490 19 550 56 q 349 -17 429 -17 z "},"ú":{"ha":844,"x_min":79,"x_max":753,"o":"m 349 -17 q 149 64 219 -17 q 79 300 79 144 l 79 689 l 256 689 l 256 317 q 292 181 256 228 q 406 133 328 133 q 527 186 479 133 q 575 333 575 239 l 575 689 l 753 689 l 753 0 l 596 0 l 582 117 q 490 19 550 56 q 349 -17 429 -17 m 344 744 l 344 869 l 658 1039 l 658 894 l 344 744 z "},"ŭ":{"ha":844,"x_min":79,"x_max":753,"o":"m 349 -17 q 149 64 219 -17 q 79 300 79 144 l 79 689 l 256 689 l 256 317 q 292 181 256 228 q 406 133 328 133 q 527 186 479 133 q 575 333 575 239 l 575 689 l 753 689 l 753 0 l 596 0 l 582 117 q 490 19 550 56 q 349 -17 429 -17 m 413 757 q 255 814 313 757 q 197 968 197 871 l 197 990 l 292 990 q 319 917 292 943 q 413 890 346 890 q 508 917 481 890 q 535 990 535 943 l 629 990 l 629 967 q 571 814 629 871 q 413 757 513 757 z "},"û":{"ha":844,"x_min":79,"x_max":753,"o":"m 349 -17 q 149 64 219 -17 q 79 300 79 144 l 79 689 l 256 689 l 256 317 q 292 181 256 228 q 406 133 328 133 q 527 186 479 133 q 575 333 575 239 l 575 689 l 753 689 l 753 0 l 596 0 l 582 117 q 490 19 550 56 q 349 -17 429 -17 m 211 754 l 211 882 l 414 993 l 617 882 l 617 754 l 414 868 l 211 754 z "},"ü":{"ha":844,"x_min":79,"x_max":753,"o":"m 349 -17 q 149 64 219 -17 q 79 300 79 144 l 79 689 l 256 689 l 256 317 q 292 181 256 228 q 406 133 328 133 q 527 186 479 133 q 575 333 575 239 l 575 689 l 753 689 l 753 0 l 596 0 l 582 117 q 490 19 550 56 q 349 -17 429 -17 m 539 783 q 478 808 503 783 q 453 869 453 833 q 478 931 453 906 q 539 956 503 956 q 600 931 575 956 q 625 869 625 906 q 600 808 625 833 q 539 783 575 783 m 289 783 q 228 808 253 783 q 203 869 203 833 q 228 931 203 906 q 289 956 253 956 q 350 931 325 956 q 375 869 375 906 q 350 808 375 833 q 289 783 325 783 z "},"ù":{"ha":844,"x_min":79,"x_max":753,"o":"m 349 -17 q 149 64 219 -17 q 79 300 79 144 l 79 689 l 256 689 l 256 317 q 292 181 256 228 q 406 133 328 133 q 527 186 479 133 q 575 333 575 239 l 575 689 l 753 689 l 753 0 l 596 0 l 582 117 q 490 19 550 56 q 349 -17 429 -17 m 483 744 l 169 894 l 169 1039 l 483 869 l 483 744 z "},"ű":{"ha":844,"x_min":79,"x_max":753,"o":"m 349 -17 q 149 64 219 -17 q 79 300 79 144 l 79 689 l 256 689 l 256 317 q 292 181 256 228 q 406 133 328 133 q 527 186 479 133 q 575 333 575 239 l 575 689 l 753 689 l 753 0 l 596 0 l 582 117 q 490 19 550 56 q 349 -17 429 -17 m 460 756 l 572 1004 l 718 1004 l 571 756 l 460 756 m 224 756 l 322 1004 l 467 1004 l 336 756 l 224 756 z "},"ū":{"ha":844,"x_min":79,"x_max":753,"o":"m 349 -17 q 149 64 219 -17 q 79 300 79 144 l 79 689 l 256 689 l 256 317 q 292 181 256 228 q 406 133 328 133 q 527 186 479 133 q 575 333 575 239 l 575 689 l 753 689 l 753 0 l 596 0 l 582 117 q 490 19 550 56 q 349 -17 429 -17 m 153 804 l 153 931 l 672 931 l 672 804 l 153 804 z "},"ų":{"ha":844,"x_min":79,"x_max":761,"o":"m 349 -17 q 149 64 219 -17 q 79 300 79 144 l 79 689 l 256 689 l 256 317 q 292 181 256 228 q 406 133 328 133 q 527 186 479 133 q 575 333 575 239 l 575 689 l 753 689 l 753 0 l 596 0 l 582 117 q 490 19 550 56 q 349 -17 429 -17 m 640 -292 q 510 -257 565 -292 q 456 -147 456 -222 q 497 -42 456 -92 q 650 56 539 8 l 714 83 l 754 0 l 682 -36 q 611 -83 632 -61 q 590 -131 590 -106 q 610 -172 590 -157 q 663 -187 629 -187 q 761 -167 707 -187 l 761 -272 q 703 -286 735 -281 q 640 -292 672 -292 z "},"ů":{"ha":844,"x_min":79,"x_max":753,"o":"m 349 -17 q 149 64 219 -17 q 79 300 79 144 l 79 689 l 256 689 l 256 317 q 292 181 256 228 q 406 133 328 133 q 527 186 479 133 q 575 333 575 239 l 575 689 l 753 689 l 753 0 l 596 0 l 582 117 q 490 19 550 56 q 349 -17 429 -17 m 413 760 q 302 801 349 760 q 256 915 256 843 q 302 1029 256 988 q 413 1071 349 1071 q 526 1029 479 1071 q 572 915 572 988 q 526 801 572 843 q 413 760 479 760 m 413 840 q 465 861 444 840 q 486 915 486 882 q 465 970 486 950 q 413 990 444 990 q 363 970 383 990 q 342 915 342 950 q 363 861 342 882 q 413 840 383 840 z "},"ũ":{"ha":844,"x_min":79,"x_max":753,"o":"m 349 -17 q 149 64 219 -17 q 79 300 79 144 l 79 689 l 256 689 l 256 317 q 292 181 256 228 q 406 133 328 133 q 527 186 479 133 q 575 333 575 239 l 575 689 l 753 689 l 753 0 l 596 0 l 582 117 q 490 19 550 56 q 349 -17 429 -17 m 501 761 q 435 777 463 761 q 383 809 407 793 q 331 825 360 825 q 271 763 281 825 l 176 763 q 233 893 190 851 q 339 935 275 935 q 406 919 378 935 q 457 887 433 903 q 510 871 481 871 q 549 886 533 871 q 569 933 565 901 l 664 933 q 608 803 651 844 q 501 761 564 761 z "},"v":{"ha":768,"x_min":24,"x_max":746,"o":"m 276 0 l 24 689 l 210 689 l 385 168 l 560 689 l 746 689 l 492 0 l 276 0 z "},"w":{"ha":1114,"x_min":24,"x_max":1092,"o":"m 225 0 l 24 689 l 200 689 l 319 193 l 458 689 l 656 689 l 794 193 l 915 689 l 1092 689 l 889 0 l 704 0 l 557 515 l 410 0 l 225 0 z "},"ẃ":{"ha":1114,"x_min":24,"x_max":1092,"o":"m 225 0 l 24 689 l 200 689 l 319 193 l 458 689 l 656 689 l 794 193 l 915 689 l 1092 689 l 889 0 l 704 0 l 557 515 l 410 0 l 225 0 m 488 744 l 488 869 l 801 1039 l 801 894 l 488 744 z "},"ŵ":{"ha":1114,"x_min":24,"x_max":1092,"o":"m 225 0 l 24 689 l 200 689 l 319 193 l 458 689 l 656 689 l 794 193 l 915 689 l 1092 689 l 889 0 l 704 0 l 557 515 l 410 0 l 225 0 m 354 754 l 354 882 l 557 993 l 760 882 l 760 754 l 557 868 l 354 754 z "},"ẅ":{"ha":1114,"x_min":24,"x_max":1092,"o":"m 225 0 l 24 689 l 200 689 l 319 193 l 458 689 l 656 689 l 794 193 l 915 689 l 1092 689 l 889 0 l 704 0 l 557 515 l 410 0 l 225 0 m 682 783 q 621 808 646 783 q 596 869 596 833 q 621 931 596 906 q 682 956 646 956 q 743 931 718 956 q 768 869 768 906 q 743 808 768 833 q 682 783 718 783 m 432 783 q 371 808 396 783 q 346 869 346 833 q 371 931 346 906 q 432 956 396 956 q 493 931 468 956 q 518 869 518 906 q 493 808 518 833 q 432 783 468 783 z "},"ẁ":{"ha":1114,"x_min":24,"x_max":1092,"o":"m 225 0 l 24 689 l 200 689 l 319 193 l 458 689 l 656 689 l 794 193 l 915 689 l 1092 689 l 889 0 l 704 0 l 557 515 l 410 0 l 225 0 m 626 744 l 313 894 l 313 1039 l 626 869 l 626 744 z "},"x":{"ha":779,"x_min":25,"x_max":756,"o":"m 25 0 l 275 344 l 25 689 l 215 689 l 390 444 l 564 689 l 756 689 l 504 344 l 756 0 l 564 0 l 390 244 l 215 0 l 25 0 z "},"y":{"ha":829,"x_min":26,"x_max":803,"o":"m 176 -306 l 336 46 l 294 46 l 26 689 l 219 689 l 413 204 l 614 689 l 803 689 l 365 -306 l 176 -306 z "},"ý":{"ha":829,"x_min":26,"x_max":803,"o":"m 176 -306 l 336 46 l 294 46 l 26 689 l 219 689 l 413 204 l 614 689 l 803 689 l 365 -306 l 176 -306 m 351 744 l 351 869 l 665 1039 l 665 894 l 351 744 z "},"ŷ":{"ha":829,"x_min":26,"x_max":803,"o":"m 176 -306 l 336 46 l 294 46 l 26 689 l 219 689 l 413 204 l 614 689 l 803 689 l 365 -306 l 176 -306 m 217 754 l 217 882 l 419 993 l 622 882 l 622 754 l 419 868 l 217 754 z "},"ÿ":{"ha":829,"x_min":26,"x_max":803,"o":"m 176 -306 l 336 46 l 294 46 l 26 689 l 219 689 l 413 204 l 614 689 l 803 689 l 365 -306 l 176 -306 m 546 783 q 485 808 510 783 q 460 869 460 833 q 485 931 460 906 q 546 956 510 956 q 607 931 582 956 q 632 869 632 906 q 607 808 632 833 q 546 783 582 783 m 296 783 q 235 808 260 783 q 210 869 210 833 q 235 931 210 906 q 296 956 260 956 q 357 931 332 956 q 382 869 382 906 q 357 808 382 833 q 296 783 332 783 z "},"ỳ":{"ha":829,"x_min":26,"x_max":803,"o":"m 176 -306 l 336 46 l 294 46 l 26 689 l 219 689 l 413 204 l 614 689 l 803 689 l 365 -306 l 176 -306 m 490 744 l 176 894 l 176 1039 l 490 869 l 490 744 z "},"ỹ":{"ha":829,"x_min":26,"x_max":803,"o":"m 176 -306 l 336 46 l 294 46 l 26 689 l 219 689 l 413 204 l 614 689 l 803 689 l 365 -306 l 176 -306 m 507 761 q 440 777 468 761 q 389 809 413 793 q 336 825 365 825 q 276 763 286 825 l 182 763 q 238 893 196 851 q 344 935 281 935 q 411 919 383 935 q 463 887 439 903 q 515 871 486 871 q 555 886 539 871 q 575 933 571 901 l 669 933 q 613 803 657 844 q 507 761 569 761 z "},"z":{"ha":665,"x_min":46,"x_max":607,"o":"m 46 0 l 46 143 l 397 542 l 50 542 l 50 689 l 600 689 l 600 546 l 243 147 l 607 147 l 607 0 l 46 0 z "},"ź":{"ha":665,"x_min":46,"x_max":607,"o":"m 46 0 l 46 143 l 397 542 l 50 542 l 50 689 l 600 689 l 600 546 l 243 147 l 607 147 l 607 0 l 46 0 m 261 744 l 261 869 l 575 1039 l 575 894 l 261 744 z "},"ž":{"ha":665,"x_min":46,"x_max":607,"o":"m 46 0 l 46 143 l 397 542 l 50 542 l 50 689 l 600 689 l 600 546 l 243 147 l 607 147 l 607 0 l 46 0 m 331 753 l 128 864 l 128 992 l 331 874 l 533 992 l 533 864 l 331 753 z "},"ż":{"ha":665,"x_min":46,"x_max":607,"o":"m 46 0 l 46 143 l 397 542 l 50 542 l 50 689 l 600 689 l 600 546 l 243 147 l 607 147 l 607 0 l 46 0 m 331 778 q 269 803 294 778 q 244 864 244 828 q 269 925 244 900 q 331 950 294 950 q 392 925 367 950 q 417 864 417 900 q 392 803 417 828 q 331 778 367 778 z "},"ﬁ":{"ha":842,"x_min":28,"x_max":768,"o":"m 122 0 l 122 540 l 28 540 l 28 689 l 122 689 l 122 769 q 185 947 122 894 q 357 1000 249 1000 l 433 1000 l 433 849 l 385 849 q 319 831 339 849 q 300 769 300 813 l 300 689 l 744 689 l 744 0 l 567 0 l 567 540 l 300 540 l 300 0 l 122 0 m 657 788 q 577 817 608 788 q 546 890 546 846 q 577 963 546 935 q 657 992 608 992 q 737 963 706 992 q 768 890 768 935 q 737 817 768 846 q 657 788 706 788 z "},"ﬂ":{"ha":858,"x_min":28,"x_max":768,"o":"m 122 0 l 122 540 l 28 540 l 28 689 l 122 689 l 122 769 q 185 947 122 894 q 357 1000 249 1000 l 433 1000 l 433 849 l 385 849 q 319 831 339 849 q 300 769 300 813 l 300 689 l 449 689 l 449 540 l 300 540 l 300 0 l 122 0 m 589 0 l 589 1000 l 767 1000 l 767 0 l 589 0 z "},"ª":{"ha":638,"x_min":40,"x_max":583,"o":"m 274 483 q 154 515 207 483 q 71 603 101 546 q 40 736 40 660 q 71 869 40 813 q 153 956 101 925 q 271 986 206 986 q 380 962 336 986 q 446 900 424 938 l 458 979 l 583 979 l 583 492 l 458 492 l 446 568 q 381 507 425 531 q 274 483 338 483 m 313 590 q 407 628 368 590 q 446 735 446 667 q 407 841 446 804 q 313 878 368 878 q 221 841 260 878 q 182 735 182 804 q 221 628 182 665 q 313 590 260 590 z "},"º":{"ha":619,"x_min":40,"x_max":579,"o":"m 308 485 q 169 517 229 485 q 74 606 108 549 q 40 738 40 664 q 75 869 40 813 q 170 957 110 925 q 310 989 231 989 q 449 957 389 989 q 544 869 510 925 q 579 738 579 813 q 544 606 579 664 q 449 517 510 549 q 308 485 388 485 m 308 593 q 399 629 360 593 q 439 738 439 665 q 400 847 439 810 q 308 883 361 883 q 219 847 257 883 q 181 738 181 810 q 218 629 181 665 q 308 593 256 593 z "},"π":{"ha":899,"x_min":46,"x_max":853,"o":"m 149 0 l 149 553 l 46 553 l 46 689 l 853 689 l 853 553 l 749 553 l 749 0 l 571 0 l 571 553 l 326 553 l 326 0 l 149 0 z "},"¹":{"ha":324,"x_min":33,"x_max":267,"o":"m 129 489 l 129 849 l 33 826 l 33 911 l 188 978 l 267 978 l 267 489 l 129 489 z "},"²":{"ha":496,"x_min":47,"x_max":444,"o":"m 51 489 l 51 589 l 214 704 q 276 763 253 733 q 300 829 300 792 q 284 874 300 858 q 244 889 268 889 q 182 824 189 889 l 47 824 q 105 942 51 894 q 257 989 158 989 q 397 942 350 989 q 444 838 444 896 q 408 743 444 783 q 296 658 371 703 l 194 596 l 443 596 l 443 489 l 51 489 z "},"³":{"ha":489,"x_min":29,"x_max":449,"o":"m 243 483 q 88 525 140 483 q 29 642 35 567 l 168 642 q 190 595 172 608 q 238 582 208 582 q 285 597 267 582 q 303 642 303 613 q 283 688 303 672 q 229 703 263 703 l 174 703 l 174 771 l 224 771 q 277 786 257 771 q 297 832 297 801 q 280 874 297 858 q 232 889 263 889 q 164 835 175 889 l 35 835 q 91 943 39 897 q 246 989 143 989 q 387 948 332 989 q 442 846 442 907 q 417 774 442 801 q 350 738 393 747 l 350 733 q 422 693 394 721 q 449 619 449 665 q 393 522 449 560 q 243 483 338 483 z "},"⁴":{"ha":481,"x_min":36,"x_max":451,"o":"m 267 489 l 267 575 l 36 575 l 36 665 l 251 972 l 399 972 l 399 668 l 451 668 l 451 575 l 399 575 l 399 489 l 267 489 m 171 668 l 276 668 l 276 828 l 171 668 z "},"⁄":{"ha":696,"x_min":-10,"x_max":713,"o":"m -10 0 l 539 972 l 713 972 l 164 0 l -10 0 z "},"½":{"ha":1039,"x_min":54,"x_max":958,"o":"m 151 489 l 151 849 l 54 826 l 54 911 l 210 978 l 288 978 l 288 489 l 151 489 m 101 0 l 619 972 l 790 972 l 272 0 l 101 0 m 565 -1 l 565 99 l 728 214 q 791 272 768 243 q 814 339 814 301 q 799 383 814 368 q 760 399 783 399 q 697 333 704 399 l 561 333 q 619 451 565 404 q 771 499 672 499 q 911 452 864 499 q 958 347 958 406 q 922 253 958 293 q 810 168 886 213 l 708 106 l 958 106 l 958 -1 l 565 -1 z "},"¼":{"ha":981,"x_min":54,"x_max":938,"o":"m 151 489 l 151 849 l 54 826 l 54 911 l 210 978 l 288 978 l 288 489 l 151 489 m 104 0 l 628 972 l 797 972 l 275 0 l 104 0 m 739 0 l 739 92 l 478 92 l 478 167 l 690 490 l 875 490 l 875 172 l 938 172 l 938 92 l 875 92 l 875 0 l 739 0 m 610 175 l 744 175 l 744 388 l 610 175 z "},"¾":{"ha":1124,"x_min":63,"x_max":1081,"o":"m 278 483 q 121 525 174 483 q 63 642 68 567 l 201 642 q 224 595 206 608 q 271 582 243 582 q 319 597 301 582 q 338 642 338 613 q 317 688 338 672 q 263 703 296 703 l 207 703 l 207 771 l 258 771 q 311 786 292 771 q 331 832 331 801 q 313 874 331 858 q 267 889 296 889 q 199 835 210 889 l 69 835 q 125 943 74 897 q 279 989 176 989 q 422 948 367 989 q 476 846 476 907 q 451 774 476 801 q 383 738 426 747 l 383 733 q 456 693 429 721 q 482 619 482 665 q 426 522 482 560 q 278 483 371 483 m 249 0 l 776 972 l 947 972 l 419 0 l 249 0 m 882 0 l 882 92 l 621 92 l 621 167 l 825 490 l 1019 490 l 1019 172 l 1081 172 l 1081 92 l 1019 92 l 1019 0 l 882 0 m 754 172 l 888 172 l 888 396 l 754 172 z "},".":{"ha":333,"x_min":56,"x_max":278,"o":"m 167 -10 q 87 21 118 -10 q 56 94 56 51 q 87 169 56 139 q 167 200 118 200 q 247 169 215 200 q 278 94 278 139 q 247 21 278 51 q 167 -10 215 -10 z "},",":{"ha":321,"x_min":19,"x_max":271,"o":"m 19 -161 l 99 185 l 271 185 l 136 -161 l 19 -161 z "},":":{"ha":336,"x_min":56,"x_max":278,"o":"m 167 -10 q 87 21 118 -10 q 56 94 56 51 q 87 169 56 139 q 167 200 118 200 q 247 169 215 200 q 278 94 278 139 q 247 21 278 51 q 167 -10 215 -10 m 167 496 q 87 526 118 496 q 56 600 56 557 q 87 675 56 644 q 167 706 118 706 q 247 675 215 706 q 278 600 278 644 q 247 526 278 557 q 167 496 215 496 z "},";":{"ha":369,"x_min":33,"x_max":310,"o":"m 200 496 q 120 526 151 496 q 89 600 89 557 q 120 675 89 644 q 200 706 151 706 q 280 675 249 706 q 311 600 311 644 q 280 526 311 557 q 200 496 249 496 m 33 -161 l 113 185 l 285 185 l 150 -161 l 33 -161 z "},"…":{"ha":924,"x_min":56,"x_max":868,"o":"m 463 -10 q 383 21 414 -10 q 351 94 351 51 q 383 169 351 139 q 463 200 414 200 q 542 169 511 200 q 574 94 574 139 q 542 21 574 51 q 463 -10 511 -10 m 758 -10 q 678 21 710 -10 q 647 94 647 51 q 678 169 647 139 q 758 200 710 200 q 838 169 807 200 q 869 94 869 139 q 838 21 869 51 q 758 -10 807 -10 m 167 -10 q 87 21 118 -10 q 56 94 56 51 q 87 169 56 139 q 167 200 118 200 q 247 169 215 200 q 278 94 278 139 q 247 21 278 51 q 167 -10 215 -10 z "},"!":{"ha":411,"x_min":94,"x_max":317,"o":"m 128 307 l 108 972 l 299 972 l 278 307 l 128 307 m 207 -10 q 126 21 157 -10 q 94 94 94 51 q 126 169 94 139 q 207 200 157 200 q 285 169 254 200 q 317 94 317 139 q 285 21 317 51 q 207 -10 254 -10 z "},"¡":{"ha":411,"x_min":94,"x_max":317,"o":"m 207 579 q 126 609 157 579 q 94 683 94 639 q 126 758 94 728 q 207 788 157 788 q 285 758 254 788 q 317 683 317 728 q 285 609 317 639 q 207 579 254 579 m 108 -193 l 128 471 l 278 471 l 299 -193 l 108 -193 z "},"?":{"ha":732,"x_min":42,"x_max":678,"o":"m 190 303 l 185 532 l 249 532 q 378 544 319 532 q 471 593 436 557 q 506 699 506 629 q 465 803 506 765 q 358 842 425 842 q 250 803 289 842 q 211 700 211 765 l 43 700 q 79 849 42 783 q 188 951 117 914 q 360 989 260 989 q 524 954 453 989 q 637 855 596 919 q 678 697 678 790 q 635 539 678 601 q 520 446 593 476 q 351 414 447 415 l 347 303 l 190 303 m 269 -10 q 190 21 221 -10 q 158 94 158 51 q 190 169 158 139 q 269 200 221 200 q 349 169 318 200 q 379 94 379 139 q 349 21 379 51 q 269 -10 318 -10 z "},"¿":{"ha":732,"x_min":54,"x_max":690,"o":"m 463 572 q 383 603 414 572 q 351 678 351 633 q 383 751 351 721 q 463 782 414 782 q 542 751 511 782 q 574 678 574 721 q 542 603 574 633 q 463 572 511 572 m 372 -217 q 206 -182 278 -217 q 94 -82 135 -147 q 54 75 54 -17 q 96 233 54 171 q 211 327 138 296 q 379 358 285 358 l 385 471 l 542 471 l 547 240 l 483 240 q 354 228 413 240 q 261 180 296 215 q 226 75 226 144 q 267 -31 226 8 q 374 -69 307 -69 q 482 -31 443 -69 q 521 74 521 8 l 689 74 q 653 -76 690 -11 q 544 -179 615 -142 q 372 -217 472 -217 z "},"·":{"ha":333,"x_min":56,"x_max":278,"o":"m 167 351 q 87 382 118 351 q 56 456 56 413 q 87 531 56 500 q 167 561 118 561 q 247 531 215 561 q 278 456 278 500 q 247 382 278 413 q 167 351 215 351 z "},"•":{"ha":528,"x_min":75,"x_max":451,"o":"m 263 275 q 169 300 211 275 q 101 367 126 325 q 75 463 75 410 q 101 558 75 515 q 169 626 126 601 q 263 651 211 651 q 359 626 317 651 q 426 558 401 601 q 451 463 451 515 q 426 367 451 410 q 359 300 401 325 q 263 275 317 275 z "},"*":{"ha":703,"x_min":94,"x_max":613,"o":"m 290 500 l 317 696 l 161 574 l 94 692 l 276 764 l 96 833 l 158 946 l 318 825 l 290 1024 l 419 1024 l 392 825 l 550 946 l 611 835 l 431 763 l 613 690 l 547 575 l 392 696 l 418 500 l 290 500 z "},"#":{"ha":1194,"x_min":46,"x_max":1138,"o":"m 194 0 l 246 243 l 46 243 l 46 403 l 281 403 l 324 606 l 119 606 l 119 765 l 358 765 l 410 1004 l 576 1004 l 525 765 l 789 765 l 840 1004 l 1007 1004 l 957 765 l 1138 765 l 1138 606 l 922 606 l 879 403 l 1064 403 l 1064 243 l 844 243 l 793 0 l 625 0 l 678 243 l 414 243 l 363 0 l 194 0 m 447 403 l 711 403 l 756 606 l 492 606 l 447 403 z "},"/":{"ha":585,"x_min":32,"x_max":553,"o":"m 32 -154 l 379 1079 l 553 1079 l 204 -154 l 32 -154 z "},"\\":{"ha":585,"x_min":32,"x_max":553,"o":"m 379 -154 l 32 1079 l 206 1079 l 553 -154 l 379 -154 z "},"(":{"ha":554,"x_min":63,"x_max":510,"o":"m 332 -201 q 194 -22 254 -124 q 98 203 133 81 q 63 463 63 325 q 98 722 63 600 q 194 947 133 844 q 332 1126 254 1049 l 510 1126 l 510 1110 q 311 812 385 978 q 238 463 238 646 q 311 113 238 279 q 510 -185 385 -53 l 510 -201 l 332 -201 z "},")":{"ha":554,"x_min":44,"x_max":492,"o":"m 44 -201 l 44 -185 q 243 113 169 -53 q 317 463 317 279 q 243 812 317 646 q 44 1110 169 978 l 44 1126 l 222 1126 q 360 947 300 1049 q 456 722 421 844 q 492 463 492 600 q 456 203 492 325 q 360 -22 421 81 q 222 -201 300 -124 l 44 -201 z "},"{":{"ha":642,"x_min":124,"x_max":557,"o":"m 469 -240 q 297 -182 363 -240 q 232 -10 232 -124 q 239 75 232 36 q 253 153 246 114 q 261 242 261 193 q 231 326 261 289 q 124 372 201 363 l 124 515 q 231 560 201 525 q 261 646 261 596 q 253 733 261 693 q 239 811 246 772 q 232 897 232 850 q 297 1068 232 1010 q 469 1126 363 1126 l 557 1126 l 557 979 l 503 979 q 403 881 403 979 q 416 772 403 826 q 429 639 429 717 q 393 513 429 565 q 278 444 357 461 l 278 442 q 393 373 357 425 q 429 247 429 321 q 416 115 429 169 q 403 6 403 60 q 503 -93 403 -93 l 557 -93 l 557 -240 l 469 -240 z "},"}":{"ha":642,"x_min":86,"x_max":519,"o":"m 86 -240 l 86 -93 l 139 -93 q 240 6 240 -93 q 226 115 240 60 q 213 247 213 169 q 249 373 213 321 q 365 442 285 425 l 365 444 q 249 513 285 461 q 213 639 213 565 q 226 772 213 717 q 240 881 240 826 q 139 979 240 979 l 86 979 l 86 1126 l 172 1126 q 345 1068 279 1126 q 411 897 411 1010 q 403 811 411 850 q 388 733 396 772 q 381 646 381 693 q 411 560 381 596 q 519 515 442 525 l 519 372 q 411 326 442 363 q 381 242 381 289 q 388 153 381 193 q 403 75 396 114 q 411 -10 411 36 q 345 -182 411 -124 q 172 -240 279 -240 l 86 -240 z "},"[":{"ha":500,"x_min":94,"x_max":425,"o":"m 94 -236 l 94 1126 l 425 1126 l 425 982 l 261 982 l 261 -90 l 425 -90 l 425 -236 l 94 -236 z "},"]":{"ha":500,"x_min":75,"x_max":406,"o":"m 75 -236 l 75 -90 l 239 -90 l 239 982 l 75 982 l 75 1126 l 406 1126 l 406 -236 l 75 -236 z "},"-":{"ha":732,"x_min":75,"x_max":657,"o":"m 75 328 l 75 476 l 657 476 l 657 328 l 75 328 z "},"­":{"ha":833,"x_min":75,"x_max":657,"o":"m 75 328 l 75 476 l 657 476 l 657 328 l 75 328 z "},"–":{"ha":900,"x_min":75,"x_max":825,"o":"m 75 328 l 75 476 l 825 476 l 825 328 l 75 328 z "},"—":{"ha":1206,"x_min":75,"x_max":1131,"o":"m 75 328 l 75 476 l 1131 476 l 1131 328 l 75 328 z "},"_":{"ha":946,"x_min":75,"x_max":871,"o":"m 75 -222 l 75 -53 l 871 -53 l 871 -222 l 75 -222 z "},"‚":{"ha":333,"x_min":19,"x_max":283,"o":"m 19 -157 l 96 185 l 283 185 l 142 -157 l 19 -157 z "},"„":{"ha":600,"x_min":19,"x_max":550,"o":"m 19 -157 l 96 185 l 283 185 l 142 -157 l 19 -157 m 288 -157 l 364 185 l 550 185 l 410 -157 l 288 -157 z "},"“":{"ha":633,"x_min":46,"x_max":576,"o":"m 46 631 l 188 972 l 308 972 l 233 631 l 46 631 m 314 631 l 456 972 l 576 972 l 500 631 l 314 631 z "},"”":{"ha":633,"x_min":57,"x_max":588,"o":"m 324 632 l 400 974 l 588 974 l 446 632 l 324 632 m 57 632 l 133 974 l 321 974 l 179 632 l 57 632 z "},"‘":{"ha":367,"x_min":46,"x_max":308,"o":"m 46 631 l 188 972 l 308 972 l 233 631 l 46 631 z "},"’":{"ha":367,"x_min":57,"x_max":321,"o":"m 57 631 l 133 972 l 321 972 l 179 631 l 57 631 z "},"«":{"ha":701,"x_min":58,"x_max":632,"o":"m 464 167 l 339 410 l 464 653 l 632 653 l 503 410 l 632 167 l 464 167 m 185 167 l 58 410 l 185 653 l 351 653 l 222 410 l 351 167 l 185 167 z "},"»":{"ha":701,"x_min":69,"x_max":643,"o":"m 350 167 l 479 410 l 350 653 l 518 653 l 643 410 l 518 167 l 350 167 m 69 167 l 199 410 l 69 653 l 238 653 l 363 410 l 238 167 l 69 167 z "},"‹":{"ha":421,"x_min":58,"x_max":351,"o":"m 185 167 l 58 410 l 185 653 l 351 653 l 222 410 l 351 167 l 185 167 z "},"›":{"ha":421,"x_min":69,"x_max":363,"o":"m 69 167 l 199 410 l 69 653 l 238 653 l 363 410 l 238 167 l 69 167 z "},"\"":{"ha":483,"x_min":54,"x_max":429,"o":"m 293 758 l 276 1049 l 429 1049 l 414 758 l 293 758 m 69 758 l 54 1049 l 207 1049 l 190 758 l 69 758 z "},"'":{"ha":263,"x_min":54,"x_max":210,"o":"m 71 758 l 54 1049 l 210 1049 l 192 758 l 71 758 z "}," ":{"ha":331,"x_min":0,"x_max":0,"o":""}," ":{"ha":331,"x_min":0,"x_max":0,"o":""},"\r":{"ha":833,"x_min":0,"x_max":0,"o":""},"¢":{"ha":833,"x_min":68,"x_max":765,"o":"m 343 -144 l 343 -8 q 199 58 261 10 q 103 180 138 107 q 68 344 68 253 q 103 508 68 435 q 199 631 138 582 q 343 697 261 679 l 343 833 l 507 833 l 507 699 q 676 614 608 679 q 765 447 744 549 l 578 447 q 523 526 564 497 q 426 554 482 554 q 301 499 353 554 q 250 344 250 443 q 301 190 250 246 q 426 135 353 135 q 523 163 482 135 q 578 242 564 190 l 765 242 q 676 76 744 143 q 507 -10 608 10 l 507 -144 l 343 -144 z "},"¤":{"ha":771,"x_min":88,"x_max":683,"o":"m 160 113 l 88 186 l 167 265 q 121 414 121 326 q 168 563 121 500 l 88 644 l 160 717 l 247 629 q 388 660 308 660 q 525 629 464 660 l 611 717 l 683 644 l 604 564 q 653 414 653 501 q 606 264 653 326 l 683 186 l 611 113 l 526 197 q 386 165 464 165 q 244 197 306 165 l 160 113 m 386 279 q 467 310 429 279 q 504 413 504 342 q 467 515 504 483 q 386 547 431 547 q 305 515 340 547 q 269 413 269 483 q 305 310 269 342 q 386 279 340 279 z "},"$":{"ha":829,"x_min":60,"x_max":768,"o":"m 367 -121 l 367 -14 q 147 81 232 1 q 60 293 63 160 l 247 293 q 281 196 250 238 q 367 139 313 154 l 367 432 q 341 440 354 436 q 314 449 328 444 q 142 549 201 488 q 83 711 83 610 q 161 903 82 831 q 367 988 240 976 l 367 1100 l 460 1100 l 460 986 q 662 899 585 974 q 743 708 739 825 l 553 708 q 527 783 551 749 q 460 831 503 817 l 460 572 q 482 565 471 568 q 504 557 493 561 q 636 499 576 532 q 732 410 696 465 q 768 269 768 356 q 733 135 768 197 q 628 31 697 72 q 460 -15 560 -10 l 460 -121 l 367 -121 m 269 724 q 296 652 269 679 q 367 606 322 625 l 367 836 q 297 799 324 828 q 269 724 269 769 m 579 257 q 546 344 579 313 q 460 399 513 376 l 460 135 q 547 175 515 143 q 579 257 579 207 z "},"€":{"ha":1097,"x_min":29,"x_max":1033,"o":"m 29 329 l 29 435 l 138 435 q 135 485 135 460 q 138 536 135 511 l 29 536 l 29 643 l 154 643 q 310 894 193 800 q 607 989 428 989 q 894 902 782 989 q 1033 658 1006 815 l 838 658 q 760 783 819 738 q 606 828 701 828 q 440 779 507 828 q 340 643 372 731 l 629 643 l 629 536 l 318 536 q 317 485 317 511 q 318 435 317 458 l 629 435 l 629 329 l 340 329 q 439 192 371 240 q 606 143 507 143 q 760 185 701 143 q 838 303 819 228 l 1033 303 q 894 68 1006 153 q 607 -17 782 -17 q 310 77 428 -17 q 153 329 192 171 l 29 329 z "},"ƒ":{"ha":464,"x_min":-75,"x_max":474,"o":"m -75 -318 l -60 -168 l -26 -168 q 22 -151 6 -168 q 44 -94 39 -135 l 119 621 l 33 621 l 47 768 l 136 768 l 140 817 q 236 1013 154 951 q 474 1075 318 1075 l 458 925 q 358 901 392 925 q 318 817 324 876 l 314 768 l 451 768 l 438 621 l 297 621 l 222 -94 q 140 -269 208 -219 q -37 -318 71 -318 l -75 -318 z "},"₽":{"ha":900,"x_min":40,"x_max":857,"o":"m 40 144 l 40 282 l 165 282 l 165 393 l 40 393 l 40 532 l 165 532 l 165 974 l 511 974 q 705 935 628 974 q 819 831 782 897 q 857 683 857 765 q 821 538 857 604 q 708 433 785 472 q 511 393 632 393 l 343 393 l 343 282 l 606 282 l 606 144 l 343 144 l 343 0 l 165 0 l 165 144 l 40 144 m 506 836 l 343 836 l 343 532 l 506 532 q 635 574 594 532 q 676 683 676 615 q 636 794 676 753 q 506 836 596 836 z "},"₨":{"ha":1585,"x_min":97,"x_max":1497,"o":"m 97 0 l 97 974 l 450 974 q 644 934 567 974 q 758 827 721 894 q 796 678 796 760 q 738 500 796 578 q 556 397 681 422 l 806 0 l 600 0 l 365 386 l 275 386 l 275 0 l 97 0 m 275 517 l 443 517 q 574 558 533 517 q 614 671 614 600 q 574 785 614 743 q 443 828 533 828 l 275 828 l 275 517 m 1206 -11 q 976 54 1065 -11 q 874 242 888 119 l 1051 242 q 1098 156 1057 188 q 1206 125 1139 125 q 1299 151 1267 125 q 1331 219 1331 178 q 1297 283 1331 261 q 1212 317 1264 306 q 1101 342 1160 329 q 991 376 1043 354 q 906 438 939 397 q 874 550 874 479 q 908 665 874 613 q 1010 748 943 717 q 1172 779 1078 779 q 1394 710 1313 779 q 1489 526 1476 640 l 1311 526 q 1267 611 1304 579 q 1165 643 1229 643 q 1072 617 1106 643 q 1039 550 1039 590 q 1072 487 1039 508 q 1158 453 1106 465 q 1268 429 1210 442 q 1378 394 1326 417 q 1464 329 1431 371 q 1497 215 1497 288 q 1461 99 1497 150 q 1360 18 1425 47 q 1206 -11 1294 -11 z "},"£":{"ha":863,"x_min":56,"x_max":785,"o":"m 106 0 l 106 104 q 189 216 160 158 q 218 365 218 274 q 214 414 218 389 l 56 414 l 56 536 l 175 536 q 153 611 163 572 q 144 693 144 650 q 184 851 144 785 q 295 953 224 918 q 460 989 367 989 q 635 949 565 989 q 740 840 704 908 q 781 689 776 772 l 617 689 q 575 798 614 754 q 463 842 536 842 q 357 804 401 842 q 313 688 313 767 q 324 613 313 651 q 349 536 335 575 l 608 536 l 608 414 l 382 414 q 386 365 386 389 q 364 250 386 308 q 290 142 342 192 l 785 142 l 785 0 l 106 0 z "},"¥":{"ha":890,"x_min":29,"x_max":861,"o":"m 79 208 l 79 331 l 357 331 l 357 346 l 310 436 l 79 436 l 79 558 l 246 558 l 29 972 l 231 972 l 446 508 l 661 972 l 861 972 l 646 558 l 813 558 l 813 436 l 582 435 l 535 346 l 535 331 l 813 331 l 813 208 l 535 208 l 535 0 l 357 0 l 357 208 l 79 208 z "},"∕":{"ha":585,"x_min":32,"x_max":553,"o":"m 32 -154 l 379 1079 l 553 1079 l 204 -154 l 32 -154 z "},"+":{"ha":829,"x_min":78,"x_max":750,"o":"m 78 328 l 78 476 l 339 476 l 339 717 l 490 717 l 490 476 l 750 476 l 750 328 l 490 328 l 490 88 l 339 88 l 339 328 l 78 328 z "},"−":{"ha":738,"x_min":78,"x_max":660,"o":"m 78 328 l 78 476 l 660 476 l 660 328 l 78 328 z "},"×":{"ha":714,"x_min":78,"x_max":635,"o":"m 183 124 l 78 228 l 251 403 l 82 572 l 188 678 l 357 507 l 531 682 l 635 576 l 461 403 l 632 232 l 526 128 l 357 299 l 183 124 z "},"÷":{"ha":750,"x_min":76,"x_max":674,"o":"m 375 544 q 295 575 326 544 q 264 649 264 606 q 295 723 264 693 q 375 753 326 753 q 455 723 424 753 q 486 649 486 693 q 455 575 486 606 q 375 544 424 544 m 76 328 l 76 476 l 674 476 l 674 328 l 76 328 m 375 51 q 295 82 326 51 q 264 156 264 113 q 295 231 264 200 q 375 261 326 261 q 455 231 424 261 q 486 156 486 200 q 455 82 486 113 q 375 51 424 51 z "},"=":{"ha":753,"x_min":82,"x_max":671,"o":"m 82 479 l 82 635 l 671 635 l 671 479 l 82 479 m 82 171 l 82 326 l 671 326 l 671 171 l 82 171 z "},"≠":{"ha":753,"x_min":82,"x_max":671,"o":"m 135 78 l 185 171 l 82 171 l 82 326 l 267 326 l 346 478 l 82 478 l 82 633 l 428 633 l 478 726 l 617 726 l 568 633 l 671 633 l 671 478 l 486 478 l 406 326 l 671 326 l 671 171 l 325 171 l 275 78 l 135 78 z "},">":{"ha":724,"x_min":97,"x_max":632,"o":"m 97 185 l 408 499 l 97 811 l 321 811 l 632 499 l 321 185 l 97 185 z "},"<":{"ha":724,"x_min":92,"x_max":626,"o":"m 401 185 l 92 499 l 401 811 l 626 811 l 314 499 l 626 185 l 401 185 z "},"≥":{"ha":694,"x_min":79,"x_max":617,"o":"m 79 288 l 388 550 l 79 811 l 304 811 l 617 549 l 304 288 l 79 288 m 81 61 l 81 197 l 600 197 l 600 61 l 81 61 z "},"≤":{"ha":694,"x_min":78,"x_max":615,"o":"m 389 288 l 78 549 l 389 811 l 615 811 l 306 550 l 615 288 l 389 288 m 93 61 l 93 197 l 613 197 l 613 61 l 93 61 z "},"±":{"ha":857,"x_min":86,"x_max":771,"o":"m 86 392 l 86 540 l 353 540 l 353 717 l 504 717 l 504 540 l 771 540 l 771 392 l 504 392 l 504 214 l 353 214 l 353 392 l 86 392 m 86 0 l 86 156 l 771 156 l 771 0 l 86 0 z "},"≈":{"ha":796,"x_min":44,"x_max":751,"o":"m 518 121 q 443 135 476 121 q 381 168 410 150 q 325 200 353 186 q 267 214 297 214 q 176 122 190 214 l 44 122 q 128 312 67 253 q 276 371 189 371 q 353 357 319 371 q 416 325 388 343 q 472 293 444 307 q 529 279 500 279 q 589 303 565 279 q 618 371 613 326 l 751 371 q 669 181 731 240 q 518 121 608 121 m 518 438 q 443 452 476 438 q 381 485 410 467 q 325 517 353 503 q 267 531 297 531 q 176 439 190 531 l 44 439 q 128 628 67 569 q 276 688 189 688 q 353 674 319 688 q 416 642 388 660 q 472 610 444 624 q 529 596 500 596 q 589 619 565 596 q 618 688 613 643 l 751 688 q 669 497 731 557 q 518 438 608 438 z "},"~":{"ha":796,"x_min":44,"x_max":751,"o":"m 518 317 q 443 331 476 317 q 381 364 410 346 q 325 396 353 382 q 267 410 297 410 q 176 318 190 410 l 44 318 q 128 508 67 449 q 276 567 189 567 q 353 553 319 567 q 416 521 388 539 q 472 489 444 503 q 529 475 500 475 q 589 499 565 475 q 618 567 613 522 l 751 567 q 669 376 731 436 q 518 317 608 317 z "},"¬":{"ha":957,"x_min":64,"x_max":888,"o":"m 710 279 l 710 469 l 64 469 l 64 607 l 888 607 l 888 279 l 710 279 z "},"^":{"ha":924,"x_min":46,"x_max":878,"o":"m 46 236 l 378 972 l 547 972 l 878 236 l 697 236 l 463 763 l 226 236 l 46 236 z "},"∞":{"ha":1028,"x_min":46,"x_max":982,"o":"m 272 178 q 110 235 175 178 q 46 396 46 293 q 77 518 46 468 q 160 594 108 568 q 276 621 213 621 q 418 581 361 621 q 518 486 475 540 q 614 583 554 544 q 756 621 674 621 q 917 563 853 621 q 982 403 982 506 q 951 281 982 331 q 867 204 919 231 q 749 178 814 178 q 609 216 667 178 q 507 306 551 254 q 410 215 469 251 q 272 178 351 178 m 189 399 q 216 326 189 351 q 286 300 243 300 q 369 324 331 300 q 436 392 408 349 q 365 468 400 436 q 283 500 329 500 q 216 473 243 500 q 189 399 189 446 m 742 499 q 655 472 696 499 q 586 397 614 444 q 655 328 619 357 q 738 299 690 299 q 811 326 783 299 q 839 400 839 353 q 812 473 839 447 q 742 499 785 499 z "},"∫":{"ha":382,"x_min":-61,"x_max":450,"o":"m -61 -318 l -46 -168 l -19 -168 q 25 -151 11 -168 q 43 -94 39 -135 l 168 1069 q 249 1242 181 1194 q 422 1290 318 1290 l 450 1290 l 435 1139 l 410 1139 q 366 1123 382 1139 q 346 1069 350 1107 l 221 -94 q 140 -269 207 -219 q -33 -318 74 -318 l -61 -318 z "},"Ω":{"ha":1094,"x_min":54,"x_max":1042,"o":"m 67 0 l 67 136 l 229 136 q 97 296 139 200 q 54 504 54 392 q 92 703 54 614 q 198 857 131 793 q 355 955 265 921 q 547 989 444 989 q 740 955 650 989 q 898 857 831 921 q 1003 703 965 793 q 1042 504 1042 614 q 999 296 1042 392 q 865 136 957 200 l 1028 136 l 1028 0 l 650 0 l 650 142 q 802 271 743 182 q 861 486 861 360 q 821 668 861 592 q 710 785 781 744 q 547 826 639 826 q 385 785 456 826 q 274 667 314 743 q 235 486 235 592 q 294 271 235 360 q 444 142 353 182 l 444 0 l 67 0 z "},"∆":{"ha":988,"x_min":32,"x_max":956,"o":"m 32 0 l 32 136 l 421 972 l 567 972 l 956 136 l 956 0 l 32 0 m 214 136 l 774 136 l 493 771 l 214 136 z "},"∏":{"ha":1022,"x_min":40,"x_max":983,"o":"m 143 0 l 143 836 l 40 836 l 40 972 l 983 972 l 983 836 l 879 836 l 879 0 l 701 0 l 701 836 l 321 836 l 321 0 l 143 0 z "},"∑":{"ha":685,"x_min":60,"x_max":650,"o":"m 60 -69 l 61 138 l 406 458 l 61 767 l 63 972 l 650 972 l 650 836 l 204 836 l 572 524 l 572 394 l 211 67 l 649 67 l 649 -69 l 60 -69 z "},"√":{"ha":1086,"x_min":26,"x_max":1160,"o":"m 368 -58 l 179 275 l 78 217 l 26 303 l 282 453 l 454 147 l 1046 1229 l 1160 1229 l 454 -58 l 368 -58 z "},"µ":{"ha":857,"x_min":90,"x_max":765,"o":"m 90 -306 l 90 689 l 268 689 l 268 317 q 305 181 268 228 q 418 133 342 133 q 540 186 493 133 q 588 333 588 239 l 588 689 l 765 689 l 765 0 l 610 0 l 596 117 q 503 19 563 56 q 361 -17 443 -17 q 268 6 306 -17 l 268 -306 l 90 -306 z "},"∂":{"ha":821,"x_min":51,"x_max":771,"o":"m 349 -11 q 200 25 268 -11 q 92 136 132 61 q 51 326 51 211 q 79 502 51 421 q 158 645 107 583 q 276 742 208 707 q 425 776 344 776 q 526 753 481 776 q 597 668 571 729 q 569 801 592 743 q 500 892 546 858 q 382 925 454 925 q 281 911 338 925 l 281 1007 q 357 1023 321 1018 q 428 1028 393 1028 q 682 906 593 1028 q 771 568 771 785 q 717 258 771 388 q 567 58 663 128 q 349 -11 472 -11 m 367 140 q 476 182 429 140 q 549 293 524 224 q 575 446 575 363 q 538 583 575 539 q 438 628 500 628 q 329 588 376 628 q 256 481 282 549 q 231 328 231 413 q 270 185 231 229 q 367 140 310 140 z "},"%":{"ha":1211,"x_min":56,"x_max":1156,"o":"m 294 494 q 174 524 228 494 q 88 610 119 554 q 56 742 56 665 q 88 874 56 818 q 174 959 119 929 q 296 989 228 989 q 416 959 363 989 q 501 874 469 929 q 533 742 533 818 q 501 610 533 665 q 415 524 469 554 q 294 494 361 494 m 242 0 l 790 972 l 964 972 l 415 0 l 242 0 m 294 618 q 364 649 335 618 q 393 742 393 681 q 365 835 393 803 q 294 867 336 867 q 224 835 253 867 q 196 742 196 803 q 224 649 196 681 q 294 618 253 618 m 917 -17 q 796 13 850 -17 q 710 99 742 43 q 678 231 678 154 q 710 362 678 307 q 796 447 742 417 q 918 476 850 476 q 1038 447 985 476 q 1124 362 1092 417 q 1156 231 1156 307 q 1124 99 1156 154 q 1038 13 1092 43 q 917 -17 985 -17 m 917 107 q 987 138 958 107 q 1015 231 1015 169 q 987 324 1015 292 q 917 356 958 356 q 847 324 875 356 q 818 231 818 292 q 847 138 818 169 q 917 107 875 107 z "},"‰":{"ha":1731,"x_min":56,"x_max":1675,"o":"m 294 494 q 174 524 228 494 q 88 610 119 554 q 56 742 56 665 q 88 874 56 818 q 174 959 119 929 q 296 989 228 989 q 416 959 363 989 q 501 874 469 929 q 533 742 533 818 q 501 610 533 665 q 415 524 469 554 q 294 494 361 494 m 242 0 l 790 972 l 964 972 l 415 0 l 242 0 m 294 617 q 365 649 336 617 q 393 742 393 681 q 365 836 393 804 q 294 868 336 868 q 224 836 253 868 q 194 742 194 804 q 223 649 194 681 q 294 617 251 617 m 917 -17 q 796 13 850 -17 q 710 99 742 43 q 678 231 678 154 q 710 362 678 307 q 796 447 742 417 q 918 476 850 476 q 1038 447 985 476 q 1124 362 1092 417 q 1156 231 1156 307 q 1124 99 1156 154 q 1038 13 1092 43 q 917 -17 985 -17 m 1436 -17 q 1315 13 1369 -17 q 1229 99 1261 43 q 1197 231 1197 154 q 1229 362 1197 307 q 1316 447 1261 417 q 1438 476 1371 476 q 1558 447 1504 476 q 1644 362 1613 417 q 1675 231 1675 307 q 1643 99 1675 154 q 1558 13 1611 43 q 1436 -17 1504 -17 m 917 106 q 988 138 958 106 q 1017 231 1017 169 q 988 324 1017 292 q 917 357 958 357 q 846 324 875 357 q 817 231 817 292 q 846 138 817 169 q 917 106 875 106 m 1436 106 q 1507 138 1478 106 q 1536 231 1536 169 q 1507 324 1536 292 q 1436 357 1478 357 q 1366 324 1394 357 q 1338 231 1338 292 q 1366 138 1338 169 q 1436 106 1394 106 z "},"◊":{"ha":776,"x_min":40,"x_max":738,"o":"m 389 139 l 40 488 l 389 836 l 738 488 l 389 139 m 389 317 l 558 488 l 389 658 l 219 488 l 389 317 z "},"@":{"ha":1454,"x_min":103,"x_max":1351,"o":"m 615 -294 q 346 -235 461 -294 q 167 -69 231 -176 q 103 186 103 39 q 157 472 103 340 q 309 702 211 604 q 539 854 407 800 q 828 908 671 908 q 1106 848 989 908 q 1288 679 1224 788 q 1351 429 1351 571 q 1330 267 1351 346 q 1267 127 1308 189 q 1166 29 1226 65 q 1028 -7 1106 -7 q 913 25 956 -7 q 858 113 869 57 q 755 23 818 56 q 619 -10 692 -10 q 456 53 514 -10 q 397 225 397 117 q 421 370 397 300 q 488 495 444 440 q 592 582 532 550 q 725 614 653 614 q 894 515 854 614 l 910 601 l 1056 601 l 990 229 q 994 142 982 175 q 1053 110 1006 110 q 1123 138 1093 110 q 1173 213 1153 167 q 1203 315 1193 260 q 1214 422 1214 369 q 1107 690 1214 592 q 810 788 1000 788 q 583 742 686 788 q 402 617 479 697 q 283 430 325 536 q 240 201 240 324 q 346 -74 240 24 q 638 -172 451 -172 q 762 -160 700 -172 q 875 -124 824 -147 l 904 -239 q 615 -294 774 -294 m 675 121 q 767 149 725 121 q 835 224 808 176 q 864 332 861 272 q 837 440 868 396 q 739 485 806 485 q 642 451 683 485 q 576 366 600 418 q 553 254 553 314 q 584 158 553 194 q 675 121 615 121 z "},"&":{"ha":1072,"x_min":53,"x_max":1053,"o":"m 406 -15 q 219 22 299 -15 q 97 125 140 58 q 53 281 53 192 q 106 451 53 375 q 263 574 158 528 q 203 665 221 622 q 185 757 185 708 q 218 876 185 824 q 313 958 251 928 q 461 989 375 989 q 610 957 549 989 q 702 871 671 925 q 731 750 733 817 l 561 750 q 531 827 561 801 q 460 853 501 853 q 384 826 413 853 q 356 758 356 800 q 378 688 356 724 q 443 604 400 651 l 715 335 q 776 444 744 382 l 807 506 l 989 506 l 940 411 q 829 221 885 299 l 1053 0 l 840 0 l 732 108 q 581 14 661 43 q 406 -15 501 -15 m 225 292 q 276 177 225 224 q 411 131 326 131 q 621 217 532 131 l 364 471 q 259 394 293 440 q 225 292 225 349 z "},"¶":{"ha":890,"x_min":43,"x_max":796,"o":"m 396 -139 l 396 393 l 372 393 q 185 433 257 393 q 78 538 113 472 q 43 682 43 604 q 78 826 43 760 q 185 932 113 892 q 372 972 258 972 l 796 972 l 796 -139 l 646 -139 l 646 836 l 546 836 l 546 -139 l 396 -139 z "},"§":{"ha":846,"x_min":60,"x_max":785,"o":"m 418 -322 q 246 -287 319 -322 q 130 -190 172 -253 q 85 -42 88 -128 l 275 -42 q 315 -133 276 -93 q 421 -172 353 -172 q 518 -144 479 -174 q 557 -57 557 -114 q 527 18 557 -8 q 444 62 497 44 q 324 101 390 79 q 191 162 251 126 q 95 252 131 197 q 60 389 60 307 q 138 579 60 501 q 100 711 100 633 q 141 859 99 797 q 257 955 183 921 q 426 989 331 989 q 598 954 524 989 q 715 857 672 919 q 760 708 757 794 l 569 708 q 530 799 568 760 q 424 839 492 839 q 326 810 365 840 q 286 724 286 781 q 317 649 286 675 q 400 605 347 622 q 521 565 453 588 q 653 505 593 540 q 749 415 713 469 q 785 278 785 360 q 765 174 785 224 q 707 88 746 125 q 744 -44 744 33 q 703 -192 744 -131 q 588 -288 661 -254 q 418 -322 514 -322 m 567 186 q 596 265 596 218 q 565 347 596 317 q 482 400 535 378 q 360 447 429 422 q 314 464 333 456 q 278 481 294 472 q 249 401 249 449 q 278 320 249 351 q 360 267 307 289 q 485 219 414 244 q 527 203 507 213 q 567 186 547 194 z "},"©":{"ha":1092,"x_min":61,"x_max":1031,"o":"m 546 -8 q 294 56 403 -8 q 123 231 185 119 q 61 489 61 343 q 123 745 61 633 q 294 920 185 857 q 546 983 403 983 q 799 920 690 983 q 969 745 908 857 q 1031 489 1031 633 q 969 231 1031 343 q 799 56 908 119 q 546 -8 690 -8 m 546 57 q 768 111 675 57 q 912 263 861 165 q 963 489 963 360 q 912 715 963 618 q 768 866 861 813 q 546 919 675 919 q 325 866 418 919 q 181 715 232 813 q 131 489 131 618 q 181 263 131 360 q 325 111 232 165 q 546 57 418 57 m 547 171 q 392 209 461 171 q 283 319 322 247 q 243 489 243 390 q 283 658 243 588 q 392 768 322 729 q 547 807 461 807 q 733 749 654 807 q 835 586 811 690 l 679 586 q 628 658 664 632 q 543 683 593 683 q 434 635 478 683 q 390 489 390 586 q 434 342 390 392 q 543 293 478 293 q 629 319 596 293 q 679 390 663 346 l 835 390 q 733 231 811 290 q 547 171 654 171 z "},"®":{"ha":707,"x_min":63,"x_max":643,"o":"m 354 407 q 203 444 269 407 q 100 548 138 482 q 63 697 63 614 q 100 848 63 782 q 203 951 138 914 q 354 989 269 989 q 504 951 439 989 q 606 848 569 914 q 643 697 643 782 q 606 548 643 614 q 504 444 569 482 q 354 407 439 407 m 354 471 q 515 534 454 471 q 575 697 575 597 q 515 861 575 799 q 354 924 454 924 q 192 861 253 924 q 132 697 132 799 q 192 534 132 597 q 354 471 253 471 m 235 553 l 235 849 l 379 849 q 455 824 426 849 q 483 756 483 799 q 421 669 483 690 l 496 554 l 401 553 l 336 663 l 318 663 l 318 553 l 235 553 m 317 722 l 368 722 q 390 729 381 722 q 399 751 399 736 q 390 772 399 765 q 368 778 381 778 l 317 778 l 317 722 z "},"™":{"ha":1150,"x_min":38,"x_max":1085,"o":"m 481 485 l 481 972 l 656 972 l 783 640 l 922 972 l 1085 972 l 1085 485 l 963 485 l 960 804 l 825 485 l 733 485 l 599 815 l 599 485 l 481 485 m 156 485 l 157 867 l 38 867 l 38 972 l 408 972 l 408 867 l 288 867 l 289 485 l 156 485 z "},"°":{"ha":500,"x_min":53,"x_max":447,"o":"m 249 592 q 151 616 196 592 q 80 685 107 640 q 53 789 53 729 q 80 895 53 850 q 152 965 107 940 q 250 989 197 989 q 349 965 304 989 q 420 895 393 940 q 447 789 447 850 q 420 685 447 729 q 348 616 393 640 q 249 592 303 592 m 249 706 q 303 726 278 706 q 329 790 329 747 q 304 854 329 833 q 250 875 279 875 q 197 854 222 875 q 171 790 171 833 q 196 726 171 747 q 249 706 221 706 z "},"|":{"ha":367,"x_min":94,"x_max":272,"o":"m 94 -139 l 94 1000 l 272 1000 l 272 -139 l 94 -139 z "},"¦":{"ha":367,"x_min":94,"x_max":272,"o":"m 94 547 l 94 1000 l 272 1000 l 272 547 l 94 547 m 94 -139 l 94 314 l 272 314 l 272 -139 l 94 -139 z "},"†":{"ha":824,"x_min":64,"x_max":760,"o":"m 322 -365 l 340 644 l 64 631 l 64 768 l 340 753 l 322 1090 l 500 1090 l 482 753 l 760 768 l 760 631 l 482 644 l 500 -365 l 322 -365 z "},"ℓ":{"ha":367,"x_min":94,"x_max":272,"o":"m 94 -139 l 94 1000 l 272 1000 l 272 -139 l 94 -139 z "},"‡":{"ha":825,"x_min":64,"x_max":761,"o":"m 322 -365 l 342 -28 l 64 -43 l 64 94 l 342 81 l 342 644 l 64 631 l 64 768 l 342 753 l 322 1090 l 500 1090 l 483 753 l 761 768 l 761 631 l 483 644 l 483 81 l 761 94 l 761 -43 l 483 -28 l 500 -365 l 322 -365 z "},"℮":{"ha":1049,"x_min":57,"x_max":990,"o":"m 536 -10 q 292 45 400 -10 q 120 206 183 100 q 57 463 57 311 q 111 726 57 608 q 269 912 165 843 q 524 981 374 981 q 724 943 638 981 q 870 841 811 906 q 960 695 929 776 q 990 526 990 614 l 990 440 l 281 440 l 281 203 q 392 125 331 151 q 536 99 454 99 q 722 142 640 99 q 883 265 804 186 l 951 188 q 761 42 864 94 q 536 -10 658 -10 m 281 544 l 760 544 l 760 783 q 524 874 676 874 q 281 771 368 874 l 281 544 z "},"̈":{"ha":0,"x_min":0,"x_max":422,"o":"m 336 783 q 275 808 300 783 q 250 869 250 833 q 275 931 250 906 q 336 956 300 956 q 397 931 372 956 q 422 869 422 906 q 397 808 422 833 q 336 783 372 783 m 86 783 q 25 808 50 783 q 0 869 0 833 q 25 931 0 906 q 86 956 50 956 q 147 931 122 956 q 172 869 172 906 q 147 808 172 833 q 86 783 122 783 z "},"̇":{"ha":0,"x_min":0,"x_max":172,"o":"m 86 778 q 25 803 50 778 q 0 864 0 828 q 25 925 0 900 q 86 950 50 950 q 147 925 122 950 q 172 864 172 900 q 147 803 172 828 q 86 778 122 778 z "},"̀":{"ha":0,"x_min":0,"x_max":314,"o":"m 314 744 l 0 894 l 0 1039 l 314 869 l 314 744 z "},"́":{"ha":0,"x_min":0,"x_max":314,"o":"m 0 744 l 0 869 l 314 1039 l 314 894 l 0 744 z "},"̋":{"ha":0,"x_min":0,"x_max":494,"o":"m 236 756 l 349 1004 l 494 1004 l 347 756 l 236 756 m 0 756 l 99 1004 l 243 1004 l 113 756 l 0 756 z "},"̂":{"ha":0,"x_min":0,"x_max":406,"o":"m 0 754 l 0 882 l 203 993 l 406 882 l 406 754 l 203 868 l 0 754 z "},"̌":{"ha":0,"x_min":0,"x_max":406,"o":"m 203 753 l 0 864 l 0 992 l 203 874 l 406 992 l 406 864 l 203 753 z "},"̆":{"ha":0,"x_min":0,"x_max":432,"o":"m 215 757 q 58 814 115 757 q 0 968 0 871 l 0 990 l 94 990 q 122 917 94 943 q 215 890 149 890 q 310 917 283 890 q 338 990 338 943 l 432 990 l 432 967 q 374 814 432 871 q 215 757 315 757 z "},"̊":{"ha":0,"x_min":0,"x_max":317,"o":"m 157 760 q 47 801 93 760 q 0 915 0 843 q 47 1029 0 988 q 157 1071 93 1071 q 270 1029 224 1071 q 317 915 317 988 q 270 801 317 843 q 157 760 224 760 m 157 840 q 210 861 189 840 q 231 915 231 882 q 210 970 231 950 q 157 990 189 990 q 107 970 128 990 q 86 915 86 950 q 107 861 86 882 q 157 840 128 840 z "},"̃":{"ha":0,"x_min":0,"x_max":488,"o":"m 325 761 q 258 777 286 761 q 207 809 231 793 q 154 825 183 825 q 94 763 104 825 l 0 763 q 56 893 14 851 q 163 935 99 935 q 229 919 201 935 q 281 887 257 903 q 333 871 304 871 q 373 886 357 871 q 393 933 389 901 l 488 933 q 431 803 475 844 q 325 761 388 761 z "},"̄":{"ha":0,"x_min":0,"x_max":519,"o":"m 0 804 l 0 931 l 519 931 l 519 804 l 0 804 z "},"̧":{"ha":0,"x_min":0,"x_max":363,"o":"m 0 -365 l 0 -262 l 156 -262 q 229 -212 229 -262 q 156 -164 229 -164 l 71 -164 l 71 10 l 182 10 l 182 -69 q 270 -83 229 -68 q 337 -131 311 -99 q 363 -215 363 -164 q 308 -328 363 -290 q 182 -365 254 -365 l 0 -365 z "},"̨":{"ha":0,"x_min":0,"x_max":306,"o":"m 185 -292 q 55 -257 110 -292 q 0 -147 0 -222 q 42 -42 0 -92 q 194 56 83 8 l 258 83 l 299 0 l 226 -36 q 156 -83 176 -61 q 135 -131 135 -106 q 154 -172 135 -157 q 207 -187 174 -187 q 306 -167 251 -187 l 306 -272 q 248 -286 279 -281 q 185 -292 217 -292 z "},"´":{"ha":358,"x_min":22,"x_max":336,"o":"m 22 744 l 22 869 l 336 1039 l 336 894 l 22 744 z "},"˘":{"ha":476,"x_min":22,"x_max":454,"o":"m 238 757 q 80 814 138 757 q 22 968 22 871 l 22 990 l 117 990 q 144 917 117 943 q 238 890 171 890 q 332 917 304 890 q 360 990 360 943 l 454 990 l 454 967 q 396 814 454 871 q 238 757 338 757 z "},"ˇ":{"ha":450,"x_min":22,"x_max":428,"o":"m 225 753 l 22 864 l 22 992 l 225 874 l 428 992 l 428 864 l 225 753 z "},"¸":{"ha":407,"x_min":22,"x_max":385,"o":"m 22 -365 l 22 -262 l 178 -262 q 251 -212 251 -262 q 178 -164 251 -164 l 93 -164 l 93 10 l 204 10 l 204 -69 q 292 -83 251 -68 q 359 -131 333 -99 q 385 -215 385 -164 q 331 -328 385 -290 q 204 -365 276 -365 l 22 -365 z "},"ˆ":{"ha":450,"x_min":22,"x_max":428,"o":"m 22 754 l 22 882 l 225 993 l 428 882 l 428 754 l 225 868 l 22 754 z "},"¨":{"ha":479,"x_min":29,"x_max":450,"o":"m 365 783 q 304 808 329 783 q 279 869 279 833 q 304 931 279 906 q 365 956 329 956 q 426 931 401 956 q 450 869 450 906 q 426 808 450 833 q 365 783 401 783 m 114 783 q 53 808 78 783 q 29 869 29 833 q 53 931 29 906 q 114 956 78 956 q 175 931 150 956 q 200 869 200 906 q 175 808 200 833 q 114 783 150 783 z "},"˙":{"ha":221,"x_min":25,"x_max":196,"o":"m 110 778 q 50 803 75 778 q 25 864 25 828 q 50 925 25 900 q 110 950 75 950 q 171 925 146 950 q 196 864 196 900 q 171 803 196 828 q 110 778 146 778 z "},"`":{"ha":358,"x_min":22,"x_max":336,"o":"m 336 744 l 22 894 l 22 1039 l 336 869 l 336 744 z "},"˝":{"ha":546,"x_min":22,"x_max":517,"o":"m 258 756 l 371 1004 l 517 1004 l 369 756 l 258 756 m 22 756 l 121 1004 l 265 1004 l 135 756 l 22 756 z "},"¯":{"ha":564,"x_min":22,"x_max":542,"o":"m 22 804 l 22 931 l 542 931 l 542 804 l 22 804 z "},"˛":{"ha":363,"x_min":28,"x_max":333,"o":"m 213 -292 q 83 -257 139 -292 q 28 -147 28 -222 q 69 -42 28 -92 q 222 56 111 8 l 286 83 l 326 0 l 254 -36 q 184 -83 204 -61 q 164 -131 164 -106 q 183 -172 164 -157 q 236 -187 203 -187 q 333 -167 281 -187 l 333 -272 q 276 -286 307 -281 q 213 -292 246 -292 z "},"˚":{"ha":356,"x_min":21,"x_max":336,"o":"m 178 760 q 67 801 114 760 q 21 915 21 843 q 67 1029 21 988 q 178 1071 114 1071 q 290 1029 244 1071 q 336 915 336 988 q 290 801 336 843 q 178 760 244 760 m 178 840 q 230 861 208 840 q 251 915 251 882 q 230 970 251 950 q 178 990 208 990 q 127 970 149 990 q 106 915 106 950 q 127 861 106 882 q 178 840 149 840 z "},"˜":{"ha":525,"x_min":18,"x_max":507,"o":"m 343 761 q 276 777 304 761 q 225 809 249 793 q 174 825 201 825 q 113 763 122 825 l 18 763 q 74 893 32 851 q 181 935 117 935 q 247 919 219 935 q 299 887 275 903 q 351 871 322 871 q 391 886 375 871 q 411 933 407 901 l 507 933 q 450 803 493 844 q 343 761 407 761 z "}}}
